<svg width="100" height="100" viewBox="0 0 100 100" fill="none" xmlns="http://www.w3.org/2000/svg">
<rect width="100" height="100" rx="16" fill="url(#paint0_linear_353_2728)"/>
<path d="M70 41.6667C70 37.158 68.2089 32.834 65.0208 29.6459C61.8327 26.4578 57.5087 24.6667 53 24.6667C48.4913 24.6667 44.1673 26.4578 40.9792 29.6459C37.7911 32.834 36 37.158 36 41.6667C36 61.5 27.5 67.1667 27.5 67.1667H78.5C78.5 67.1667 70 61.5 70 41.6667Z" stroke="white" stroke-width="2" stroke-linecap="round" stroke-linejoin="round"/>
<path d="M57.9017 78.5C57.4036 79.3587 56.6886 80.0715 55.8284 80.567C54.9681 81.0625 53.9928 81.3233 53.0001 81.3233C52.0073 81.3233 51.032 81.0625 50.1717 80.567C49.3115 80.0715 48.5965 79.3587 48.0984 78.5" stroke="white" stroke-width="2" stroke-linecap="round" stroke-linejoin="round"/>
<defs>
<linearGradient id="paint0_linear_353_2728" x1="2.5" y1="6" x2="94.5" y2="92" gradientUnits="userSpaceOnUse">
<stop stop-color="#8F2979"/>
<stop offset="0.5" stop-color="#E9334C"/>
<stop offset="1" stop-color="#EF6727"/>
</linearGradient>
</defs>
</svg>
