<svg width="124" height="124" viewBox="0 0 124 124" fill="none" xmlns="http://www.w3.org/2000/svg">
<rect width="124" height="124" rx="20" fill="#2F4858"/>
<path d="M77.4166 34.25C78.2264 33.4402 79.1878 32.7978 80.2459 32.3595C81.304 31.9213 82.438 31.6957 83.5833 31.6957C84.7286 31.6957 85.8626 31.9213 86.9207 32.3595C87.9787 32.7978 88.9401 33.4402 89.75 34.25C90.5598 35.0598 91.2022 36.0212 91.6404 37.0793C92.0787 38.1374 92.3043 39.2714 92.3043 40.4167C92.3043 41.5619 92.0787 42.696 91.6404 43.754C91.2022 44.8121 90.5598 45.7735 89.75 46.5833L48.125 88.2083L31.1666 92.8333L35.7916 75.875L77.4166 34.25Z" stroke="white" stroke-width="2" stroke-linecap="round" stroke-linejoin="round"/>
</svg>
