<svg width="100" height="100" viewBox="0 0 100 100" fill="none" xmlns="http://www.w3.org/2000/svg">
<rect width="100" height="100" rx="16" fill="url(#paint0_linear_353_2718)"/>
<path d="M71 47.0833H29C25.6863 47.0833 23 49.695 23 52.9166V73.3333C23 76.555 25.6863 79.1666 29 79.1666H71C74.3137 79.1666 77 76.555 77 73.3333V52.9166C77 49.695 74.3137 47.0833 71 47.0833Z" stroke="white" stroke-width="2" stroke-linecap="round" stroke-linejoin="round"/>
<path d="M35 47.0833V35.4166C35 31.5489 36.5804 27.8396 39.3934 25.1047C42.2064 22.3698 46.0218 20.8333 50 20.8333C53.9782 20.8333 57.7936 22.3698 60.6066 25.1047C63.4196 27.8396 65 31.5489 65 35.4166V47.0833" stroke="white" stroke-width="2" stroke-linecap="round" stroke-linejoin="round"/>
<defs>
<linearGradient id="paint0_linear_353_2718" x1="2.5" y1="6" x2="94.5" y2="92" gradientUnits="userSpaceOnUse">
<stop stop-color="#8F2979"/>
<stop offset="0.5" stop-color="#E9334C"/>
<stop offset="1" stop-color="#EF6727"/>
</linearGradient>
</defs>
</svg>
