<svg width="124" height="124" viewBox="0 0 124 124" fill="none" xmlns="http://www.w3.org/2000/svg">
<rect width="124" height="124" rx="20" fill="#2F4858"/>
<path d="M86.464 106.307H37.782C34.9716 106.307 32.6934 104.029 32.6934 101.218C32.6934 98.4078 34.9716 96.1295 37.782 96.1295H86.4638C89.2742 96.1295 91.5525 98.4078 91.5525 101.218C91.5526 104.029 89.2742 106.307 86.464 106.307Z" fill="#868686"/>
<path d="M46.7997 91.7451C46.7318 91.7451 46.6634 91.741 46.5943 91.7327C45.6659 91.6204 45.0044 90.7767 45.1167 89.8485C45.6825 85.1696 47.2445 80.8673 49.6339 77.4065C50.1652 76.6367 51.2199 76.4437 51.9893 76.9752C52.7589 77.5065 52.9521 78.5611 52.4206 79.3307C50.342 82.3414 48.9787 86.1191 48.4786 90.2552C48.3748 91.1143 47.6441 91.7451 46.7997 91.7451Z" fill="white"/>
<path d="M54.6741 76.1193C54.1732 76.1193 53.6774 75.8981 53.3434 75.4743C52.7645 74.74 52.8903 73.6753 53.6246 73.0964C54.9365 72.062 56.3446 71.2623 57.8099 70.7196C58.6867 70.3946 59.661 70.8423 59.9859 71.7193C60.3107 72.5962 59.863 73.5705 58.9862 73.8952C57.8533 74.3148 56.7549 74.9406 55.7215 75.7556C55.4106 76.0004 55.0408 76.1193 54.6741 76.1193Z" fill="white"/>
<path d="M57.9319 60.7677C57.6276 60.7677 57.3196 60.6858 57.0421 60.5138C52.6837 57.8149 49.2707 53.9325 47.6777 49.862C47.3369 48.9912 47.7666 48.0089 48.6374 47.6681C49.5086 47.3274 50.4905 47.7572 50.8313 48.6278C52.1627 52.0305 55.0763 55.3134 58.8249 57.6344C59.6199 58.1268 59.8654 59.1704 59.373 59.9655C59.0528 60.4831 58.4986 60.7677 57.9319 60.7677Z" fill="white"/>
<path d="M37.782 24.6932H86.4638C89.2742 24.6932 91.5525 26.9715 91.5525 29.7819C91.5525 32.5923 89.2742 34.8705 86.4638 34.8705H37.782C34.9716 34.8705 32.6934 32.5923 32.6934 29.7819C32.6934 26.9715 34.9718 24.6932 37.782 24.6932Z" fill="#868686"/>
<path d="M86.4637 94.4362H85.2991C85.09 86.5113 82.7672 79.0839 78.7019 73.4123C76.0696 69.7398 72.8969 67.0586 69.4188 65.5C72.897 63.9414 76.0696 61.2603 78.7019 57.5877C82.767 51.9161 85.09 44.4887 85.2991 36.5638H86.4637C90.2032 36.5638 93.2457 33.5214 93.2457 29.7819C93.2457 26.0424 90.2034 23 86.4637 23H37.7821C34.0426 23 31 26.0424 31 29.7819C31 33.5214 34.0424 36.5638 37.7821 36.5638H38.9467C39.1558 44.4887 41.4785 51.9161 45.5438 57.5877C48.1761 61.2602 51.3489 63.9414 54.8269 65.5C51.3487 67.0586 48.1761 69.7397 45.5438 73.4123C41.4787 79.0839 39.1558 86.5113 38.9467 94.4362H37.7821C34.0426 94.4362 31 97.4786 31 101.218C31 104.958 34.0426 108 37.7821 108H86.4639C90.2034 108 93.2459 104.958 93.2459 101.218C93.2459 97.4786 90.2034 94.4362 86.4637 94.4362ZM34.3865 29.7819C34.3865 27.9097 35.9099 26.3865 37.7821 26.3865H86.4639C88.3362 26.3865 89.8595 27.9097 89.8595 29.7819C89.8595 31.6541 88.3362 33.1773 86.4639 33.1773H37.7821C35.9099 33.1773 34.3865 31.6543 34.3865 29.7819ZM42.3343 36.5638H81.9116C81.4793 51.6282 72.7694 63.6938 62.1229 63.6938C51.4764 63.6938 42.7664 51.6282 42.3343 36.5638ZM62.1229 67.3062C72.7694 67.3062 81.4793 79.3718 81.9115 94.4362H42.3343C42.7664 79.3718 51.4764 67.3062 62.1229 67.3062ZM86.4637 104.614H37.7821C35.9097 104.614 34.3865 103.09 34.3865 101.218C34.3865 99.3459 35.9097 97.8227 37.7821 97.8227H86.4639C88.3362 97.8227 89.8595 99.3459 89.8595 101.218C89.8595 103.09 88.3361 104.614 86.4637 104.614Z" fill="white"/>
</svg>
