<svg width="115" height="16" viewBox="0 0 115 16" fill="none" xmlns="http://www.w3.org/2000/svg">
<path d="M7.94182 15L4.86182 9.56H3.54182V15H0.741817V1.04H5.98182C7.06182 1.04 7.98182 1.23333 8.74182 1.62C9.50182 1.99333 10.0685 2.50667 10.4418 3.16C10.8285 3.8 11.0218 4.52 11.0218 5.32C11.0218 6.24 10.7552 7.07333 10.2218 7.82C9.68848 8.55333 8.89515 9.06 7.84182 9.34L11.1818 15H7.94182ZM3.54182 7.46H5.88182C6.64182 7.46 7.20848 7.28 7.58182 6.92C7.95515 6.54667 8.14182 6.03333 8.14182 5.38C8.14182 4.74 7.95515 4.24667 7.58182 3.9C7.20848 3.54 6.64182 3.36 5.88182 3.36H3.54182V7.46ZM23.8543 9.22C23.8543 9.62 23.8277 9.98 23.7743 10.3H15.6743C15.741 11.1 16.021 11.7267 16.5143 12.18C17.0076 12.6333 17.6143 12.86 18.3343 12.86C19.3743 12.86 20.1143 12.4133 20.5543 11.52H23.5743C23.2543 12.5867 22.641 13.4667 21.7343 14.16C20.8277 14.84 19.7143 15.18 18.3943 15.18C17.3276 15.18 16.3676 14.9467 15.5143 14.48C14.6743 14 14.0143 13.3267 13.5343 12.46C13.0676 11.5933 12.8343 10.5933 12.8343 9.46C12.8343 8.31333 13.0676 7.30667 13.5343 6.44C14.001 5.57333 14.6543 4.90667 15.4943 4.44C16.3343 3.97333 17.301 3.74 18.3943 3.74C19.4477 3.74 20.3877 3.96667 21.2143 4.42C22.0543 4.87333 22.701 5.52 23.1543 6.36C23.621 7.18667 23.8543 8.14 23.8543 9.22ZM20.9543 8.42C20.941 7.7 20.681 7.12667 20.1743 6.7C19.6677 6.26 19.0477 6.04 18.3143 6.04C17.621 6.04 17.0343 6.25333 16.5543 6.68C16.0877 7.09333 15.801 7.67333 15.6943 8.42H20.9543ZM32.4581 15L28.6981 10.28V15H25.8981V0.2H28.6981V8.62L32.4181 3.92H36.0581L31.1781 9.48L36.0981 15H32.4581ZM36.8578 9.42C36.8578 8.3 37.0778 7.30667 37.5178 6.44C37.9711 5.57333 38.5778 4.90667 39.3378 4.44C40.1111 3.97333 40.9711 3.74 41.9178 3.74C42.7444 3.74 43.4644 3.90667 44.0778 4.24C44.7044 4.57333 45.2044 4.99333 45.5778 5.5V3.92H48.3978V15H45.5778V13.38C45.2178 13.9 44.7178 14.3333 44.0778 14.68C43.4511 15.0133 42.7244 15.18 41.8978 15.18C40.9644 15.18 40.1111 14.94 39.3378 14.46C38.5778 13.98 37.9711 13.3067 37.5178 12.44C37.0778 11.56 36.8578 10.5533 36.8578 9.42ZM45.5778 9.46C45.5778 8.78 45.4444 8.2 45.1778 7.72C44.9111 7.22667 44.5511 6.85333 44.0978 6.6C43.6444 6.33333 43.1578 6.2 42.6378 6.2C42.1178 6.2 41.6378 6.32667 41.1978 6.58C40.7578 6.83333 40.3978 7.20667 40.1178 7.7C39.8511 8.18 39.7178 8.75333 39.7178 9.42C39.7178 10.0867 39.8511 10.6733 40.1178 11.18C40.3978 11.6733 40.7578 12.0533 41.1978 12.32C41.6511 12.5867 42.1311 12.72 42.6378 12.72C43.1578 12.72 43.6444 12.5933 44.0978 12.34C44.5511 12.0733 44.9111 11.7 45.1778 11.22C45.4444 10.7267 45.5778 10.14 45.5778 9.46ZM57.2724 3.76C58.5924 3.76 59.6591 4.18 60.4724 5.02C61.2858 5.84667 61.6924 7.00667 61.6924 8.5V15H58.8924V8.88C58.8924 8 58.6724 7.32667 58.2324 6.86C57.7924 6.38 57.1924 6.14 56.4324 6.14C55.6591 6.14 55.0458 6.38 54.5924 6.86C54.1524 7.32667 53.9324 8 53.9324 8.88V15H51.1324V3.92H53.9324V5.3C54.3058 4.82 54.7791 4.44667 55.3524 4.18C55.9391 3.9 56.5791 3.76 57.2724 3.76ZM63.6351 9.42C63.6351 8.3 63.8551 7.30667 64.2951 6.44C64.7484 5.57333 65.3551 4.90667 66.1151 4.44C66.8884 3.97333 67.7484 3.74 68.6951 3.74C69.5218 3.74 70.2418 3.90667 70.8551 4.24C71.4818 4.57333 71.9818 4.99333 72.3551 5.5V3.92H75.1751V15H72.3551V13.38C71.9951 13.9 71.4951 14.3333 70.8551 14.68C70.2284 15.0133 69.5018 15.18 68.6751 15.18C67.7418 15.18 66.8884 14.94 66.1151 14.46C65.3551 13.98 64.7484 13.3067 64.2951 12.44C63.8551 11.56 63.6351 10.5533 63.6351 9.42ZM72.3551 9.46C72.3551 8.78 72.2218 8.2 71.9551 7.72C71.6884 7.22667 71.3284 6.85333 70.8751 6.6C70.4218 6.33333 69.9351 6.2 69.4151 6.2C68.8951 6.2 68.4151 6.32667 67.9751 6.58C67.5351 6.83333 67.1751 7.20667 66.8951 7.7C66.6284 8.18 66.4951 8.75333 66.4951 9.42C66.4951 10.0867 66.6284 10.6733 66.8951 11.18C67.1751 11.6733 67.5351 12.0533 67.9751 12.32C68.4284 12.5867 68.9084 12.72 69.4151 12.72C69.9351 12.72 70.4218 12.5933 70.8751 12.34C71.3284 12.0733 71.6884 11.7 71.9551 11.22C72.2218 10.7267 72.3551 10.14 72.3551 9.46ZM84.0498 3.76C85.3698 3.76 86.4365 4.18 87.2498 5.02C88.0631 5.84667 88.4698 7.00667 88.4698 8.5V15H85.6698V8.88C85.6698 8 85.4498 7.32667 85.0098 6.86C84.5698 6.38 83.9698 6.14 83.2098 6.14C82.4365 6.14 81.8231 6.38 81.3698 6.86C80.9298 7.32667 80.7098 8 80.7098 8.88V15H77.9098V3.92H80.7098V5.3C81.0831 4.82 81.5565 4.44667 82.1298 4.18C82.7165 3.9 83.3565 3.76 84.0498 3.76Z" fill="white"/>
<path d="M99.0124 15L93.9324 8.78V15H91.1324V1.04H93.9324V7.3L99.0124 1.04H102.392L96.6324 7.96L102.552 15H99.0124ZM114.854 3.92V15H112.034V13.6C111.674 14.08 111.201 14.46 110.614 14.74C110.041 15.0067 109.414 15.14 108.734 15.14C107.867 15.14 107.101 14.96 106.434 14.6C105.767 14.2267 105.241 13.6867 104.854 12.98C104.481 12.26 104.294 11.4067 104.294 10.42V3.92H107.094V10.02C107.094 10.9 107.314 11.58 107.754 12.06C108.194 12.5267 108.794 12.76 109.554 12.76C110.327 12.76 110.934 12.5267 111.374 12.06C111.814 11.58 112.034 10.9 112.034 10.02V3.92H114.854Z" fill="#52E1FE"/>
</svg>
