<svg width="115" height="16" viewBox="0 0 115 16" fill="none" xmlns="http://www.w3.org/2000/svg">
<path d="M7.58 15L4.5 9.56H3.18V15H0.38V1.04H5.62C6.7 1.04 7.62 1.23333 8.38 1.62C9.14 1.99333 9.70667 2.50667 10.08 3.16C10.4667 3.8 10.66 4.52 10.66 5.32C10.66 6.24 10.3933 7.07333 9.86 7.82C9.32667 8.55333 8.53333 9.06 7.48 9.34L10.82 15H7.58ZM3.18 7.46H5.52C6.28 7.46 6.84667 7.28 7.22 6.92C7.59333 6.54667 7.78 6.03333 7.78 5.38C7.78 4.74 7.59333 4.24667 7.22 3.9C6.84667 3.54 6.28 3.36 5.52 3.36H3.18V7.46ZM23.4925 9.22C23.4925 9.62 23.4658 9.98 23.4125 10.3H15.3125C15.3792 11.1 15.6592 11.7267 16.1525 12.18C16.6458 12.6333 17.2525 12.86 17.9725 12.86C19.0125 12.86 19.7525 12.4133 20.1925 11.52H23.2125C22.8925 12.5867 22.2792 13.4667 21.3725 14.16C20.4658 14.84 19.3525 15.18 18.0325 15.18C16.9658 15.18 16.0058 14.9467 15.1525 14.48C14.3125 14 13.6525 13.3267 13.1725 12.46C12.7058 11.5933 12.4725 10.5933 12.4725 9.46C12.4725 8.31333 12.7058 7.30667 13.1725 6.44C13.6392 5.57333 14.2925 4.90667 15.1325 4.44C15.9725 3.97333 16.9392 3.74 18.0325 3.74C19.0858 3.74 20.0258 3.96667 20.8525 4.42C21.6925 4.87333 22.3392 5.52 22.7925 6.36C23.2592 7.18667 23.4925 8.14 23.4925 9.22ZM20.5925 8.42C20.5792 7.7 20.3192 7.12667 19.8125 6.7C19.3058 6.26 18.6858 6.04 17.9525 6.04C17.2592 6.04 16.6725 6.25333 16.1925 6.68C15.7258 7.09333 15.4392 7.67333 15.3325 8.42H20.5925ZM32.0963 15L28.3363 10.28V15H25.5363V0.2H28.3363V8.62L32.0563 3.92H35.6963L30.8163 9.48L35.7363 15H32.0963ZM36.4959 9.42C36.4959 8.3 36.7159 7.30667 37.1559 6.44C37.6093 5.57333 38.2159 4.90667 38.9759 4.44C39.7493 3.97333 40.6093 3.74 41.5559 3.74C42.3826 3.74 43.1026 3.90667 43.7159 4.24C44.3426 4.57333 44.8426 4.99333 45.2159 5.5V3.92H48.0359V15H45.2159V13.38C44.8559 13.9 44.3559 14.3333 43.7159 14.68C43.0893 15.0133 42.3626 15.18 41.5359 15.18C40.6026 15.18 39.7493 14.94 38.9759 14.46C38.2159 13.98 37.6093 13.3067 37.1559 12.44C36.7159 11.56 36.4959 10.5533 36.4959 9.42ZM45.2159 9.46C45.2159 8.78 45.0826 8.2 44.8159 7.72C44.5493 7.22667 44.1893 6.85333 43.7359 6.6C43.2826 6.33333 42.7959 6.2 42.2759 6.2C41.7559 6.2 41.2759 6.32667 40.8359 6.58C40.3959 6.83333 40.0359 7.20667 39.7559 7.7C39.4893 8.18 39.3559 8.75333 39.3559 9.42C39.3559 10.0867 39.4893 10.6733 39.7559 11.18C40.0359 11.6733 40.3959 12.0533 40.8359 12.32C41.2893 12.5867 41.7693 12.72 42.2759 12.72C42.7959 12.72 43.2826 12.5933 43.7359 12.34C44.1893 12.0733 44.5493 11.7 44.8159 11.22C45.0826 10.7267 45.2159 10.14 45.2159 9.46ZM56.9106 3.76C58.2306 3.76 59.2973 4.18 60.1106 5.02C60.924 5.84667 61.3306 7.00667 61.3306 8.5V15H58.5306V8.88C58.5306 8 58.3106 7.32667 57.8706 6.86C57.4306 6.38 56.8306 6.14 56.0706 6.14C55.2973 6.14 54.684 6.38 54.2306 6.86C53.7906 7.32667 53.5706 8 53.5706 8.88V15H50.7706V3.92H53.5706V5.3C53.944 4.82 54.4173 4.44667 54.9906 4.18C55.5773 3.9 56.2173 3.76 56.9106 3.76ZM63.2733 9.42C63.2733 8.3 63.4933 7.30667 63.9333 6.44C64.3866 5.57333 64.9933 4.90667 65.7533 4.44C66.5266 3.97333 67.3866 3.74 68.3333 3.74C69.1599 3.74 69.8799 3.90667 70.4933 4.24C71.1199 4.57333 71.6199 4.99333 71.9933 5.5V3.92H74.8133V15H71.9933V13.38C71.6333 13.9 71.1333 14.3333 70.4933 14.68C69.8666 15.0133 69.1399 15.18 68.3133 15.18C67.3799 15.18 66.5266 14.94 65.7533 14.46C64.9933 13.98 64.3866 13.3067 63.9333 12.44C63.4933 11.56 63.2733 10.5533 63.2733 9.42ZM71.9933 9.46C71.9933 8.78 71.8599 8.2 71.5933 7.72C71.3266 7.22667 70.9666 6.85333 70.5133 6.6C70.0599 6.33333 69.5733 6.2 69.0533 6.2C68.5333 6.2 68.0533 6.32667 67.6133 6.58C67.1733 6.83333 66.8133 7.20667 66.5333 7.7C66.2666 8.18 66.1333 8.75333 66.1333 9.42C66.1333 10.0867 66.2666 10.6733 66.5333 11.18C66.8133 11.6733 67.1733 12.0533 67.6133 12.32C68.0666 12.5867 68.5466 12.72 69.0533 12.72C69.5733 12.72 70.0599 12.5933 70.5133 12.34C70.9666 12.0733 71.3266 11.7 71.5933 11.22C71.8599 10.7267 71.9933 10.14 71.9933 9.46ZM83.688 3.76C85.008 3.76 86.0746 4.18 86.888 5.02C87.7013 5.84667 88.108 7.00667 88.108 8.5V15H85.308V8.88C85.308 8 85.088 7.32667 84.648 6.86C84.208 6.38 83.608 6.14 82.848 6.14C82.0746 6.14 81.4613 6.38 81.008 6.86C80.568 7.32667 80.348 8 80.348 8.88V15H77.548V3.92H80.348V5.3C80.7213 4.82 81.1946 4.44667 81.768 4.18C82.3546 3.9 82.9946 3.76 83.688 3.76Z" fill="#2F4858"/>
<path d="M98.6506 15L93.5706 8.78V15H90.7706V1.04H93.5706V7.3L98.6506 1.04H102.031L96.2706 7.96L102.191 15H98.6506ZM114.492 3.92V15H111.672V13.6C111.312 14.08 110.839 14.46 110.252 14.74C109.679 15.0067 109.052 15.14 108.372 15.14C107.506 15.14 106.739 14.96 106.072 14.6C105.406 14.2267 104.879 13.6867 104.492 12.98C104.119 12.26 103.932 11.4067 103.932 10.42V3.92H106.732V10.02C106.732 10.9 106.952 11.58 107.392 12.06C107.832 12.5267 108.432 12.76 109.192 12.76C109.966 12.76 110.572 12.5267 111.012 12.06C111.452 11.58 111.672 10.9 111.672 10.02V3.92H114.492Z" fill="#FF886A"/>
</svg>
