<svg width="48" height="48" viewBox="0 0 48 48" fill="none" xmlns="http://www.w3.org/2000/svg">
<mask id="mask0_1_2099" style="mask-type:luminance" maskUnits="userSpaceOnUse" x="0" y="0" width="49" height="48">
<path d="M23.6831 0.00149155C10.4648 0.17672 -0.172373 11.0993 0.0021164 24.3183C0.177345 37.5359 11.1007 48.1738 24.319 47.9978C37.5365 47.8234 48.1745 36.9001 47.9992 23.6825C47.8255 10.5714 37.0774 0 24.0047 0C23.8975 0 23.7903 1.14441e-05 23.6831 0.00149155Z" fill="white"/>
</mask>
<g mask="url(#mask0_1_2099)">
<path fill-rule="evenodd" clip-rule="evenodd" d="M23.4646 -3.88758C38.901 -3.33971 51.275 9.06974 51.0095 23.7379C50.7456 38.4054 37.9391 49.9217 22.5035 49.3738C7.06708 48.8267 -5.30761 36.4172 -5.04292 21.749C-4.77749 7.08159 8.02825 -4.4347 23.4646 -3.88758Z" fill="#9D2C30"/>
<path fill-rule="evenodd" clip-rule="evenodd" d="M23.5281 -3.81876C38.8654 -3.24575 51.1854 9.09123 50.9547 23.6448C50.7241 38.1977 38.027 49.6008 22.6904 49.0278C7.35385 48.4548 -4.96687 36.1178 -4.73619 21.565C-4.50551 7.01141 8.1908 -4.39177 23.5281 -3.81876Z" fill="#A02C30"/>
<path fill-rule="evenodd" clip-rule="evenodd" d="M23.5916 -3.74928C38.8291 -3.15113 51.0966 9.1134 50.9 23.5524C50.704 37.9914 38.1157 49.2807 22.8782 48.6825C7.64065 48.0844 -4.62683 35.8199 -4.43016 21.3809C-4.23423 6.94115 8.35414 -4.34742 23.5916 -3.74928Z" fill="#A32A30"/>
<path fill-rule="evenodd" clip-rule="evenodd" d="M23.6552 -3.68056C38.7936 -3.05728 51.0078 9.13479 50.8452 23.4599C50.6833 37.7843 38.2036 48.9598 23.0659 48.3365C7.92746 47.7132 -4.28679 35.5211 -4.12487 21.196C-3.96221 6.87086 8.51673 -4.30384 23.6552 -3.68056Z" fill="#A62A30"/>
<path fill-rule="evenodd" clip-rule="evenodd" d="M23.719 -3.61178C38.7576 -2.96262 50.9186 9.15625 50.7907 23.3668C50.662 37.578 38.2918 48.6396 23.2532 47.9905C8.21454 47.3413 -3.94722 35.2224 -3.81857 21.0112C-3.69066 6.80064 8.6796 -4.26094 23.719 -3.61178Z" fill="#A92930"/>
<path fill-rule="evenodd" clip-rule="evenodd" d="M23.7818 -3.54228C38.7214 -2.86872 50.8292 9.17843 50.7353 23.2751C50.6414 37.3718 38.3798 48.3188 23.4403 47.6452C8.50146 46.9709 -3.60706 34.9245 -3.51316 20.8278C-3.41926 6.73114 8.84305 -4.21658 23.7818 -3.54228Z" fill="#AB2930"/>
<path fill-rule="evenodd" clip-rule="evenodd" d="M23.8454 -3.4735C38.6858 -2.77481 50.7404 9.19989 50.6805 23.182C50.6206 37.1648 38.4685 47.9986 23.6288 47.2992C8.78755 46.5998 -3.267 34.6251 -3.20711 20.643C-3.14723 6.66093 9.00492 -4.17294 23.8454 -3.4735Z" fill="#AF2930"/>
<path fill-rule="evenodd" clip-rule="evenodd" d="M23.9089 -3.40473C38.6503 -2.68016 50.6509 9.22134 50.6257 23.0895C50.5998 36.9578 38.5564 47.6778 23.8165 46.9532C9.07436 46.2286 -2.92622 34.3264 -2.90108 20.4582C-2.87521 6.58996 9.16825 -4.13004 23.9089 -3.40473Z" fill="#B22930"/>
<path fill-rule="evenodd" clip-rule="evenodd" d="M23.9728 -3.33524C38.6136 -2.58552 50.5624 9.24352 50.5713 22.9979C50.5794 36.7515 38.6447 47.3583 24.0031 46.6079C9.36152 45.8582 -2.58656 34.0284 -2.59469 20.2748C-2.60356 6.52045 9.33121 -4.08495 23.9728 -3.33524Z" fill="#B4282F"/>
<path fill-rule="evenodd" clip-rule="evenodd" d="M24.0362 -3.26727C38.578 -2.49168 50.4736 9.2649 50.5157 22.9046C50.5586 36.5444 38.7325 47.0367 24.1907 46.2611C9.64823 45.4862 -2.24661 33.7296 -2.2895 20.0899C-2.33238 6.45015 9.49371 -4.04213 24.0362 -3.26727Z" fill="#B5282F"/>
<path fill-rule="evenodd" clip-rule="evenodd" d="M24.0991 -3.19778C38.5418 -2.39705 50.3841 9.28708 50.461 22.813C50.5379 36.3381 38.8205 46.7165 24.3778 45.9165C9.93515 45.1158 -1.90646 33.4317 -1.98336 19.9058C-2.06025 6.37991 9.65641 -3.9985 24.0991 -3.19778Z" fill="#BC282F"/>
<path fill-rule="evenodd" clip-rule="evenodd" d="M24.1629 -3.12898C38.5066 -2.30311 50.2957 9.30856 50.4058 22.7198C50.5175 36.1311 38.9095 46.3957 24.5659 45.5705C10.2223 44.7447 -1.56609 33.1323 -1.677 19.7217C-1.78864 6.30971 9.82007 -3.95485 24.1629 -3.12898Z" fill="#BF272F"/>
<path fill-rule="evenodd" clip-rule="evenodd" d="M24.2265 -3.06022C38.471 -2.20921 50.2061 9.33 50.351 22.6274C50.4967 35.9241 38.9967 46.0755 24.7536 45.2245C10.5091 44.3728 -1.22606 32.8343 -1.37098 19.5369C-1.51663 6.23947 9.98192 -3.91196 24.2265 -3.06022Z" fill="#C1272E"/>
<path fill-rule="evenodd" clip-rule="evenodd" d="M24.29 -2.99067C38.4347 -2.11379 50.1166 9.35223 50.2963 22.535C50.476 35.7179 39.0854 45.7554 24.9406 44.8793C10.7967 44.0024 -0.886727 32.5364 -1.06565 19.3528C-1.24532 6.17002 10.1453 -3.86755 24.29 -2.99067Z" fill="#C4262E"/>
<path fill-rule="evenodd" clip-rule="evenodd" d="M24.3534 -2.92199C38.3983 -2.02071 50.0285 9.37359 50.2414 22.4425C50.4551 35.5108 39.1739 45.4345 25.1283 44.5332C11.0834 43.6312 -0.546034 32.2369 -0.759709 19.1686C-0.973385 6.0997 10.3085 -3.82401 24.3534 -2.92199Z" fill="#C6252E"/>
<path fill-rule="evenodd" clip-rule="evenodd" d="M24.417 -2.8532C38.3629 -1.92604 49.9391 9.39581 50.1875 22.3502C50.4344 35.3038 39.2619 45.1144 25.3161 44.1872C11.3703 43.26 -0.205922 31.9382 -0.453608 18.9838C-0.702034 6.02949 10.4705 -3.78035 24.417 -2.8532Z" fill="#C9252D"/>
<path fill-rule="evenodd" clip-rule="evenodd" d="M24.4802 -2.78438C38.327 -1.83208 49.8499 9.41656 50.1316 22.257C50.4133 35.0983 39.3495 44.7928 25.5035 43.8412C11.6574 42.8889 0.133761 31.6395 -0.147936 18.7998C-0.429633 5.9593 10.6342 -3.73668 24.4802 -2.78438Z" fill="#CB242D"/>
<path fill-rule="evenodd" clip-rule="evenodd" d="M24.5438 -2.7157C38.2915 -1.73752 49.7612 9.43867 50.0769 22.1646C50.3933 34.8912 39.4382 44.4733 25.6913 43.4951C11.9443 42.5177 0.473883 31.3415 0.158176 18.6149C-0.157531 5.88899 10.7968 -3.69313 24.5438 -2.7157Z" fill="#CE242D"/>
<path fill-rule="evenodd" clip-rule="evenodd" d="M24.6072 -2.64618C38.2551 -1.6436 49.6716 9.46087 50.022 22.0722C50.3725 34.6842 39.5268 44.1524 25.8782 43.1506C12.231 42.1466 0.813819 31.0428 0.464101 18.4308C0.113644 5.81878 10.9593 -3.64949 24.6072 -2.64618Z" fill="#D0232D"/>
<path fill-rule="evenodd" clip-rule="evenodd" d="M24.6711 -2.57741C38.2191 -1.54896 49.5839 9.48232 49.9676 21.9797C50.3521 34.4779 39.6143 43.8323 26.0662 42.8039C12.5175 41.7761 1.15421 30.7441 0.76974 18.2467C0.386011 5.74928 11.1223 -3.60586 24.6711 -2.57741Z" fill="#D4262D"/>
<path fill-rule="evenodd" clip-rule="evenodd" d="M24.7346 -2.50866C38.1836 -1.45581 49.4944 9.50448 49.9121 21.8866C50.3313 34.2701 39.703 43.5114 26.2533 42.4578C12.8043 41.4042 1.49427 30.4454 1.07579 18.0618C0.65731 5.67903 11.2856 -3.56226 24.7346 -2.50866Z" fill="#D7252C"/>
<path fill-rule="evenodd" clip-rule="evenodd" d="M24.7981 -2.43987C38.148 -1.36114 49.4048 9.52596 49.8573 21.7949C50.3105 34.0639 39.7909 43.1913 26.4417 42.1126C13.0911 41.0338 1.83429 30.1467 1.38181 17.8778C0.929316 5.60808 11.4482 -3.51859 24.7981 -2.43987Z" fill="#D9252D"/>
<path fill-rule="evenodd" clip-rule="evenodd" d="M24.861 -2.37119C38.1119 -1.26658 49.3162 9.54732 49.8027 21.7024C50.2892 33.8575 39.8789 42.8703 26.6288 41.7665C13.378 40.6619 2.17447 29.8487 1.68797 17.6929C1.20073 5.53776 11.6109 -3.47506 24.861 -2.37119Z" fill="#DB242C"/>
<path fill-rule="evenodd" clip-rule="evenodd" d="M24.9248 -2.3017C38.0759 -1.1727 49.2269 9.56948 49.7482 21.6092C50.2687 33.6505 39.9672 42.5494 26.8169 41.4204C13.6651 40.2914 2.51406 29.55 1.99355 17.5095C1.4723 5.46824 11.7738 -3.43071 24.9248 -2.3017Z" fill="#DC242C"/>
<path fill-rule="evenodd" clip-rule="evenodd" d="M24.9883 -2.23286C38.0403 -1.07797 49.1381 9.59101 49.6934 21.5177C50.2479 33.4443 40.0558 42.2294 27.0038 41.0752C13.9519 39.9204 2.85482 29.2514 2.29882 17.3247C1.7443 5.39809 11.9364 -3.387 24.9883 -2.23286Z" fill="#DE202B"/>
<path fill-rule="evenodd" clip-rule="evenodd" d="M25.0519 -2.16407C38.004 -0.984055 49.0493 9.61247 49.6386 21.4253C50.2271 33.2373 40.1437 41.9085 27.1916 40.7292C14.2395 39.5492 3.19487 28.9527 2.60486 17.1399C2.01633 5.32787 12.0997 -3.3441 25.0519 -2.16407Z" fill="#DF1F2B"/>
<path fill-rule="evenodd" clip-rule="evenodd" d="M25.1154 -2.09463C37.9685 -0.889473 48.9598 9.6346 49.5838 21.3328C50.2064 33.0302 40.2316 41.5883 27.3786 40.3839C14.5263 39.1787 3.53418 28.6539 2.9109 16.9565C2.28762 5.25832 12.2623 -3.29979 25.1154 -2.09463Z" fill="#E1232B"/>
<path fill-rule="evenodd" clip-rule="evenodd" d="M25.1789 -2.02585C37.9329 -0.795551 48.871 9.65606 49.529 21.2396C50.1863 32.824 40.3203 41.2682 27.5663 40.0379C14.8131 38.8069 3.8742 28.356 3.21691 16.7717C2.55962 5.1881 12.4249 -3.25615 25.1789 -2.02585Z" fill="#E3232B"/>
<path fill-rule="evenodd" clip-rule="evenodd" d="M25.2421 -1.95714C37.897 -0.700966 48.7819 9.67745 49.4732 21.1472C50.1652 32.6169 40.4086 40.9473 27.7537 39.6918C15.0995 38.4364 4.21466 28.0565 3.52262 16.5875C2.83132 5.11707 12.5879 -3.21331 25.2421 -1.95714Z" fill="#E4232B"/>
<path fill-rule="evenodd" clip-rule="evenodd" d="M25.3056 -1.88757C37.8607 -0.606995 48.6924 9.6997 49.4184 21.0556C50.1452 32.4107 40.4965 40.6279 27.9415 39.3466C15.3871 38.066 4.55471 27.7586 3.82866 16.4035C3.1026 5.04764 12.7513 -3.16888 25.3056 -1.88757Z" fill="#E4232B"/>
<path fill-rule="evenodd" clip-rule="evenodd" d="M25.3691 -1.81961C37.8251 -0.513161 48.6036 9.72108 49.3636 20.9623C50.1237 32.2036 40.5844 40.3062 28.1299 39.0005C15.6739 37.6941 4.89473 27.4598 4.13467 16.2186C3.37461 4.97734 12.9138 -3.12606 25.3691 -1.81961Z" fill="#E6222A"/>
<path fill-rule="evenodd" clip-rule="evenodd" d="M25.433 -1.75008C37.7885 -0.418491 48.5151 9.74329 49.3092 20.8699C50.1025 31.9973 40.6727 39.9869 28.3165 38.6553C15.9603 37.323 5.23512 27.1619 4.4403 16.0345C3.64623 4.90787 13.0768 -3.08167 25.433 -1.75008Z" fill="#E61E2A"/>
<path fill-rule="evenodd" clip-rule="evenodd" d="M25.372 -2.92645C37.7304 -1.54902 48.4719 8.91294 49.2822 20.362C50.0933 31.8117 40.6746 40.026 28.3161 38.6486C15.9577 37.2712 5.21628 26.8092 4.40594 15.3602C3.59486 3.91116 13.0128 -4.30388 25.372 -2.92645Z" fill="#E61E2A"/>
<path fill-rule="evenodd" clip-rule="evenodd" d="M25.5436 -2.74233C37.7031 -1.37378 48.2827 8.92996 49.0937 20.1956C49.9063 31.4605 40.6502 39.5329 28.4914 38.1651C16.3326 36.7965 5.75312 26.4928 4.94204 15.2271C4.13022 3.9622 13.3848 -4.11089 25.5436 -2.74233Z" fill="#E81D2A"/>
<path fill-rule="evenodd" clip-rule="evenodd" d="M25.7159 -2.55819C37.6758 -1.19925 48.0934 8.94701 48.9052 20.0286C49.7185 31.1101 40.6273 39.0398 28.6674 37.6816C16.7082 36.3219 6.29064 26.1756 5.47734 15.0948C4.66478 4.01251 13.7567 -3.91714 25.7159 -2.55819Z" fill="#E8222A"/>
<path fill-rule="evenodd" clip-rule="evenodd" d="M25.8882 -2.37489C37.6484 -1.02555 47.9041 8.96322 48.7174 19.8607C49.5315 30.7589 40.6037 38.5465 28.8426 37.1972C17.0831 35.8471 6.82742 25.8584 6.01339 14.9609C5.20009 4.06347 14.1279 -3.72496 25.8882 -2.37489Z" fill="#E81D2A"/>
<path fill-rule="evenodd" clip-rule="evenodd" d="M26.0604 -2.19075C37.6211 -0.851025 47.7141 8.981 48.5289 19.6951C49.3436 30.4092 40.5792 38.0542 29.0186 36.7144C17.4579 35.374 7.36491 25.542 6.55013 14.8279C5.73535 4.11452 14.4997 -3.53121 26.0604 -2.19075Z" fill="#E8222A"/>
<path fill-rule="evenodd" clip-rule="evenodd" d="M26.2327 -2.0074C37.5937 -0.676548 47.5248 8.998 48.3411 19.5272C49.1566 30.058 40.5549 37.5603 29.1938 36.2294C17.8335 34.8986 7.9017 25.2248 7.08544 14.6948C6.27067 4.16479 14.8717 -3.33825 26.2327 -2.0074Z" fill="#E8222A"/>
<path fill-rule="evenodd" clip-rule="evenodd" d="M26.405 -1.82327C37.5671 -0.501289 47.3363 9.0143 48.1526 19.3609C48.9696 29.7068 40.532 37.0679 29.3698 35.7459C18.2084 34.4239 8.43852 24.9076 7.62226 14.5617C6.80527 4.2151 15.2436 -3.14524 26.405 -1.82327Z" fill="#EB212A"/>
<path fill-rule="evenodd" clip-rule="evenodd" d="M26.5772 -1.63915C37.539 -0.326786 47.147 9.03205 47.9647 19.1938C48.7817 29.3564 40.5083 36.5747 29.5458 35.2624C18.5833 33.95 8.97526 24.5912 8.15827 14.4287C7.34053 4.26613 15.6147 -2.95152 26.5772 -1.63915Z" fill="#EB212A"/>
<path fill-rule="evenodd" clip-rule="evenodd" d="M26.7491 -1.45584C37.512 -0.152344 46.9581 9.04901 47.7766 19.0267C48.5943 29.0058 40.4843 36.0823 29.7206 34.7788C18.9585 33.4753 9.51241 24.2739 8.69468 14.2955C7.8762 4.31709 15.9863 -2.75933 26.7491 -1.45584Z" fill="#EB212A"/>
<path fill-rule="evenodd" clip-rule="evenodd" d="M26.9214 -1.27172C37.4847 0.0221672 46.7681 9.06604 47.588 18.8604C48.4072 28.6554 40.4598 35.5884 29.8966 34.2953C19.3333 33.0014 10.0499 23.9575 9.22996 14.1632C8.41075 4.36814 16.3581 -2.56486 26.9214 -1.27172Z" fill="#EB212A"/>
<path fill-rule="evenodd" clip-rule="evenodd" d="M27.0937 -1.08759C37.4573 0.196682 46.5788 9.08307 47.3995 18.6933C48.2195 28.3042 40.4362 35.096 30.0726 33.811C19.7082 32.5267 10.5867 23.6404 9.76678 14.0301C8.94609 4.41918 16.7293 -2.3726 27.0937 -1.08759Z" fill="#EB212A"/>
<path fill-rule="evenodd" clip-rule="evenodd" d="M27.2659 -0.90424C37.4307 0.370422 46.3903 9.10006 47.211 18.5262C48.0324 27.953 40.4125 34.6021 30.2478 33.3267C20.083 32.0521 11.1235 23.3232 10.302 13.8963C9.48134 4.46944 17.1012 -2.17964 27.2659 -0.90424Z" fill="#EB212A"/>
<path fill-rule="evenodd" clip-rule="evenodd" d="M27.4382 -0.720192C37.4026 0.545593 46.201 9.11701 47.0232 18.3598C47.8446 27.6033 40.3881 34.1096 30.423 32.8431C20.4586 31.5773 11.6602 23.0067 10.8381 13.7639C10.0166 4.5204 17.4731 -1.98672 27.4382 -0.720192Z" fill="#ED2129"/>
<path fill-rule="evenodd" clip-rule="evenodd" d="M27.6105 -0.536076C37.3752 0.720098 46.0117 9.13403 46.8346 18.1927C47.6583 27.2521 40.3645 33.6165 30.599 32.3596C20.8335 31.1034 12.197 22.6895 11.3749 13.6301C10.5519 4.57143 17.845 -1.79299 27.6105 -0.536076Z" fill="#ED2129"/>
<path fill-rule="evenodd" clip-rule="evenodd" d="M27.7821 -0.352692C37.3487 0.894613 45.8225 9.15106 46.6462 18.0256C47.4705 26.9016 40.3401 33.1234 30.7743 31.8761C21.2084 30.6288 12.7346 22.3731 11.9102 13.4978C11.0866 4.62173 18.2162 -1.59999 27.7821 -0.352692Z" fill="#ED2129"/>
<path fill-rule="evenodd" clip-rule="evenodd" d="M27.9544 -0.168606C37.3213 1.06909 45.6332 9.16805 46.4576 17.8592C47.2828 26.5512 40.3165 32.6309 30.9503 31.3925C21.5833 30.1548 13.2714 22.0559 12.447 13.3647C11.6219 4.67274 18.5881 -1.4063 27.9544 -0.168606Z" fill="#ED2129"/>
<path fill-rule="evenodd" clip-rule="evenodd" d="M28.1266 0.0155277C37.294 1.24361 45.444 9.18509 46.2698 17.6922C47.0949 26.2008 40.2928 32.1378 31.1255 30.909C21.9589 29.6802 13.8089 21.7387 12.9823 13.2316C12.1572 4.72378 18.96 -1.21329 28.1266 0.0155277Z" fill="#EE2529"/>
<path fill-rule="evenodd" clip-rule="evenodd" d="M28.2989 0.198872C37.2667 1.41734 45.2547 9.20134 46.0813 17.5251C46.9087 25.8495 40.2685 31.6439 31.3015 30.424C22.3338 29.2055 14.3457 21.4215 13.5191 13.0978C12.6918 4.77404 19.332 -1.02033 28.2989 0.198872Z" fill="#EE2529"/>
<path fill-rule="evenodd" clip-rule="evenodd" d="M28.4712 0.383013C37.2393 1.59335 45.0654 9.21912 45.8935 17.3588C46.7208 25.4991 40.2448 31.1515 31.4774 29.9412C22.7093 28.7316 14.8825 21.1058 14.0551 12.9655C13.227 4.82584 19.7031 -0.826582 28.4712 0.383013Z" fill="#EE2529"/>
<path fill-rule="evenodd" clip-rule="evenodd" d="M28.6434 0.566288C37.2119 1.76701 44.8761 9.23604 45.7049 17.1916C46.5338 25.1478 40.2211 30.6583 31.6526 29.4576C23.0842 28.2569 15.4192 20.7886 14.5904 12.8323C13.7623 4.87603 20.075 -0.634436 28.6434 0.566288Z" fill="#EE252A"/>
<path fill-rule="evenodd" clip-rule="evenodd" d="M28.8157 0.750443C37.1853 1.94156 44.6868 9.25236 45.5171 17.0245C46.346 24.7974 40.1967 30.1645 31.8279 28.9734C23.459 27.7822 15.956 20.4714 15.1272 12.6993C14.2976 4.92636 20.4469 -0.441408 28.8157 0.750443Z" fill="#EE292A"/>
<path fill-rule="evenodd" clip-rule="evenodd" d="M28.988 0.934549C37.158 2.11679 44.4976 9.27011 45.3286 16.8582C46.1589 24.447 40.1731 29.6721 32.0031 28.4906C23.8339 27.3083 16.4935 20.1543 15.6625 12.5662C14.8322 4.97812 20.8188 -0.24769 28.988 0.934549Z" fill="#EE292A"/>
<path fill-rule="evenodd" clip-rule="evenodd" d="M28.8651 0.569313C36.7667 1.78187 44.0797 9.07419 45.1429 16.802C46.2061 24.5298 40.6291 29.8429 32.7268 28.6296C24.8245 27.417 17.5122 20.1247 16.449 12.3976C15.3851 4.66981 20.9628 -0.643978 28.8651 0.569313Z" fill="#EE292A"/>
<path fill-rule="evenodd" clip-rule="evenodd" d="M28.9893 0.754866C36.6653 1.94376 43.7817 9.01649 44.8316 16.501C45.8814 23.9849 40.4767 29.1197 32.8007 27.9308C25.1246 26.7427 18.0083 19.6692 16.9584 12.1854C15.9092 4.70158 21.3132 -0.433289 28.9893 0.754866Z" fill="#EE2D2B"/>
<path fill-rule="evenodd" clip-rule="evenodd" d="M29.1131 0.941219C36.5629 2.10497 43.4841 8.95959 44.5192 16.2002C45.5558 23.4407 40.3248 28.3967 32.8742 27.2329C25.4244 26.0692 18.504 19.2145 17.4674 11.974C16.4316 4.73414 21.6633 -0.222536 29.1131 0.941219Z" fill="#EE2D2B"/>
<path fill-rule="evenodd" clip-rule="evenodd" d="M29.2369 1.12753C36.4605 2.26615 43.1857 8.90266 44.2083 15.9C45.2301 22.8966 40.1728 27.6743 32.9485 26.5357C25.725 25.3963 19.0005 18.7606 17.9772 11.7632C16.9554 4.76593 22.0134 -0.0118237 29.2369 1.12753Z" fill="#EE312D"/>
<path fill-rule="evenodd" clip-rule="evenodd" d="M29.3607 1.3131C36.358 2.42806 42.8881 8.84497 43.8966 15.5983C44.9051 22.3524 40.0201 26.9512 33.0235 25.837C26.0255 24.7228 19.4954 18.3051 18.4869 11.5518C17.4792 4.79845 22.3634 0.198141 29.3607 1.3131Z" fill="#EE312E"/>
<path fill-rule="evenodd" clip-rule="evenodd" d="M29.4852 1.49943C36.2563 2.58925 42.5904 8.78732 43.5849 15.2981C44.58 21.8075 39.8688 26.2289 33.097 25.139C26.3252 24.0485 19.9911 17.8504 18.9967 11.3403C18.0022 4.83026 22.7142 0.409615 29.4852 1.49943Z" fill="#EF3830"/>
<path fill-rule="evenodd" clip-rule="evenodd" d="M29.6087 1.68498C36.1543 2.7504 42.2924 8.73036 43.2736 14.9972C44.2547 21.2633 39.7165 25.5065 33.1709 24.4403C26.6254 23.3756 20.4872 17.3957 19.5068 11.1288C18.5257 4.86202 23.0639 0.619562 29.6087 1.68498Z" fill="#EF3B32"/>
<path fill-rule="evenodd" clip-rule="evenodd" d="M29.7332 1.87132C36.0518 2.9116 41.9948 8.67345 42.9619 14.6963C43.929 20.7199 39.5638 24.7841 33.2444 23.7431C26.9259 22.7028 20.9829 16.941 20.0165 10.9181C19.0494 4.89457 23.4139 0.830301 29.7332 1.87132Z" fill="#EF3E33"/>
<path fill-rule="evenodd" clip-rule="evenodd" d="M29.857 2.05691C35.9494 3.07353 41.6972 8.61579 42.6502 14.3954C43.6033 20.175 39.4118 24.061 33.3187 23.0444C27.2264 22.0293 21.4793 16.4855 20.5256 10.706C19.5725 4.92637 23.7647 1.04103 29.857 2.05691Z" fill="#EF4436"/>
<path fill-rule="evenodd" clip-rule="evenodd" d="M29.9808 2.24319C35.8476 3.23468 41.3995 8.55882 42.3385 14.0959C43.2782 19.6315 39.2598 23.3387 33.3929 22.3472C27.5261 21.3549 21.975 16.0315 21.0353 10.4952C20.0955 4.95887 24.1147 1.25171 29.9808 2.24319Z" fill="#F0493A"/>
<path fill-rule="evenodd" clip-rule="evenodd" d="M30.1047 2.42953C35.746 3.39588 41.1012 8.50191 42.0269 13.7943C42.9525 19.0873 39.1071 22.6156 33.4673 21.6485C27.826 20.6821 22.4708 15.5761 21.5451 10.2838C20.6187 4.99068 24.4648 1.46245 30.1047 2.42953Z" fill="#F04E3D"/>
<path fill-rule="evenodd" clip-rule="evenodd" d="M30.2288 2.61507C35.6432 3.55776 40.8032 8.4442 41.7155 13.494C42.6272 18.5431 38.9555 21.8932 33.5412 20.9505C28.1261 20.0086 22.9668 15.1221 22.0552 10.0723C21.1421 5.02243 24.8145 1.67313 30.2288 2.61507Z" fill="#F05140"/>
<path fill-rule="evenodd" clip-rule="evenodd" d="M30.3533 2.80064C35.5414 3.71892 40.5047 8.38651 41.4038 13.1924C42.3028 17.9982 38.8034 21.1701 33.6146 20.2525C28.4265 19.335 23.4624 14.6666 22.5641 9.8608C21.6658 5.05495 25.1644 1.88309 30.3533 2.80064Z" fill="#F05645"/>
<path fill-rule="evenodd" clip-rule="evenodd" d="M30.4771 2.987C35.4389 3.88015 40.2071 8.32963 41.0921 12.8922C41.9764 17.4548 38.6507 20.4478 33.6889 19.5546C28.7263 18.6622 23.9589 14.212 23.0739 9.64939C22.1889 5.08753 25.5145 2.09385 30.4771 2.987Z" fill="#F15B4A"/>
<path fill-rule="evenodd" clip-rule="evenodd" d="M30.6009 3.17334C35.3373 4.04135 39.9095 8.27272 40.7805 12.5921C41.6514 16.9107 38.4988 19.7247 33.7624 18.8567C29.0268 17.9879 24.4546 13.7573 23.5836 9.43869C22.7127 5.11934 25.8646 2.30459 30.6009 3.17334Z" fill="#F1614E"/>
<path fill-rule="evenodd" clip-rule="evenodd" d="M30.7248 3.35894C35.2349 4.20255 39.6119 8.21507 40.4688 12.2904C41.3257 16.3658 38.3468 19.0016 33.8367 18.158C29.3274 17.3144 24.9496 13.3026 24.0927 9.22725C23.2365 5.15115 26.2147 2.51459 30.7248 3.35894Z" fill="#F26653"/>
<path fill-rule="evenodd" clip-rule="evenodd" d="M30.8489 3.5452C35.1328 4.36368 39.3139 8.15808 40.1575 11.9902C41.0011 15.8223 38.1945 18.2792 33.9114 17.4607C29.6268 16.6415 25.4457 12.8478 24.6028 9.01574C23.7592 5.18363 26.5651 2.72599 30.8489 3.5452Z" fill="#F26A57"/>
<path fill-rule="evenodd" clip-rule="evenodd" d="M30.9727 3.7308C35.0303 4.52561 39.0162 8.10042 39.8458 11.6893C40.6753 15.2781 38.0425 17.5569 33.9849 16.7628C29.9272 15.968 25.9413 12.3932 25.1125 8.80429C24.2822 5.21543 26.9151 2.93672 30.9727 3.7308Z" fill="#F3715D"/>
<path fill-rule="evenodd" clip-rule="evenodd" d="M31.0965 3.91713C34.9279 4.68681 38.7186 8.04277 39.5341 11.3884C40.3496 14.734 37.8905 16.8345 34.0584 16.0641C30.2278 15.2944 26.4371 11.9385 25.6215 8.59285C24.806 5.24724 27.2651 3.14672 31.0965 3.91713Z" fill="#F37762"/>
<path fill-rule="evenodd" clip-rule="evenodd" d="M31.221 4.10344C34.8261 4.84871 38.4202 7.98656 39.2224 11.0882C40.0238 14.1898 37.7377 16.1121 34.1326 15.3669C30.5275 14.6216 26.9334 11.4837 26.132 8.38212C25.3298 5.27976 27.6159 3.35816 31.221 4.10344Z" fill="#F47A66"/>
<path fill-rule="evenodd" clip-rule="evenodd" d="M31.3449 4.289C34.7238 5.00914 38.1226 7.92887 38.9108 10.7872C39.6989 13.6456 37.5858 15.389 34.2069 14.6682C30.8281 13.948 27.4292 11.029 26.6411 8.16991C25.8522 5.31154 27.966 3.56812 31.3449 4.289Z" fill="#F4806B"/>
<path fill-rule="evenodd" clip-rule="evenodd" d="M31.4689 4.47461C34.6216 5.17035 37.8252 7.87124 38.5993 10.4864C39.3735 13.1015 37.4334 14.666 34.2815 13.9702C31.1281 13.2738 27.9252 10.5736 27.1511 7.95848C26.3762 5.34336 28.3156 3.77887 31.4689 4.47461Z" fill="#F5846F"/>
<path fill-rule="evenodd" clip-rule="evenodd" d="M33.115 5.6672C35.5815 6.20546 38.0265 8.29563 38.5581 10.32C39.0897 12.3444 37.5119 13.5569 35.0454 13.0187C32.5782 12.4812 30.1338 10.391 29.6022 8.36587C29.0706 6.3415 30.6477 5.12895 33.115 5.6672Z" fill="#F5846F"/>
<path fill-rule="evenodd" clip-rule="evenodd" d="M33.1501 5.73377C35.5649 6.26316 37.9604 8.31045 38.4832 10.2919C39.0066 12.2742 37.4643 13.4586 35.051 12.9292C32.637 12.4006 30.2408 10.3526 29.7173 8.37108C29.1938 6.38959 30.7361 5.20513 33.1501 5.73377Z" fill="#F58873"/>
<path fill-rule="evenodd" clip-rule="evenodd" d="M33.1862 5.80099C35.547 6.32076 37.8938 8.32591 38.4084 10.2653C38.9237 12.2039 37.4176 13.361 35.0561 12.8405C32.6946 12.3207 30.3478 10.3155 29.8332 8.37693C29.3179 6.43832 30.824 5.28048 33.1862 5.80099Z" fill="#F58C77"/>
<path fill-rule="evenodd" clip-rule="evenodd" d="M33.2208 5.86754C35.5305 6.37844 37.827 8.34145 38.3335 10.2372C38.8399 12.1336 37.3701 13.2626 35.061 12.7517C32.752 12.2408 30.4556 10.2778 29.9491 8.38211C29.4419 6.48565 30.9118 5.35664 33.2208 5.86754Z" fill="#F28D7A"/>
<path fill-rule="evenodd" clip-rule="evenodd" d="M33.2568 5.93487C35.5134 6.4369 37.7603 8.35776 38.2586 10.2106C38.757 12.0634 37.3226 13.1651 35.0661 12.6631C32.8095 12.1618 30.5626 10.2402 30.0635 8.38734C29.5659 6.53524 30.9996 5.43285 33.2568 5.93487Z" fill="#F3917E"/>
<path fill-rule="evenodd" clip-rule="evenodd" d="M33.292 6.0014C35.496 6.49456 37.6934 8.37328 38.1836 10.1825C38.6738 11.9932 37.2757 13.0675 35.0709 12.5743C32.8669 12.0812 30.6702 10.2025 30.18 8.3925C29.6898 6.58254 31.088 5.50751 33.292 6.0014Z" fill="#F39481"/>
<path fill-rule="evenodd" clip-rule="evenodd" d="M33.3272 6.06793C35.4787 6.55147 37.6273 8.38805 38.1086 10.1551C38.5907 11.9222 37.228 12.9691 35.0765 12.4848C32.9257 12.0006 30.7771 10.1647 30.2958 8.39766C29.813 6.63058 31.1756 5.58365 33.3272 6.06793Z" fill="#F39885"/>
<path fill-rule="evenodd" clip-rule="evenodd" d="M33.3627 6.13446C35.4617 6.60987 37.56 8.40356 38.034 10.1277C38.5071 11.8519 37.1815 12.8708 35.0817 12.3961C32.9826 11.9207 30.8843 10.127 30.4104 8.40356C29.9372 6.67863 31.2636 5.65979 33.3627 6.13446Z" fill="#F39C8B"/>
<path fill-rule="evenodd" clip-rule="evenodd" d="M33.3978 6.20177C35.4451 6.66831 37.4939 8.41986 37.959 10.1004C38.4248 11.7825 37.1338 12.7732 35.0873 12.3082C33.0407 11.8416 30.992 10.0901 30.5262 8.40877C30.0611 6.72746 31.3513 5.73598 33.3978 6.20177Z" fill="#F4A08E"/>
<path fill-rule="evenodd" clip-rule="evenodd" d="M33.4336 6.26833C35.4277 6.72525 37.4269 8.43465 37.8838 10.0731C38.3415 11.7115 37.0868 12.6756 35.0927 12.2187C33.0979 11.7618 31.0987 10.0524 30.6425 8.41395C30.1849 6.77553 31.4388 5.8114 33.4336 6.26833Z" fill="#F8A493"/>
<path fill-rule="evenodd" clip-rule="evenodd" d="M33.4691 6.33484C35.4107 6.7829 37.3611 8.44942 37.8092 10.0457C38.258 11.6412 37.0395 12.5765 35.0979 12.1292C33.1556 11.6812 31.2059 10.0146 30.7572 8.4191C30.3091 6.82356 31.5268 5.88679 33.4691 6.33484Z" fill="#F5A797"/>
<path fill-rule="evenodd" clip-rule="evenodd" d="M33.5043 6.40211C35.3941 6.84055 37.2942 8.46567 37.7341 10.0183C38.1741 11.571 36.9926 12.4797 35.1035 12.0405C33.2137 11.6013 31.3135 9.97766 30.8736 8.425C30.4329 6.8716 31.6152 5.96367 33.5043 6.40211Z" fill="#F5A99A"/>
<path fill-rule="evenodd" clip-rule="evenodd" d="M33.54 6.46865C35.3766 6.89821 37.2272 8.48045 37.659 9.99096C38.0908 11.5 36.9448 12.3813 35.1082 11.951C33.2716 11.5214 31.4203 9.93995 30.9892 8.42943C30.5567 6.91966 31.7034 6.03908 33.54 6.46865Z" fill="#F5AD9F"/>
<path fill-rule="evenodd" clip-rule="evenodd" d="M33.5752 6.53519C35.36 6.95588 37.1604 8.49597 37.5848 9.96287C38.0077 11.4298 36.8979 12.283 35.1138 11.8623C33.329 11.4416 31.5279 9.90224 31.1043 8.43461C30.6806 6.96771 31.7904 6.11449 33.5752 6.53519Z" fill="#F5B1A3"/>
<path fill-rule="evenodd" clip-rule="evenodd" d="M33.6106 6.60248C35.3422 7.01356 37.0938 8.51151 37.5093 9.93626C37.9248 11.3595 36.8505 12.1861 35.1189 11.7736C33.3866 11.3617 31.6351 9.86454 31.2203 8.44053C30.8048 7.01578 31.8783 6.19065 33.6106 6.60248Z" fill="#F6B5A7"/>
<path fill-rule="evenodd" clip-rule="evenodd" d="M33.6458 6.66906C35.3257 7.07201 37.0277 8.52708 37.4343 9.9082C37.8417 11.2901 36.8036 12.0878 35.1238 11.6849C33.444 11.2827 31.742 9.82687 31.3353 8.44649C30.9287 7.06462 31.9667 6.26685 33.6458 6.66906Z" fill="#F6B7A9"/>
<path fill-rule="evenodd" clip-rule="evenodd" d="M33.6813 6.73555C35.3087 7.12963 36.9612 8.54255 37.3597 9.88079C37.7589 11.219 36.7563 11.9894 35.1298 11.5954C33.5017 11.202 31.8499 9.78911 31.4507 8.45086C31.0529 7.11262 32.054 6.34221 33.6813 6.73555Z" fill="#F6BBB0"/>
<path fill-rule="evenodd" clip-rule="evenodd" d="M33.7171 6.8021C35.2912 7.18657 36.8949 8.55734 37.2845 9.85271C37.6756 11.1488 36.7093 11.8911 35.1345 11.5067C33.5596 11.1222 31.9567 9.75141 31.5663 8.45605C31.1759 7.15995 32.1423 6.41763 33.7171 6.8021Z" fill="#F7C0B3"/>
<path fill-rule="evenodd" clip-rule="evenodd" d="M33.7522 6.86938C35.2746 7.24498 36.828 8.57361 37.2102 9.82609C37.5917 11.0786 36.6624 11.7943 35.14 11.4179C33.6177 11.0423 32.0643 9.71445 31.6828 8.46197C31.3005 7.20875 32.2306 6.49379 33.7522 6.86938Z" fill="#F7C2B6"/>
<path fill-rule="evenodd" clip-rule="evenodd" d="M33.7877 6.93593C35.2576 7.30265 36.7607 8.5884 37.1348 9.79873C37.5082 11.0083 36.615 11.6952 35.1452 11.3292C33.6753 10.9625 32.1715 9.67674 31.7981 8.46641C31.4247 7.25681 32.3179 6.5692 33.7877 6.93593Z" fill="#F7C6BB"/>
<path fill-rule="evenodd" clip-rule="evenodd" d="M33.8229 7.00323C35.2403 7.36109 36.6946 8.60395 37.0598 9.7714C37.4258 10.9381 36.5674 11.5984 35.1501 11.2405C33.7327 10.8827 32.2784 9.6398 31.9132 8.47235C31.5472 7.30563 32.4056 6.64538 33.8229 7.00323Z" fill="#F7C8BE"/>
<path fill-rule="evenodd" clip-rule="evenodd" d="M33.8583 7.06981C35.2232 7.41805 36.6273 8.61951 36.9851 9.74334C37.3422 10.8672 36.52 11.5001 35.1559 11.1511C33.7903 10.8028 32.3863 9.60139 32.0292 8.47756C31.6713 7.35373 32.4935 6.72083 33.8583 7.06981Z" fill="#F8CBC1"/>
<path fill-rule="evenodd" clip-rule="evenodd" d="M33.9819 7.06236C35.4399 7.43278 36.9401 8.70744 37.3223 9.90151C37.7031 11.0956 36.8247 11.7669 35.3667 11.3965C33.9087 11.0261 32.4085 9.75068 32.0263 8.55735C31.6455 7.36328 32.5239 6.69194 33.9819 7.06236Z" fill="#F8CBC1"/>
<path fill-rule="evenodd" clip-rule="evenodd" d="M34.0154 7.12823C35.4209 7.4883 36.87 8.72008 37.2419 9.87126C37.6131 11.0217 36.7695 11.6664 35.3647 11.3071C33.9592 10.947 32.5093 9.71526 32.1374 8.56481C31.7662 7.41363 32.6091 6.76816 34.0154 7.12823Z" fill="#FCD0B9"/>
<path fill-rule="evenodd" clip-rule="evenodd" d="M34.0492 7.19394C35.4015 7.54366 36.7996 8.73256 37.1612 9.84012C37.5227 10.9477 36.7146 11.5658 35.3616 11.2168C34.0093 10.8671 32.6112 9.6782 32.2489 8.57064C31.8881 7.46307 32.6962 6.84423 34.0492 7.19394Z" fill="#FDD2BC"/>
<path fill-rule="evenodd" clip-rule="evenodd" d="M34.0821 7.26126C35.3819 7.60062 36.7297 8.74516 37.0809 9.80984C37.4321 10.8753 36.6595 11.4667 35.3589 11.1274C34.0584 10.788 32.712 9.64348 32.3601 8.57806C32.0089 7.51338 32.7823 6.92189 34.0821 7.26126Z" fill="#FDD4BE"/>
<path fill-rule="evenodd" clip-rule="evenodd" d="M34.1159 7.32705C35.3633 7.65681 36.6594 8.75772 37.0009 9.77951C37.3425 10.802 36.6039 11.3669 35.3566 11.0379C34.1093 10.7089 32.8139 9.60724 32.4723 8.58544C32.13 7.56365 32.8686 6.99877 34.1159 7.32705Z" fill="#FDD6C3"/>
<path fill-rule="evenodd" clip-rule="evenodd" d="M34.1494 7.39363C35.3442 7.71229 36.5893 8.77032 36.9205 9.74923C37.2525 10.7281 36.5486 11.2664 35.3538 10.9477C34.1598 10.6291 32.9147 9.57105 32.5827 8.59213C32.2515 7.61322 32.9553 7.07422 34.1494 7.39363Z" fill="#FDDAC6"/>
<path fill-rule="evenodd" clip-rule="evenodd" d="M34.1832 7.45944C35.324 7.76849 36.5181 8.7829 36.8405 9.71893C37.1614 10.655 36.493 11.1666 35.3514 10.8583C34.2098 10.55 33.0158 9.53483 32.6941 8.5988C32.3725 7.6635 33.0416 7.15113 34.1832 7.45944Z" fill="#FDDBC8"/>
<path fill-rule="evenodd" clip-rule="evenodd" d="M34.2168 7.5267C35.3058 7.82467 36.4482 8.79545 36.7602 9.68934C37.0714 10.5817 36.4378 11.0668 35.3487 10.7688C34.2597 10.4708 33.1173 9.49932 32.8061 8.60617C32.4941 7.71376 33.1277 7.228 34.2168 7.5267Z" fill="#FDDDCB"/>
<path fill-rule="evenodd" clip-rule="evenodd" d="M34.2503 7.59248C35.2861 7.88083 36.3781 8.80799 36.6798 9.65826C36.9815 10.5078 36.3826 10.9669 35.3467 10.6793C34.3101 10.391 33.2181 9.46307 32.9172 8.61354C32.6148 7.76328 33.2137 7.30487 34.2503 7.59248Z" fill="#FEE0CF"/>
<path fill-rule="evenodd" clip-rule="evenodd" d="M34.2841 7.65908C35.2674 7.93634 36.3077 8.82062 36.599 9.628C36.891 10.4346 36.3269 10.8672 35.3436 10.5892C34.3609 10.3119 33.3199 9.4269 33.0279 8.62025C32.7366 7.81361 33.3 7.38108 34.2841 7.65908Z" fill="#FEE1D0"/>
<path fill-rule="evenodd" clip-rule="evenodd" d="M34.3176 7.72483C35.2485 7.99174 36.2377 8.83313 36.5187 9.59689C36.8011 10.3614 36.2717 10.7666 35.3409 10.4989C34.41 10.232 33.4215 9.39135 33.1391 8.62685C32.8581 7.86309 33.3868 7.45718 34.3176 7.72483Z" fill="#FEE5D6"/>
<path fill-rule="evenodd" clip-rule="evenodd" d="M34.3514 7.79138C35.229 8.04868 36.1672 8.84571 36.4386 9.56659C36.7107 10.2889 36.216 10.6668 35.3384 10.4102C34.4608 10.1529 33.5225 9.35513 33.2505 8.63425C32.9791 7.91412 33.473 7.53482 34.3514 7.79138Z" fill="#FEE7D9"/>
<path fill-rule="evenodd" clip-rule="evenodd" d="M34.3849 7.85792C35.21 8.10486 36.0965 8.85901 36.359 9.537C36.6207 10.215 36.1616 10.5669 35.3357 10.3207C34.5113 10.0738 33.6241 9.31963 33.3624 8.64164C33.0999 7.96364 33.559 7.61171 34.3849 7.85792Z" fill="#FEE9DC"/>
<path fill-rule="evenodd" clip-rule="evenodd" d="M34.4188 7.92368C35.1907 8.16028 36.0269 8.8708 36.2783 9.50591C36.5304 10.1418 36.106 10.4663 35.3341 10.2305C34.5607 9.99389 33.726 9.28337 33.4739 8.64826C33.2218 8.01314 33.6461 7.68709 34.4188 7.92368Z" fill="#FEEBE0"/>
<path fill-rule="evenodd" clip-rule="evenodd" d="M34.4516 7.9903C35.171 8.21655 35.9554 8.88345 36.198 9.47642C36.4405 10.0686 36.0501 10.3674 35.3307 10.1411C34.6113 9.91486 33.8268 9.24796 33.5843 8.65573C33.3425 8.0635 33.7322 7.7648 34.4516 7.9903Z" fill="#FEEDE3"/>
<path fill-rule="evenodd" clip-rule="evenodd" d="M34.4855 8.05677C35.1524 8.27267 35.8858 8.89595 36.118 9.44603C36.3501 9.99538 35.9952 10.2675 35.3283 10.0516C34.6614 9.83568 33.928 9.2124 33.6958 8.66231C33.4637 8.11297 33.8193 7.84162 34.4855 8.05677Z" fill="#FEEFE6"/>
<path fill-rule="evenodd" clip-rule="evenodd" d="M34.5189 8.12338C35.1333 8.32892 35.8158 8.90932 36.0368 9.41578C36.2594 9.92225 35.94 10.167 35.3256 9.96217C34.7112 9.75737 34.0295 9.17623 33.8069 8.67051C33.5851 8.1633 33.9053 7.91784 34.5189 8.12338Z" fill="#FFF1E9"/>
<path fill-rule="evenodd" clip-rule="evenodd" d="M34.5524 8.1891C35.1136 8.38429 35.745 8.92181 35.9572 9.38465C36.1694 9.84823 35.8848 10.0671 35.3236 9.87189C34.7617 9.67744 34.131 9.13992 33.9181 8.67634C33.7059 8.2135 33.9913 7.99465 34.5524 8.1891Z" fill="#FFF4EC"/>
<path fill-rule="evenodd" clip-rule="evenodd" d="M34.5859 8.25574C35.0946 8.44132 35.6743 8.93448 35.8776 9.35443C36.0794 9.77513 35.8295 9.96736 35.3209 9.78252C34.8122 9.59768 34.2325 9.10453 34.0299 8.68383C33.8274 8.26388 34.0773 8.07164 34.5859 8.25574Z" fill="#FFF6EF"/>
<path fill-rule="evenodd" clip-rule="evenodd" d="M34.6198 8.32226C35.076 8.49675 35.6046 8.94702 35.7969 9.32409C35.9891 9.70117 35.7739 9.86752 35.3185 9.69304C34.8616 9.51855 34.3337 9.06827 34.1407 8.6912C33.9492 8.31339 34.1636 8.14777 34.6198 8.32226Z" fill="#FFF8F5"/>
<path fill-rule="evenodd" clip-rule="evenodd" d="M34.6536 8.38799C35.0566 8.55286 35.5342 8.95951 35.7161 9.2937C35.8987 9.6279 35.7183 9.7669 35.3161 9.6035C34.9132 9.43936 34.4348 9.03271 34.2522 8.69778C34.0703 8.36359 34.25 8.22459 34.6536 8.38799Z" fill="#FFFBF9"/>
<path fill-rule="evenodd" clip-rule="evenodd" d="M34.6871 8.45533C35.0369 8.60912 35.4635 8.97215 35.6365 9.26419C35.8088 9.5555 35.6631 9.66789 35.3126 9.5141C34.9629 9.36031 34.5363 8.99728 34.364 8.70524C34.191 8.41393 34.3367 8.30155 34.6871 8.45533Z" fill="white"/>
</g>
</svg>
