<svg width="54" height="22" viewBox="0 0 54 22" fill="none" xmlns="http://www.w3.org/2000/svg">
<g clip-path="url(#clip0_6_3451)">
<mask id="mask0_6_3451" style="mask-type:luminance" maskUnits="userSpaceOnUse" x="-1" y="-4" width="61" height="29">
<path d="M2.69053 -3.41544C-0.324168 -3.41544 -0.810867 -2.40623 -0.810867 -2.40623V23.1578C-0.810867 23.9305 2.69053 24.0843 2.69053 24.0843H56.1791C59.6799 24.0843 59.7769 23.1838 59.7769 23.1838V-2.43291C59.7769 -3.38352 56.2175 -3.41544 56.2175 -3.41544H2.69053Z" fill="white"/>
</mask>
<g mask="url(#mask0_6_3451)">
<path fill-rule="evenodd" clip-rule="evenodd" d="M0.333328 21.7551L2.38113 11.4769H6.68524C7.62216 11.4769 8.42356 11.6431 9.08944 11.9754C9.75532 12.3077 10.0198 12.8178 9.88302 13.5052L8.64313 19.7268C8.51608 20.3673 8.07433 20.8651 7.31854 21.2215C6.5634 21.5772 5.6773 21.7551 4.65959 21.7551H0.333328ZM5.15215 19.889L6.45785 13.3365C6.52887 12.9781 6.23567 12.7983 5.57696 12.7983L4.0556 20.4337C4.71431 20.4337 5.07983 20.252 5.15215 19.889Z" fill="#231F20"/>
<path fill-rule="evenodd" clip-rule="evenodd" d="M34.6189 21.755H31.8583L31.9228 21.4325C31.6303 21.7257 30.9325 21.8723 29.8281 21.8723C28.125 21.8723 27.3607 21.4371 27.534 20.5666L27.867 18.8948C27.9413 18.5214 28.2129 18.1963 28.6808 17.9187C29.1492 17.6412 30.0497 17.2946 31.3827 16.8789C32.1541 16.6391 32.5542 16.4482 32.5829 16.3049L32.8285 15.0721C32.8832 14.7998 32.7301 14.6636 32.3711 14.6636C31.9606 14.6636 31.6896 14.9953 31.5567 15.6598C31.5332 15.7791 31.5085 15.9556 31.4837 16.1902C31.4668 16.4241 31.4459 16.6013 31.4218 16.7205H28.4123L28.744 15.0565C28.9681 13.9332 30.3213 13.371 32.805 13.371C35.1278 13.371 36.1729 13.9567 35.939 15.1282L34.6189 21.755ZM31.8069 20.1998L32.2343 18.0543C31.4928 18.1689 31.0915 18.38 31.0309 18.6863L30.7286 20.1998C30.6784 20.4539 30.84 20.5803 31.214 20.5803C31.5586 20.5803 31.756 20.4539 31.8069 20.1998Z" fill="#231F20"/>
<path fill-rule="evenodd" clip-rule="evenodd" d="M17.0127 21.755H14.2521L14.3166 21.4325C14.024 21.7257 13.3262 21.8723 12.2225 21.8723C10.5187 21.8723 9.75446 21.4371 9.92777 20.5666L10.2607 18.8948C10.335 18.5214 10.6067 18.1963 11.0745 17.9187C11.543 17.6412 12.4434 17.2946 13.7764 16.8789C14.5479 16.6391 14.9486 16.4482 14.9766 16.3049L15.2222 15.0721C15.277 14.7998 15.1238 14.6636 14.7648 14.6636C14.3544 14.6636 14.0833 14.9953 13.9504 15.6598C13.927 15.7791 13.9022 15.9556 13.8774 16.1902C13.8605 16.4241 13.8396 16.6013 13.8155 16.7205H10.8061L11.1377 15.0565C11.3618 13.9332 12.7151 13.371 15.1988 13.371C17.5215 13.371 18.5666 13.9567 18.3327 15.1282L17.0127 21.755ZM14.2006 20.1998L14.628 18.0543C13.8866 18.1689 13.4852 18.38 13.4246 18.6863L13.1229 20.1998C13.0721 20.4539 13.2337 20.5803 13.6077 20.5803C13.9524 20.5803 14.1498 20.4539 14.2006 20.1998Z" fill="#231F20"/>
<path fill-rule="evenodd" clip-rule="evenodd" d="M52.3145 21.755H49.5539L49.6184 21.4325C49.3259 21.7257 48.6281 21.8723 47.5244 21.8723C45.8206 21.8723 45.0563 21.4371 45.2296 20.5666L45.5626 18.8948C45.6368 18.5214 45.9079 18.1963 46.3763 17.9187C46.8448 17.6412 47.7452 17.2946 49.0783 16.8789C49.8497 16.6391 50.2498 16.4482 50.2784 16.3049L50.5241 15.0721C50.5788 14.7998 50.4257 14.6636 50.0667 14.6636C49.6562 14.6636 49.3852 14.9953 49.2523 15.6598C49.2288 15.7791 49.204 15.9556 49.1793 16.1902C49.1623 16.4241 49.1415 16.6013 49.118 16.7205H46.1079L46.4395 15.0565C46.6637 13.9332 48.0169 13.371 50.5006 13.371C52.8234 13.371 53.8685 13.9567 53.6346 15.1282L52.3145 21.755ZM49.5025 20.1998L49.9299 18.0543C49.1884 18.1689 48.7871 18.38 48.7258 18.6863L48.4241 20.1998C48.374 20.4539 48.5356 20.5803 48.9095 20.5803C49.2542 20.5803 49.4516 20.4539 49.5025 20.1998Z" fill="#231F20"/>
<path fill-rule="evenodd" clip-rule="evenodd" d="M25.8409 21.7551H22.7187L24.0563 15.0435C24.1071 14.7901 23.954 14.6637 23.5982 14.6637C23.2353 14.6637 23.0294 14.7855 22.9812 15.0292L21.641 21.7551H18.5188L20.5666 11.4769H23.6888L23.2497 13.6798C23.664 13.4739 24.3312 13.371 25.2525 13.371C25.8663 13.371 26.3758 13.4765 26.7797 13.687C27.1837 13.8974 27.3505 14.1769 27.2814 14.5262L25.8409 21.7551Z" fill="#231F20"/>
<path fill-rule="evenodd" clip-rule="evenodd" d="M43.4399 21.7551H40.3177L41.6494 15.0728C41.6996 14.8194 41.5458 14.693 41.1862 14.693C40.8265 14.693 40.6226 14.8148 40.5744 15.0585L39.24 21.7551H36.1178L37.7766 13.4303H40.8988L40.8435 13.7085C41.3048 13.4837 41.9706 13.371 42.8405 13.371C43.4034 13.371 43.9025 13.472 44.3377 13.6727C44.7729 13.8733 44.9515 14.1672 44.8746 14.5548L43.4399 21.7551Z" fill="#231F20"/>
<path fill-rule="evenodd" clip-rule="evenodd" d="M46.902 7.38177L45.1396 4.67069L43.1061 7.78833L46.902 7.38177Z" fill="#00A650"/>
<path fill-rule="evenodd" clip-rule="evenodd" d="M39.3107 11.3124L42.2928 8.33032H38.4976L39.3107 11.3124Z" fill="#FBC707"/>
<path fill-rule="evenodd" clip-rule="evenodd" d="M37.0063 4.39979L33.6176 7.11087L37.2774 7.65295L37.0063 4.39979Z" fill="#ED1C24"/>
<path fill-rule="evenodd" clip-rule="evenodd" d="M38.0909 0.333362L37.4133 3.72205L41.073 1.82475L38.0909 0.333362Z" fill="#127BCA"/>
<path fill-rule="evenodd" clip-rule="evenodd" d="M42.4286 1.68882L46.2245 0.469127L45.0042 3.72229L42.4286 1.68882Z" fill="#F68712"/>
</g>
</g>
<defs>
<clipPath id="clip0_6_3451">
<rect width="53.3333" height="21.539" fill="white" transform="translate(0.333332 0.333313)"/>
</clipPath>
</defs>
</svg>
