<svg width="54" height="12" viewBox="0 0 54 12" fill="none" xmlns="http://www.w3.org/2000/svg">
<g clip-path="url(#clip0_6_3938)">
<path d="M18.5265 11.2278H17.0646V4.20483H18.5265V11.2278Z" fill="#017CC2"/>
<path d="M19.7414 11.2277V6.23736H20.5647C20.7319 6.23736 20.8435 6.31499 20.898 6.46987L20.9801 6.81846C21.0801 6.72179 21.1846 6.63296 21.2925 6.55235C21.4007 6.47136 21.5153 6.40194 21.6366 6.34409C21.7575 6.28587 21.8882 6.24108 22.0285 6.20861C22.1688 6.17651 22.3211 6.1601 22.4861 6.1601C22.757 6.1601 22.9974 6.20712 23.2071 6.3008C23.4165 6.3941 23.5934 6.52474 23.7367 6.69269C23.8804 6.86026 23.9883 7.06031 24.0614 7.29282C24.1335 7.52534 24.1704 7.77988 24.1704 8.05756V11.2277H22.8391V8.05756C22.8391 7.77988 22.7746 7.56453 22.6454 7.41114C22.5163 7.25811 22.326 7.18123 22.0744 7.18123C21.8841 7.18123 21.7075 7.22266 21.5444 7.30514C21.3817 7.38688 21.2261 7.49922 21.0775 7.64142V11.2277H19.7414Z" fill="#017CC2"/>
<path d="M26.7736 10.4051C26.9931 10.4051 27.1853 10.3659 27.3495 10.2864C27.5141 10.2073 27.6772 10.0856 27.8384 9.92106V9.14625C27.5126 9.15969 27.2413 9.18693 27.0252 9.22873C26.8091 9.27053 26.6374 9.32353 26.5098 9.38586C26.3825 9.44893 26.2922 9.52208 26.2388 9.60419C26.1854 9.68667 26.1589 9.77587 26.1589 9.87254C26.1589 10.0662 26.213 10.2032 26.3213 10.2842C26.4295 10.3648 26.5799 10.4051 26.7736 10.4051ZM28.5307 11.2281C28.405 11.2281 28.3087 11.2105 28.2426 11.1747C28.1766 11.1389 28.1224 11.0654 28.0806 10.9519L27.9739 10.6376C27.8481 10.747 27.7265 10.8429 27.6085 10.9254C27.4906 11.0079 27.3682 11.0773 27.2409 11.1333C27.1133 11.1904 26.9778 11.2329 26.8341 11.262C26.6908 11.2904 26.5318 11.3053 26.3575 11.3053C26.138 11.3053 25.938 11.2762 25.7573 11.218C25.5763 11.1598 25.4207 11.0739 25.2901 10.9594C25.1594 10.8451 25.0587 10.7018 24.9878 10.5309C24.9165 10.36 24.881 10.1633 24.881 9.94046C24.881 9.75646 24.928 9.57321 25.0217 9.39108C25.115 9.20895 25.2755 9.04249 25.5032 8.89208C25.7308 8.74279 26.0339 8.61738 26.4131 8.51699C26.7919 8.41734 27.2674 8.36098 27.8384 8.34829V8.09151C27.8384 7.77838 27.7724 7.54885 27.6399 7.40143C27.5078 7.25475 27.3174 7.18123 27.0692 7.18123C26.8848 7.18123 26.7314 7.20324 26.609 7.24654C26.4862 7.29059 26.3791 7.33761 26.2873 7.38725C26.1951 7.43763 26.1089 7.48391 26.0283 7.52758C25.9477 7.57124 25.854 7.59252 25.7473 7.59252C25.654 7.59252 25.576 7.56975 25.5129 7.52273C25.4502 7.4757 25.3972 7.42047 25.3554 7.3559L25.1184 6.93005C25.4121 6.66544 25.7361 6.46763 26.0914 6.33737C26.4459 6.20637 26.83 6.14069 27.2431 6.14069C27.5399 6.14069 27.8056 6.18957 28.0396 6.28624C28.2736 6.38254 28.4718 6.51764 28.6349 6.69044C28.7976 6.86324 28.9226 7.06889 29.0096 7.30738C29.0969 7.54624 29.1406 7.80786 29.1406 8.09151V11.2281L28.5307 11.2281Z" fill="#017CC2"/>
<path d="M31.5311 11.2277H30.1953V4.01147H31.5311V11.2277Z" fill="#017CC2"/>
<path d="M33.932 6.23737V9.40788C33.932 9.68519 33.9958 9.90091 34.1235 10.0539C34.2508 10.2073 34.4404 10.2838 34.6919 10.2838C34.8793 10.2838 35.0547 10.2424 35.2196 10.1603C35.3839 10.0782 35.5406 9.96585 35.6888 9.82366V6.23737H37.0253V11.2277H36.2027C36.031 11.2277 35.9217 11.1501 35.8732 10.9956L35.7862 10.647C35.5858 10.8437 35.3678 11.0027 35.1301 11.1236C34.8931 11.2449 34.6113 11.3053 34.2858 11.3053C34.0141 11.3053 33.773 11.2583 33.5618 11.165C33.3509 11.0713 33.1744 10.9407 33.0322 10.7724C32.89 10.6048 32.7821 10.4048 32.7075 10.1726C32.6332 9.9401 32.5959 9.68519 32.5959 9.40788V6.23737H33.932Z" fill="#017CC2"/>
<path d="M38.1285 11.2277V6.23736H38.9515C39.1191 6.23736 39.2303 6.31499 39.2852 6.46987L39.3628 6.7942C39.4498 6.70389 39.5393 6.61991 39.6315 6.54227C39.7234 6.46539 39.8226 6.39821 39.929 6.34148C40.0354 6.28549 40.1507 6.24108 40.275 6.20861C40.3989 6.17651 40.534 6.1601 40.6792 6.1601C40.9856 6.1601 41.2386 6.24147 41.439 6.40456C41.6391 6.56766 41.791 6.78449 41.894 7.05583C41.9746 6.89758 42.0739 6.76136 42.1915 6.64641C42.3094 6.53183 42.4385 6.43927 42.5789 6.36836C42.7192 6.29744 42.8677 6.24482 43.0241 6.21123C43.1809 6.17689 43.338 6.1601 43.4962 6.1601C43.7769 6.1601 44.0255 6.20227 44.2416 6.28587C44.4577 6.37022 44.6391 6.49338 44.7861 6.65611C44.9328 6.81921 45.0451 7.01851 45.1224 7.25401C45.1996 7.48952 45.2384 7.75749 45.2384 8.05756V11.2277H43.9027V8.05756C43.9027 7.47347 43.6526 7.18123 43.1525 7.18123C43.0394 7.18123 42.9353 7.1999 42.8405 7.23684C42.7453 7.27416 42.661 7.32977 42.5889 7.40404C42.5162 7.47868 42.4594 7.5705 42.4195 7.67985C42.3789 7.78995 42.3587 7.91573 42.3587 8.05755V11.2277H41.0225V8.05755C41.0225 7.74143 40.9605 7.51638 40.8367 7.38202C40.7124 7.24841 40.5291 7.18123 40.2869 7.18123C40.1324 7.18123 39.9861 7.2178 39.8491 7.29021C39.7121 7.36298 39.5834 7.46376 39.4643 7.59289V11.2277H38.1285Z" fill="#017CC2"/>
<path d="M7.95349 4.63403L5.03488 10.6037C6.6849 10.6034 8.3323 10.6037 9.98195 10.6037C9.64306 10.5978 8.30469 10.5149 8.78316 9.52548C8.98545 9.10561 9.24558 8.60586 9.60648 7.86315C9.05598 6.7767 8.47488 5.66114 7.95349 4.63403Z" fill="#93B81A"/>
<path d="M10.2563 0.676018C9.9144 0.668189 9.73787 0.832401 9.59903 1.1683C9.84013 1.20712 10.0652 1.34595 10.1854 1.55794L11.4584 4.02979C12.281 2.34171 12.7893 1.27019 12.7893 1.27019C12.9655 0.929436 13.1383 0.666687 13.5921 0.666687L10.2563 0.676018Z" fill="#ADC33B"/>
<path d="M1.01485 11.5513C2.32635 9.35307 5.6902 2.07262 5.6902 2.07262C5.76559 1.94535 5.88614 1.6255 6.1892 1.63408C6.39596 1.63408 6.57287 1.95692 6.65983 2.11816C6.67178 2.14204 7.15734 3.10607 7.81347 4.39929L4.24322 11.673C4.16746 11.8003 3.98831 12.0078 3.62217 12.0082H0.333344C0.692757 12.0082 0.916691 11.7156 1.01485 11.5513Z" fill="#017CC2"/>
<path d="M9.36171 1.3971C9.72822 1.39748 9.90737 1.59603 9.98313 1.71808L14.436 10.3235C14.6764 10.8348 14.3039 11.3032 13.7818 11.3032L9.90364 11.3035C10.2421 11.2984 11.5574 11.2188 11.0789 10.2701C10.1459 8.41293 6.82865 1.967 6.82865 1.967C6.6566 1.6479 6.51291 1.39709 6.08072 1.39709L9.36171 1.3971Z" fill="#DE413A"/>
<path d="M52.6238 6.93271C52.5446 6.84425 52.4088 6.83717 52.3207 6.91629C52.2323 6.99541 52.2252 7.13127 52.3043 7.21972C52.3834 7.30781 52.5196 7.31526 52.6077 7.23577C52.6959 7.15665 52.7029 7.02079 52.6238 6.93271ZM52.1812 2.48166C52.1069 2.57385 52.1211 2.70933 52.2137 2.78398C52.3055 2.85824 52.441 2.84407 52.5156 2.75188C52.5902 2.65969 52.576 2.52421 52.4835 2.44956C52.3914 2.3753 52.2558 2.38947 52.1812 2.48166ZM52.5403 4.68106C52.4212 4.68106 52.3253 4.77736 52.3253 4.89567C52.3253 5.01435 52.4213 5.11065 52.5403 5.11065C52.6586 5.11065 52.7549 5.01435 52.7549 4.89567C52.7549 4.77736 52.6586 4.68106 52.5403 4.68106ZM52.2249 5.49133C52.1629 5.67234 52.0723 5.83954 51.9588 5.98958C51.889 6.08363 51.8091 6.17059 51.7211 6.2486C51.6341 6.32772 51.5393 6.39752 51.4378 6.45798C51.1653 6.62145 50.8466 6.71475 50.5062 6.71475C49.5015 6.71475 48.6875 5.90001 48.6875 4.89567C48.6875 3.8917 49.5015 3.07659 50.5062 3.07659C50.7682 3.07659 51.0164 3.13219 51.2415 3.23221C51.3893 3.29715 51.5259 3.38113 51.6498 3.48116C51.7741 3.58193 51.8849 3.69837 51.9786 3.82788C52.0827 3.97119 52.1659 4.12981 52.2249 4.30038H52.675C52.6026 4.03651 52.4832 3.7913 52.3264 3.57596C52.2104 3.41547 52.0734 3.27141 51.9196 3.14712C51.7677 3.02321 51.5979 2.91945 51.4158 2.83884C51.1373 2.71568 50.8298 2.64737 50.5062 2.64737V2.19354C50.8951 2.19354 51.2654 2.27565 51.599 2.42382L51.7845 2.00506C51.393 1.83152 50.9612 1.7356 50.5062 1.7356C48.7607 1.7356 47.3454 3.15011 47.3454 4.89567C47.3454 6.64123 48.7607 8.05611 50.5062 8.05611C51.0981 8.05611 51.652 7.89376 52.126 7.60974L51.8905 7.21637C51.4863 7.45933 51.0123 7.59817 50.5062 7.59817V7.14434C50.9268 7.14434 51.3217 7.02863 51.6584 6.82672C51.7834 6.75207 51.9009 6.66586 52.0088 6.56845C52.1163 6.47141 52.2152 6.36467 52.3025 6.24822C52.4712 6.02466 52.5989 5.76864 52.675 5.49133H52.2249ZM53.6667 4.89567C53.6667 5.60964 53.4297 6.26801 53.0307 6.79686L52.6644 6.52104C53.0056 6.0687 53.2078 5.50625 53.2078 4.89566C53.2078 4.30298 53.0168 3.75509 52.6935 3.30947L53.0649 3.04001C53.4433 3.56102 53.6667 4.20222 53.6667 4.89567Z" fill="#DE413A"/>
</g>
<defs>
<clipPath id="clip0_6_3938">
<rect width="53.3333" height="11.3415" fill="white" transform="translate(0.333344 0.666687)"/>
</clipPath>
</defs>
</svg>
