<svg width="54" height="32" viewBox="0 0 54 32" fill="none" xmlns="http://www.w3.org/2000/svg">
<path d="M28.2507 0C26.1423 0 24.4347 1.70765 24.4347 3.81605C24.4347 5.92444 26.1423 7.63209 28.2507 7.63209C30.3591 7.63209 32.0759 5.92444 32.0759 3.81605C32.0759 1.70765 30.3591 0 28.2507 0ZM2.48784 7.28518C1.88533 7.3294 1.29631 7.64227 0.899344 8.09768C0.447796 8.61572 0.333328 9.33675 0.333328 10.024V21.3899C0.333328 22.1193 0.4491 22.9725 0.972379 23.4805C1.39915 23.8949 2.09726 24.019 2.68869 23.9553C3.21891 23.8982 4.10373 23.2158 4.10373 23.2158C4.10373 23.2158 3.35696 22.9908 3.12689 22.7046C2.90811 22.4324 2.83301 22.0483 2.86214 21.7003L3.77507 10.8182C3.88759 9.47427 4.89797 9.64053 4.89797 9.64053C4.89797 9.64053 4.58816 8.41145 4.07634 7.96074C3.64361 7.57968 3.0629 7.24297 2.48784 7.28518ZM37.0148 7.28518C36.4213 7.28284 35.7541 7.70469 35.335 8.12507C34.8656 8.59604 34.6929 9.14165 34.7416 9.80486C34.7838 10.3783 35.0104 11.014 35.472 11.3568C35.935 11.7007 36.5842 11.838 37.1609 11.8316L39.4615 11.8133V21.3899C39.4615 22.1193 39.5773 22.9725 40.1005 23.4805C40.5273 23.8949 41.2254 24.019 41.8168 23.9553C42.3471 23.8982 43.241 23.2158 43.241 23.2158C43.241 23.2158 42.4942 22.9908 42.2642 22.7046C42.0454 22.4324 41.9611 22.0483 41.9903 21.7003L42.9032 10.8182C43.051 9.05363 48.0065 9.64053 48.0065 9.64053C48.0065 9.64053 47.6967 8.41145 47.1849 7.96074C46.9193 7.72684 46.9576 7.3314 44.5009 7.32169L37.0148 7.28518ZM51.2565 7.28518C50.654 7.3294 50.065 7.64227 49.668 8.09768C49.2165 8.61572 49.102 9.33675 49.102 10.024V21.3899C49.102 22.1193 49.2178 22.9725 49.7411 23.4805C50.1678 23.8949 50.8659 24.019 51.4574 23.9553C51.9876 23.8982 52.8815 23.2158 52.8815 23.2158C52.8815 23.2158 52.1256 22.9908 51.8956 22.7046C51.6768 22.4324 51.6017 22.0483 51.6308 21.7003L52.5438 10.8182C52.6563 9.47427 53.6667 9.64053 53.6667 9.64053C53.6667 9.64053 53.3568 8.41145 52.845 7.96074C52.4123 7.57968 51.8316 7.24297 51.2565 7.28518Z" fill="#18457C"/>
<path d="M11.3415 23.0127C11.3415 23.0127 9.95394 23.9054 9.2034 23.8225C8.45286 23.7396 7.79129 23.2253 7.21256 22.4053C6.63384 21.5853 6.44744 20.222 6.3056 19.0828C6.17 17.9937 6.18628 16.6954 6.36729 15.791C6.6125 14.5658 6.91515 13.7389 7.68497 12.7548C8.48609 11.7306 8.88652 11.3468 9.70955 11.0002C10.9578 10.4745 11.7225 10.367 12.7464 10.4603C13.9303 10.5681 15.3389 11.3095 16.087 11.7088C17.4576 12.4403 18.6106 13.2376 19.8999 14.1045C21.1529 14.947 22.3478 15.8893 23.6791 16.6015C24.497 17.039 25.8602 17.9715 26.7835 17.8837C27.5102 17.8147 27.8477 17.2657 28.2682 16.669C28.8025 15.9108 28.629 14.4236 28.6731 13.4971C28.7305 12.2927 28.361 10.0554 28.361 10.0554C28.361 10.0554 29.0826 9.67378 29.5251 9.50703C29.8316 9.39155 30.372 9.3459 30.6977 9.3805C31.078 9.42089 31.4244 9.66604 31.71 9.92038C32.2412 10.3935 32.4991 11.1653 32.7816 11.8182C33.2931 13.0006 33.4372 14.1659 33.4482 15.4542C33.4592 16.738 33.2028 18.0232 32.6582 19.1857C32.0679 20.4456 31.0663 21.6109 29.8831 22.3773C29.0755 22.9004 28.0824 23.2507 27.1209 23.2151C25.7403 23.164 24.4841 22.352 23.2545 21.7222C21.6835 20.9177 20.3057 19.8062 18.8202 18.8285C17.402 17.8952 16.1432 16.9276 14.6204 16.3677C13.8914 16.0997 13.0464 15.6729 12.3258 15.9628C11.6538 16.2332 10.9865 16.8557 10.7811 17.5504C10.2799 19.2457 11.3415 23.0127 11.3415 23.0127Z" fill="#009DDB"/>
<path d="M15.3079 27.5778L15.2509 27.5854H15.1858L15.0148 27.6084L14.9985 27.5854C14.964 27.605 14.939 27.6161 14.9252 27.6161L14.8764 27.6084C14.8695 27.6084 14.8576 27.6114 14.8438 27.6237C14.8335 27.6202 14.8228 27.6161 14.8194 27.6161L14.6403 27.6468H14.6321C14.6183 27.6397 14.6111 27.6314 14.6077 27.6314H14.5996L14.567 27.6468L14.4937 27.6314C14.4903 27.6314 14.4717 27.6366 14.4286 27.6544L14.3553 27.6468C14.2449 27.6468 14.1802 27.6514 14.1518 27.6621C14.1233 27.6728 14.1064 27.6774 14.1029 27.6774L14.0785 27.6698H14.0459C14.0028 27.6698 13.9771 27.6826 13.9564 27.7004L13.9238 27.6851L13.818 27.7158H13.7854C13.7612 27.7193 13.7422 27.7304 13.7284 27.7464C13.7215 27.7429 13.7156 27.7388 13.7121 27.7388L13.6551 27.7464C13.6275 27.7464 13.5924 27.7476 13.5493 27.7618C13.5217 27.7546 13.5039 27.7541 13.5004 27.7541H13.4842C13.4652 27.7541 13.4466 27.768 13.419 27.8001L13.4027 27.7848C13.3527 27.8062 13.3223 27.8155 13.305 27.8155C13.2774 27.8155 13.2516 27.8292 13.2318 27.8462C13.2119 27.8631 13.1873 27.8691 13.1666 27.8691H13.1585C13.143 27.8621 13.1375 27.8615 13.1341 27.8615L12.898 27.9305C12.8721 27.9412 12.8445 27.9491 12.8247 27.9535C12.8048 27.958 12.7914 27.9681 12.7758 27.9842C12.7603 28.0002 12.7289 28.0163 12.6944 28.0225C12.6599 28.0287 12.6393 28.0372 12.6211 28.0532C12.603 28.0692 12.5852 28.0821 12.5723 28.0839C12.5594 28.0859 12.5441 28.0908 12.5234 28.1069C12.5027 28.1229 12.4795 28.1299 12.4502 28.1299L12.3932 28.1222L12.3525 28.1605L12.2466 28.2066C12.1673 28.2458 12.1191 28.2679 12.1001 28.2679C12.0259 28.2875 11.9735 28.3457 11.9372 28.4366L11.8884 28.5517C11.8884 28.6604 11.926 28.7127 12.0105 28.7127C12.0174 28.7127 12.0272 28.7022 12.0349 28.6897C12.0427 28.6773 12.0596 28.666 12.0838 28.6437C12.108 28.6214 12.1253 28.5897 12.1408 28.5594C12.1563 28.5291 12.1729 28.5146 12.1815 28.5057C12.197 28.5036 12.2075 28.4943 12.2222 28.4827C12.2369 28.4711 12.2547 28.465 12.2711 28.4597C12.2874 28.4544 12.3009 28.4359 12.3199 28.4137C12.3389 28.3914 12.3567 28.383 12.3688 28.383L12.4013 28.3907H12.4095C12.4198 28.3907 12.432 28.3819 12.4502 28.3677C12.4683 28.3534 12.4852 28.3423 12.499 28.337C12.5128 28.3317 12.5259 28.3256 12.5397 28.314C12.5535 28.3024 12.5739 28.2887 12.5886 28.2833C12.6032 28.278 12.6167 28.2746 12.6374 28.2603H12.6863C12.6897 28.2603 12.7155 28.251 12.7595 28.2297C12.8035 28.2083 12.8395 28.199 12.8654 28.199H12.8898C12.9261 28.1936 12.9604 28.1761 12.9794 28.153C12.9984 28.1298 13.0139 28.1223 13.0364 28.1223H13.0445L13.0852 28.1299C13.0956 28.1299 13.1329 28.1157 13.1829 28.0916C13.233 28.0676 13.2815 28.0545 13.3376 28.0456C13.3937 28.0367 13.4272 28.0338 13.4272 28.0302C13.4565 28.0088 13.4797 27.9919 13.5004 27.9919L13.5656 28.0072L13.59 27.9995L13.6226 27.9689H13.6796C13.6985 27.9564 13.7087 27.9494 13.7121 27.9459C13.7294 27.9459 13.7543 27.9413 13.7854 27.9306L13.8261 27.9382H13.8424L13.8912 27.9306H13.9075C13.9403 27.9199 13.967 27.9153 13.9808 27.9153C13.9946 27.9153 13.9971 27.9155 13.9971 27.9229C13.9971 27.9389 13.984 27.9564 13.9564 27.9689C13.9288 27.9814 13.9089 27.9977 13.8994 28.0226C13.8899 28.0476 13.8777 28.0688 13.8587 28.084C13.8397 28.0991 13.8147 28.1255 13.7854 28.1683L13.7447 28.2143C13.6653 28.2678 13.6124 28.333 13.59 28.4061C13.5641 28.4257 13.5503 28.4425 13.533 28.4674C13.5158 28.4924 13.4954 28.5131 13.4842 28.5211C13.4729 28.5291 13.4666 28.5422 13.4597 28.5671L13.4272 28.6131C13.4168 28.6309 13.3795 28.6606 13.3295 28.7051L13.3132 28.8048C13.3097 28.8405 13.2963 28.8568 13.2643 28.8585C13.2324 28.8606 13.1973 28.8976 13.1585 28.9582C13.1197 29.0188 13.0786 29.0708 13.0364 29.127C12.9941 29.1831 12.9679 29.2352 12.955 29.2727C12.942 29.3101 12.9323 29.3269 12.9305 29.334C12.9185 29.3376 12.9083 29.3546 12.898 29.3724C12.86 29.3973 12.8397 29.4188 12.8328 29.4491L12.784 29.5257C12.7529 29.5596 12.7433 29.5882 12.7433 29.6024L12.7514 29.6945C12.729 29.7194 12.7171 29.7292 12.7188 29.7328C12.674 29.7453 12.6406 29.791 12.613 29.8632C12.5854 29.9354 12.5646 29.9825 12.556 30.0012C12.5474 30.0199 12.5432 30.033 12.5397 30.0472C12.4966 30.0793 12.4746 30.1183 12.4746 30.17C12.4746 30.1913 12.4776 30.2094 12.4827 30.2236C12.4741 30.2272 12.4699 30.2418 12.4665 30.2543C12.4526 30.2828 12.4192 30.3282 12.3769 30.3923C12.3346 30.4565 12.3118 30.5274 12.3118 30.6148C12.3118 30.6433 12.3105 30.6686 12.3036 30.6838C12.2967 30.6989 12.2972 30.7155 12.2955 30.7298C12.2938 30.744 12.2814 30.7746 12.2711 30.8218C12.2607 30.869 12.2548 30.8914 12.2548 30.8985C12.2548 31.0233 12.2857 31.1263 12.3443 31.1976C12.403 31.2689 12.4673 31.305 12.5397 31.305L12.5967 31.2973H12.6211C12.6781 31.2795 12.7026 31.2452 12.7026 31.19C12.7026 31.165 12.7102 31.1437 12.7188 31.1286C12.7275 31.1135 12.727 31.0922 12.727 31.0672C12.727 31.0494 12.7219 31.0264 12.7107 31.0059C12.6995 30.9854 12.6944 30.9747 12.6944 30.9675C12.6944 30.9569 12.6974 30.9476 12.7026 30.9369L12.7514 30.7835L12.7677 30.6685C12.797 30.5633 12.8131 30.4865 12.8165 30.4384C12.8269 30.4242 12.8422 30.4143 12.8491 30.4L12.8573 30.377C12.8883 30.3414 12.9183 30.2835 12.9468 30.2006C12.9753 30.1178 12.9938 30.0517 13.0119 30.0089C13.0301 29.9662 13.0411 29.9156 13.0445 29.8479C13.0635 29.8514 13.0986 29.7996 13.1504 29.6945C13.1538 29.625 13.1657 29.575 13.1829 29.5411C13.3037 29.3968 13.3702 29.303 13.3702 29.2727V29.2497C13.4047 29.182 13.4272 29.1436 13.4272 29.1347C13.4272 29.1311 13.4398 29.1107 13.476 29.0733L13.5086 29.0196C13.5241 28.9804 13.5478 28.9508 13.5737 28.9276L13.5574 28.8509C13.5574 28.8295 13.5663 28.8126 13.5819 28.8126H13.6226L13.647 28.7819L13.6796 28.7589C13.7382 28.6716 13.7733 28.6262 13.7854 28.6209L13.8098 28.5595C13.8202 28.5488 13.8261 28.5395 13.8261 28.5288C13.8261 28.5163 13.8308 28.5094 13.8342 28.5058L13.8505 28.4828C13.8626 28.4578 13.8846 28.4287 13.9157 28.3984C13.9398 28.3984 13.9635 28.3845 13.9808 28.3524C13.9981 28.3203 14.0319 28.2834 14.0785 28.245C14.1251 28.2067 14.1508 28.1785 14.1681 28.1607C14.1853 28.1429 14.2019 28.1277 14.2088 28.1223C14.2088 28.1116 14.2236 28.0907 14.2495 28.0533C14.2495 28.0391 14.2397 28.0228 14.225 27.9996C14.2104 27.9765 14.2006 27.9502 14.2006 27.9306C14.2006 27.8985 14.2268 27.8805 14.282 27.8769C14.3373 27.8734 14.3788 27.8746 14.396 27.8693C14.4133 27.864 14.4217 27.8616 14.4286 27.8616L14.4856 27.8693L14.5588 27.8616L14.7542 27.8769C14.7559 27.8769 14.7644 27.8723 14.7868 27.8616C14.8023 27.8652 14.8159 27.8616 14.8194 27.8616L14.9252 27.854H14.9415C14.9588 27.854 14.9706 27.8581 14.9741 27.8616L15.0881 27.9076C15.1019 27.9112 15.1167 27.926 15.1288 27.9536C15.1408 27.9813 15.167 27.992 15.2102 27.992C15.2964 27.992 15.3493 27.9874 15.3649 27.9767C15.3804 27.966 15.39 27.9581 15.4056 27.9537C15.4211 27.9492 15.43 27.9496 15.43 27.946C15.4473 27.9389 15.4621 27.9214 15.4707 27.9L15.4789 27.8463L15.4951 27.8003L15.4789 27.716C15.4788 27.6839 15.4666 27.6551 15.4381 27.6239C15.4097 27.5927 15.3648 27.5778 15.3079 27.5778ZM29.515 27.7618C29.4857 27.7618 29.4501 27.7741 29.4173 27.7848C29.3845 27.7955 29.3536 27.8001 29.3277 27.8001C29.3243 27.8002 29.3087 27.7873 29.2707 27.7695L29.2545 27.7848C29.2424 27.799 29.2322 27.8001 29.2219 27.8001L29.1649 27.7848H29.1567C29.1343 27.7848 29.0832 27.8139 29.0021 27.8692C28.9986 27.8692 28.991 27.8595 28.9858 27.8462C28.9806 27.8328 28.9764 27.8309 28.9695 27.8309L28.8881 27.8462C28.8467 27.8462 28.8128 27.8508 28.7904 27.8615L28.709 27.8922C28.6555 27.8975 28.6068 27.9062 28.5706 27.9151L28.1879 28.0225C28.1672 28.0332 28.1534 28.0352 28.1309 28.0378C28.1085 28.0405 28.086 28.0584 28.0739 28.0762L28.0577 28.0992C28.0456 28.1012 28.032 28.1056 28.0251 28.1145C28.0216 28.1323 28.0157 28.1451 28.0088 28.1451C27.9915 28.1452 27.9832 28.1416 27.9762 28.1451C27.9693 28.1487 27.9634 28.1528 27.96 28.1528L27.9192 28.1451C27.9158 28.1487 27.9145 28.1451 27.9111 28.1451L27.846 28.1911C27.8356 28.2053 27.8199 28.2205 27.8053 28.2294C27.7906 28.2384 27.7796 28.2458 27.7727 28.2601C27.7657 28.2744 27.7598 28.2831 27.7564 28.2831L27.7157 28.2678C27.6605 28.2803 27.6254 28.3024 27.6099 28.3292C27.5943 28.3559 27.5829 28.368 27.5691 28.3752C27.5243 28.3752 27.4702 28.4037 27.4063 28.4519L27.2109 28.5899C27.1436 28.6398 27.1132 28.7225 27.1132 28.8276C27.1132 28.8383 27.1199 28.8662 27.1458 28.9197C27.1717 28.9732 27.206 29.004 27.2353 29.004C27.2492 29.004 27.2614 29.0003 27.2761 28.9887C27.2907 28.9772 27.303 28.9693 27.3168 28.9657C27.3306 28.9622 27.3412 28.9272 27.3412 28.8737V28.8277L27.3575 28.797C27.3799 28.7507 27.4031 28.721 27.4307 28.705V28.6667C27.4342 28.6596 27.4436 28.6472 27.447 28.6437C27.5178 28.6276 27.5574 28.6094 27.5773 28.5746C27.5971 28.5399 27.6247 28.514 27.6505 28.4979C27.6764 28.4819 27.7047 28.4501 27.7401 28.4136C27.7755 28.3771 27.7978 28.3599 27.8134 28.3599H27.8215C27.8388 28.3635 27.8506 28.3676 27.8541 28.3676C27.8679 28.3676 27.8793 28.3606 27.8948 28.3446C27.9103 28.3286 27.9548 28.3023 28.0169 28.2755C28.0791 28.2488 28.1226 28.2261 28.1553 28.2065L28.1961 28.2219C28.2392 28.2076 28.2713 28.1948 28.2938 28.1912C28.3162 28.1876 28.339 28.1857 28.3589 28.1759C28.3787 28.1661 28.3981 28.1582 28.424 28.1529C28.4499 28.1476 28.4902 28.1365 28.5299 28.1222H28.5461L28.6683 28.0992C28.7666 28.0832 28.8242 28.0675 28.8311 28.0532L28.8718 28.0762C28.8822 28.0709 28.8982 28.0557 28.9206 28.0378C28.931 28.061 28.9463 28.0762 28.9532 28.0762C28.9636 28.0762 28.9737 28.0666 28.9858 28.0532C28.9979 28.0399 29.0157 28.0302 29.0347 28.0302H29.0428C29.0739 28.0409 29.1243 28.0456 29.1812 28.0456H29.1975C29.213 28.042 29.2303 28.0415 29.2545 28.0379L29.3277 28.0303H29.3359C29.3618 28.041 29.3778 28.0456 29.3848 28.0456C29.3934 28.0456 29.4124 28.0286 29.4417 28.0073L29.5232 28.0303L29.6534 28.0379L29.7104 28.0303H29.7267C29.7336 28.0303 29.7489 28.0305 29.7593 28.0379L29.7918 28.0532C29.8246 28.0532 29.8466 28.0573 29.857 28.0609C29.9053 28.0947 29.9345 28.1069 29.9465 28.1069H29.9547L29.9873 28.0916C30.0045 28.0916 30.0202 28.1044 30.028 28.1223C30.0357 28.1401 30.0408 28.1453 30.0442 28.1453L30.1257 28.1376V28.1453L30.1338 28.1759C30.1338 28.1848 30.1368 28.1877 30.142 28.1912C30.2006 28.234 30.2394 28.2863 30.2722 28.3523C30.2757 28.3737 30.288 28.4008 30.2966 28.4213C30.3053 28.4418 30.3048 28.4822 30.3048 28.5517L30.2966 28.6897L30.3048 28.7664C30.3048 28.7736 30.2964 28.7875 30.2722 28.8124L30.2966 28.8508C30.2966 28.8543 30.2903 28.8613 30.2722 28.8738C30.2541 28.8862 30.2325 28.9007 30.2152 28.9274V28.9428C30.2152 28.9464 30.2199 28.9557 30.2234 28.9735L30.1664 29.0425C30.1698 29.0497 30.1757 29.0543 30.1827 29.0579C30.1499 29.0757 30.1338 29.085 30.1338 29.0885L30.1012 29.1346L30.0524 29.1652C30.0058 29.2187 29.9766 29.2519 29.9628 29.2573L29.8082 29.3263C29.7824 29.3299 29.7557 29.3438 29.735 29.3723C29.7142 29.4008 29.6863 29.4183 29.6535 29.4183C29.6501 29.4183 29.637 29.4101 29.6128 29.403C29.5421 29.4404 29.4897 29.4643 29.45 29.4643C29.4327 29.4643 29.4099 29.4673 29.3849 29.4796C29.3598 29.4921 29.3353 29.5009 29.3197 29.5026C29.3042 29.5047 29.2907 29.5091 29.2709 29.518C29.251 29.5269 29.216 29.5315 29.1651 29.5333C29.1141 29.5353 29.0752 29.5479 29.0511 29.564H29.0022L28.9045 29.5563C28.8942 29.5563 28.8823 29.5615 28.8719 29.5793L28.8638 29.587C28.8276 29.5691 28.8056 29.564 28.7987 29.564H28.7824C28.7617 29.5782 28.7392 29.5793 28.7254 29.5793C28.7116 29.5793 28.6993 29.5769 28.6847 29.5716C28.67 29.5663 28.6543 29.564 28.644 29.564L28.5626 29.5793C28.5487 29.5793 28.5381 29.5747 28.5381 29.564V29.5563C28.5468 29.5225 28.5574 29.4817 28.5626 29.4336C28.6092 29.4015 28.6413 29.3538 28.6603 29.2879C28.6793 29.222 28.7004 29.1684 28.7254 29.1345C28.7504 29.1007 28.772 29.0655 28.7824 29.0271C28.7928 28.9888 28.8207 28.9485 28.8638 28.8968C28.9087 28.8665 28.9293 28.8347 28.9371 28.8124C28.9449 28.7901 28.9534 28.7632 28.9534 28.7204C28.9534 28.6865 28.9314 28.626 28.8882 28.544L28.8719 28.5286C28.8685 28.4787 28.8618 28.4409 28.8394 28.4213L28.7498 28.3446L28.7091 28.3522C28.7057 28.3522 28.7053 28.3482 28.701 28.3446C28.6966 28.341 28.6869 28.3369 28.6765 28.3369C28.6558 28.3369 28.6352 28.3683 28.6033 28.4289C28.5713 28.4895 28.5544 28.5385 28.5544 28.567V28.6283C28.5302 28.6729 28.5171 28.7025 28.5137 28.7204L28.3753 28.9734C28.3356 29.0412 28.3183 29.086 28.3183 29.1038V29.1268C28.2924 29.1248 28.2751 29.1536 28.2613 29.2035C28.2475 29.2534 28.2403 29.2725 28.2369 29.2725L28.2125 29.3032C28.209 29.3139 28.2036 29.3328 28.188 29.3569C28.1725 29.381 28.1636 29.3963 28.1636 29.4106C28.1636 29.4213 28.1708 29.4328 28.188 29.4489V29.4642L28.1473 29.4412C28.1387 29.4412 28.1265 29.4587 28.1066 29.4872C28.0868 29.5158 28.074 29.5384 28.074 29.5563C28.074 29.5634 28.077 29.5686 28.0822 29.5793C28.0874 29.5899 28.0904 29.6028 28.0904 29.6099C28.0904 29.6135 28.0832 29.6158 28.0659 29.6176C28.0487 29.6196 28.0385 29.6222 28.0333 29.6329L28.0089 29.6789C27.9675 29.7128 27.9519 29.7687 27.9519 29.84C27.9416 29.842 27.9285 29.8603 27.9112 29.9013L27.8787 29.9627C27.8766 29.9769 27.8608 30.0143 27.8298 30.0624L27.838 30.1084L27.8135 30.1391C27.8015 30.1426 27.7973 30.1478 27.7973 30.1621V30.1697C27.8162 30.2178 27.8298 30.2505 27.8298 30.2541C27.8298 30.2648 27.8205 30.2659 27.8136 30.2694L27.7891 30.2617C27.7459 30.2902 27.7256 30.3041 27.7239 30.3077L27.553 30.6298C27.4822 30.7688 27.4471 30.8747 27.4471 30.9442C27.4471 31.0048 27.4597 31.0443 27.496 31.0746L27.5122 31.0976C27.5433 31.2028 27.6068 31.2587 27.6913 31.2587C27.7241 31.2587 27.7554 31.2412 27.789 31.2126C27.8227 31.1841 27.8379 31.155 27.8379 31.1283L27.8297 30.9749C27.8297 30.9303 27.8522 30.9001 27.8867 30.8752L27.903 30.7832L27.9193 30.7602C27.9383 30.7245 27.9578 30.6945 27.9681 30.6758C27.9785 30.6571 27.9763 30.6487 27.9763 30.6451V30.5685L27.9925 30.5531C28.0167 30.5406 28.0281 30.5258 28.0333 30.5071C28.0384 30.4884 28.0511 30.4589 28.0658 30.4304C28.0805 30.4019 28.088 30.3565 28.0984 30.2923C28.1657 30.2478 28.2042 30.2047 28.2042 30.162V30.1543C28.1973 30.1276 28.1914 30.1119 28.1879 30.1083C28.1948 30.0976 28.2008 30.0848 28.2042 30.0776C28.2543 30.0723 28.2834 30.0491 28.2938 30.0009C28.3041 29.9528 28.3274 29.9121 28.367 29.8782C28.3843 29.8497 28.3974 29.8258 28.4078 29.8169C28.4181 29.8079 28.4253 29.8005 28.4322 29.7862L28.4485 29.7939L28.4973 29.7785L28.538 29.7939L28.5787 29.7862L28.6194 29.8092L28.6764 29.8015L28.7823 29.8245L28.8474 29.8092L28.9777 29.8245C28.988 29.8245 29.0033 29.8204 29.0102 29.8169L29.0184 29.7785L29.0428 29.7709C29.0463 29.7976 29.0534 29.8092 29.0672 29.8092L29.1812 29.7939C29.1967 29.7939 29.2141 29.7869 29.2382 29.7709C29.2952 29.7762 29.3337 29.7832 29.344 29.7939L29.3929 29.7862C29.4136 29.7595 29.4232 29.7479 29.4336 29.7479L29.4987 29.7708C29.535 29.7708 29.6111 29.7492 29.7267 29.7172L29.8651 29.6635C29.8755 29.6614 29.8962 29.6424 29.9221 29.6175L29.9791 29.6328C30.0429 29.6078 30.0857 29.5998 30.1012 29.5945C30.1167 29.5891 30.1544 29.5652 30.2071 29.5331C30.2597 29.501 30.2986 29.4685 30.321 29.4257C30.3279 29.4293 30.3257 29.4257 30.3292 29.4257C30.3465 29.4257 30.3909 29.3984 30.4513 29.3414C30.4703 29.3414 30.4864 29.3205 30.5002 29.2724C30.5606 29.2189 30.6168 29.1223 30.6711 28.9886C30.7255 28.8549 30.7526 28.7379 30.7526 28.6435L30.7444 28.5054V28.4441C30.7444 28.3496 30.7266 28.2871 30.6956 28.2524C30.6645 28.2176 30.6484 28.1871 30.6467 28.1603L30.6386 28.1527C30.6006 28.1384 30.5816 28.125 30.5816 28.1143C30.5816 28.1036 30.5781 28.0943 30.5816 28.0837L30.549 28.03C30.5179 28.0086 30.4942 27.9823 30.4839 27.9609C30.4753 27.9235 30.4555 27.9073 30.4106 27.9073H30.378L30.3292 27.892C30.2981 27.851 30.2517 27.8224 30.1826 27.8153C30.1136 27.8082 30.0527 27.7988 30.0035 27.7846C29.9543 27.7704 29.907 27.7616 29.857 27.7616L29.8081 27.777C29.7961 27.7663 29.7778 27.7616 29.7674 27.7616L29.5883 27.7692L29.515 27.7618ZM25.5826 27.9305C25.5325 27.9305 25.4962 27.9509 25.4686 27.9919L25.4035 28.0532C25.3828 28.0693 25.3532 28.1114 25.3058 28.1836C25.2583 28.2558 25.2198 28.3099 25.1999 28.3447C25.1801 28.3794 25.148 28.4216 25.1022 28.475C25.0565 28.5285 25.0371 28.5687 25.0371 28.5901L25.0452 28.6284V28.6437C25.0245 28.658 25 28.6691 24.9801 28.6744C24.9603 28.6797 24.9451 28.7092 24.9313 28.7511C24.9175 28.793 24.9056 28.813 24.8987 28.8201C24.8918 28.8273 24.8855 28.8457 24.8743 28.8661C24.863 28.8867 24.8503 28.8979 24.8417 28.9122C24.8331 28.9264 24.8271 28.9413 24.8254 28.9582C24.8237 28.9751 24.8136 28.9976 24.7929 29.0119L24.7603 29.0579C24.7396 29.1363 24.7045 29.2131 24.6544 29.2879C24.6251 29.3503 24.6125 29.3925 24.6056 29.4183C24.5987 29.4442 24.5928 29.4608 24.5893 29.4643C24.5721 29.5481 24.5382 29.6167 24.4916 29.6791L24.459 29.7251C24.4366 29.791 24.4159 29.8248 24.4021 29.8248C24.3951 29.8141 24.3927 29.8012 24.3858 29.7941C24.3789 29.787 24.3717 29.7661 24.3613 29.7251C24.351 29.6841 24.3252 29.6462 24.2881 29.6177C24.251 29.5892 24.2103 29.5794 24.1741 29.5794C24.1568 29.5794 24.1366 29.5892 24.1089 29.6177C24.0796 29.6035 24.0589 29.6024 24.052 29.6024C24.0416 29.6024 24.0379 29.6027 24.0275 29.6101C24.0172 29.6172 24.0053 29.6177 23.995 29.6177H23.9624C23.9262 29.6338 23.9012 29.6512 23.8891 29.6637C23.8529 29.6637 23.817 29.6887 23.767 29.7404L23.7507 29.7481C23.7266 29.7516 23.7139 29.7604 23.7019 29.7711C23.6898 29.7818 23.6631 29.7921 23.6286 29.8171C23.5941 29.8421 23.5632 29.8776 23.539 29.9168C23.4666 29.9703 23.4159 30.0273 23.3762 30.0932L23.3518 30.1008L23.3355 30.1392C23.3131 30.1642 23.2835 30.2197 23.2378 30.3079C23.1921 30.3961 23.1598 30.4453 23.1564 30.4613C23.1529 30.4773 23.1412 30.5079 23.1075 30.5533C23.0739 30.5988 23.0505 30.652 23.0505 30.7144L23.0668 30.7681C23.0599 30.7752 23.0528 30.7757 23.0424 30.7757C23.032 30.7989 23.0261 30.8187 23.0261 30.8294L23.0505 30.9598C23.0557 31.0025 23.0641 31.0377 23.0831 31.0671C23.1021 31.0965 23.1169 31.1242 23.1238 31.1438C23.1307 31.1635 23.1527 31.1852 23.1889 31.2129C23.2252 31.2405 23.2734 31.2589 23.3355 31.2589C23.4235 31.2589 23.4937 31.228 23.5472 31.1745C23.5593 31.1656 23.5724 31.1569 23.5879 31.1515C23.6034 31.123 23.62 31.1026 23.6286 31.0902L23.6693 31.0825C23.6762 31.0861 23.6821 31.0902 23.6856 31.0902C23.6925 31.0902 23.7073 31.0639 23.7263 31.0211C23.7453 30.9784 23.7673 30.9584 23.7914 30.9521C23.8156 30.9459 23.8261 30.9301 23.8321 30.9061C23.8382 30.8821 23.8497 30.8678 23.8566 30.8678C23.8824 30.8678 23.8968 30.8483 23.9054 30.8064C23.914 30.7645 23.9242 30.7451 23.938 30.7451H23.9461L23.9787 30.768C23.9908 30.768 24.0034 30.7343 24.0275 30.6683C24.0862 30.6202 24.1204 30.58 24.1334 30.5533C24.1463 30.5266 24.159 30.5109 24.1659 30.5073L24.1822 30.4996C24.1943 30.4872 24.2044 30.4743 24.2148 30.469C24.239 30.469 24.2614 30.4399 24.2718 30.3846L24.2881 30.377L24.2962 30.3386C24.3204 30.3386 24.3424 30.4009 24.3613 30.515V30.6224C24.3855 30.6812 24.4059 30.7339 24.4102 30.7757C24.4145 30.8176 24.4441 30.863 24.5079 30.9138C24.5717 30.9646 24.6437 30.9905 24.7196 30.9905L24.801 30.9751C24.8459 30.9751 24.8716 30.9623 24.8906 30.9444C24.9095 30.9266 24.9308 30.9191 24.9394 30.9138H24.9964C25.0033 30.9138 25.0134 30.898 25.029 30.8678C25.0445 30.8375 25.0618 30.8217 25.0859 30.8217C25.0928 30.8217 25.1017 30.822 25.1104 30.8294C25.1345 30.792 25.1523 30.7664 25.1592 30.745L25.2081 30.7527C25.2184 30.7455 25.2268 30.7357 25.2406 30.7143V30.6837C25.2406 30.6694 25.2572 30.6587 25.2813 30.6453C25.3055 30.632 25.3334 30.6037 25.3628 30.561C25.4059 30.5538 25.4312 30.5376 25.4442 30.5073C25.4571 30.477 25.4787 30.4461 25.5012 30.4229C25.5547 30.4087 25.5744 30.3703 25.5744 30.3079C25.5744 30.3008 25.5673 30.2716 25.55 30.2235L25.5744 30.1545C25.5744 30.1367 25.5549 30.1238 25.5256 30.1238C25.5118 30.1239 25.4974 30.1367 25.4767 30.1545L25.4523 30.1699C25.4195 30.1806 25.3938 30.2161 25.3628 30.2696C25.3317 30.3231 25.2645 30.3824 25.1592 30.4536C25.154 30.459 25.1434 30.4718 25.1348 30.4843C25.1262 30.4968 25.1122 30.5079 25.0941 30.515C25.076 30.5222 25.0684 30.5309 25.0615 30.538C25.0356 30.5915 24.9667 30.642 24.858 30.699L24.8173 30.7144C24.781 30.7465 24.7625 30.7681 24.7521 30.7681C24.7314 30.7681 24.7196 30.7506 24.7196 30.722V30.6607L24.6951 30.5533L24.7033 30.515L24.6951 30.4383L24.7277 30.2542C24.7484 30.0831 24.7763 29.9906 24.8091 29.9781L24.8336 29.9091C24.8974 29.836 24.9231 29.7971 24.9231 29.7864L24.9068 29.7174C24.9103 29.7032 24.9221 29.6897 24.9394 29.679C24.9998 29.6755 25.0302 29.6564 25.0371 29.61C25.044 29.5637 25.0601 29.541 25.086 29.541C25.1136 29.541 25.1279 29.5229 25.1348 29.4873C25.1348 29.4214 25.1514 29.3835 25.1755 29.3799C25.1997 29.3763 25.2131 29.3575 25.2244 29.3263C25.2356 29.2951 25.2572 29.2645 25.2814 29.2342C25.3055 29.2039 25.3228 29.1562 25.3383 29.0885L25.3465 29.0809C25.3706 29.0719 25.3872 29.0621 25.3872 29.0425V28.9888C25.4131 28.9799 25.4482 28.9217 25.493 28.8201C25.4965 28.8165 25.5083 28.8119 25.5256 28.8048L25.6721 28.4367C25.6756 28.4153 25.6857 28.3839 25.7047 28.3447C25.7237 28.3055 25.7291 28.2735 25.7291 28.245L25.7373 28.2143C25.7563 28.1626 25.7617 28.1288 25.7617 28.1146C25.7617 28.0736 25.7461 28.0338 25.7047 27.9919C25.6633 27.95 25.6205 27.9305 25.5826 27.9305ZM21.3408 28.1683C21.308 28.1683 21.2623 28.1979 21.2105 28.2603C21.195 28.2942 21.1713 28.314 21.1454 28.314C21.1402 28.314 21.1378 28.326 21.1291 28.3447C21.1205 28.3634 21.1116 28.3741 21.1047 28.383C21.0754 28.4472 21.0445 28.4902 21.0151 28.5134C20.9858 28.5366 20.9652 28.57 20.9419 28.6208C20.9186 28.6716 20.8987 28.6975 20.8849 28.6974H20.8442C20.8407 28.6975 20.8331 28.6939 20.8279 28.6974C20.8227 28.701 20.8087 28.7133 20.7872 28.7204C20.7656 28.7276 20.7377 28.7342 20.7058 28.7511C20.6738 28.768 20.6413 28.7818 20.5999 28.7818H20.5918L20.5673 28.7665L20.5348 28.7972L20.5022 28.8048C20.4815 28.7977 20.4667 28.7972 20.4615 28.7972C20.427 28.7972 20.4017 28.8001 20.3801 28.8125C20.3585 28.8249 20.3463 28.8355 20.3394 28.8355L20.2987 28.8431C20.2814 28.8503 20.245 28.8599 20.201 28.8661C20.157 28.8723 20.1248 28.8825 20.1033 28.8968C20.0817 28.911 20.0635 28.9121 20.0463 28.9121H20.0137L19.9079 28.9351C19.8302 28.9548 19.7756 28.9755 19.7532 28.9888C19.7308 29.0022 19.7147 29.0118 19.7043 29.0118H19.6962L19.6718 28.9964H19.6636L19.5578 29.0425C19.2644 29.071 19.1181 29.1728 19.1181 29.3492C19.1181 29.3813 19.1274 29.4165 19.1507 29.4566C19.174 29.4967 19.1986 29.518 19.2158 29.518L19.2321 29.5103C19.3046 29.4444 19.3498 29.4101 19.3705 29.4029L19.6392 29.3262C19.6565 29.3298 19.6683 29.3339 19.6718 29.3339C19.6977 29.3339 19.7387 29.3182 19.7939 29.2879H19.8509C19.8785 29.2701 19.9022 29.2649 19.916 29.2649H19.9323L20.0381 29.2342C20.0899 29.2004 20.1724 29.1741 20.2743 29.1652L20.3882 29.1575H20.4208C20.4277 29.1575 20.4413 29.1506 20.4534 29.1345C20.4655 29.1185 20.4845 29.1046 20.5104 29.0885C20.5449 29.0992 20.5592 29.1062 20.5592 29.1115L20.6732 29.0578C20.6801 29.065 20.686 29.0737 20.6895 29.0808C20.686 29.129 20.6644 29.1799 20.6325 29.2342C20.6006 29.2886 20.5794 29.3325 20.5674 29.3646C20.5553 29.3967 20.5029 29.4644 20.4045 29.5793C20.3062 29.6943 20.2381 29.7691 20.201 29.7941C20.1639 29.819 20.1393 29.8492 20.1358 29.8938L20.1277 29.9091H20.1033L20.087 29.9168L20.0789 29.9398L20.0544 29.9551C20.0251 29.9551 20.009 29.9796 20.0056 30.0241L19.9974 30.0318C19.9836 30.0318 19.9693 30.0425 19.9486 30.0701C19.9279 30.0977 19.8958 30.1324 19.8509 30.1698C19.806 30.2072 19.7776 30.234 19.7776 30.2465C19.7776 30.2607 19.7709 30.2682 19.7451 30.2772C19.7192 30.2861 19.6967 30.3018 19.6881 30.3232C19.6838 30.3314 19.6774 30.3391 19.6718 30.3462C19.6683 30.3506 19.6676 30.3576 19.6636 30.3615C19.6615 30.3645 19.6578 30.3661 19.6555 30.3692C19.6473 30.3759 19.641 30.3793 19.6311 30.3845C19.6203 30.39 19.6132 30.4033 19.6066 30.4151C19.6048 30.4184 19.6 30.419 19.5985 30.4228L19.5822 30.4304C19.5442 30.4714 19.5172 30.4941 19.5008 30.4995C19.4844 30.5048 19.4692 30.5155 19.4519 30.5378C19.4347 30.5601 19.3784 30.5942 19.2973 30.6298C19.2904 30.6191 19.2891 30.6099 19.2891 30.5992C19.2891 30.5903 19.301 30.5658 19.3217 30.5301V30.4611L19.3542 30.3768L19.3461 30.2694C19.3461 30.2658 19.3567 30.246 19.3705 30.2157C19.3671 30.1979 19.3582 30.172 19.3461 30.139C19.334 30.1061 19.3298 30.0837 19.3298 30.0623C19.3298 30.0089 19.3052 29.9163 19.2647 29.7862C19.2241 29.6561 19.1848 29.5743 19.1426 29.5485C19.1003 29.5226 19.0626 29.5102 19.0367 29.5102C18.9919 29.5102 18.9623 29.5218 18.939 29.5485C18.9157 29.5752 18.8929 29.6238 18.8739 29.6942C18.8549 29.7646 18.8414 29.8077 18.825 29.8246C18.8087 29.8415 18.7947 29.8622 18.7843 29.8783L18.7436 29.9473C18.7281 29.974 18.6947 30.013 18.6378 30.07C18.5808 30.127 18.5351 30.1637 18.5075 30.185L18.4017 30.2694C18.3998 30.2732 18.3954 30.2736 18.3935 30.2771C18.3866 30.2704 18.3777 30.2694 18.3691 30.2694C18.3588 30.2694 18.3216 30.2926 18.2551 30.3461C18.2352 30.3621 18.2204 30.377 18.2063 30.3921C18.2063 30.3941 18.2041 30.3962 18.1981 30.3998C18.1697 30.4321 18.1504 30.464 18.1493 30.4918C18.1424 30.4989 18.1255 30.5053 18.1004 30.5071C18.0754 30.5091 18.0526 30.5196 18.0353 30.5454C18.018 30.5713 18.0037 30.5852 17.9865 30.5915C17.9692 30.5977 17.9388 30.6434 17.8888 30.7218L17.8643 30.7142C17.8091 30.7356 17.7685 30.7577 17.7503 30.7755C17.7322 30.7933 17.72 30.7985 17.7096 30.7985C17.6958 30.7985 17.6852 30.7799 17.6852 30.7372V30.7295C17.6852 30.7223 17.6958 30.7119 17.7096 30.7065C17.7234 30.7012 17.7323 30.6799 17.7341 30.6452C17.7358 30.6104 17.7573 30.5223 17.8073 30.3691C17.885 30.2229 17.9295 30.1217 17.9295 30.07C17.9295 30.0147 17.9078 29.9745 17.8725 29.9549C17.8371 29.9354 17.805 29.9089 17.7748 29.8706C17.7446 29.8323 17.7091 29.8092 17.6608 29.8092C17.6125 29.8092 17.5765 29.8207 17.555 29.8322C17.5334 29.8438 17.4737 29.8883 17.384 29.9703C17.3771 29.9845 17.3687 29.9938 17.3514 30.0009L17.2863 30.0546C17.2725 30.0796 17.259 30.0991 17.2374 30.116C17.2159 30.1329 17.1942 30.1565 17.1804 30.185C17.1632 30.1886 17.156 30.1932 17.156 30.2003C17.1232 30.2217 17.1047 30.2596 17.0909 30.3077C17.084 30.3113 17.0615 30.3159 17.0339 30.323L17.0176 30.346L16.8629 30.4841L16.8059 30.5147C16.8025 30.5236 16.7931 30.5411 16.7896 30.5607C16.7672 30.5679 16.7511 30.5684 16.7408 30.5684C16.7373 30.5684 16.7366 30.5763 16.7245 30.5914C16.7124 30.6065 16.6941 30.6208 16.6838 30.6297C16.6734 30.6386 16.6591 30.6567 16.6349 30.6834C16.6108 30.7101 16.5811 30.7273 16.5535 30.7371C16.5259 30.7469 16.5133 30.763 16.5047 30.7754C16.496 30.7879 16.4821 30.7946 16.464 30.8061C16.4458 30.8177 16.4336 30.8279 16.4233 30.8368C16.4129 30.8457 16.401 30.8522 16.3907 30.8522C16.3769 30.8522 16.3663 30.8324 16.3663 30.7985C16.3663 30.7789 16.3858 30.7326 16.4151 30.6604C16.4444 30.5883 16.4647 30.5438 16.4802 30.5224V30.4534L16.4965 30.4381H16.5291C16.536 30.4274 16.5461 30.4052 16.5617 30.3767C16.5789 30.3696 16.5984 30.3497 16.6105 30.323L16.6512 30.2233V30.1696L16.6675 30.162C16.7055 30.1549 16.7245 30.1304 16.7245 30.093C16.7245 30.027 16.6953 29.964 16.6349 29.8936C16.5745 29.8232 16.5365 29.7885 16.521 29.7939C16.5175 29.7939 16.4997 29.7942 16.4721 29.8015L16.3825 29.8322C16.3584 29.8322 16.3402 29.8392 16.3256 29.8552C16.3109 29.8712 16.2952 29.8782 16.2849 29.8782H16.2767C16.2387 29.9192 16.2129 29.9483 16.2034 29.9625C16.1939 29.9768 16.1894 29.9779 16.179 29.9779C16.1652 29.9779 16.1533 29.9814 16.1464 29.9779L16.1057 30.0008C16.0781 30.049 16.0497 30.0775 16.0325 30.0775H16.0162C15.9868 30.0989 15.9708 30.1239 15.9673 30.1542L15.9266 30.1389C15.8938 30.1389 15.8694 30.1542 15.8452 30.1926C15.821 30.2309 15.8079 30.2539 15.8045 30.2539C15.7907 30.2646 15.7801 30.2657 15.7801 30.2692V30.3229C15.7744 30.2997 15.7605 30.2846 15.7312 30.2846C15.6967 30.2846 15.6603 30.314 15.6335 30.3613C15.6068 30.4085 15.5963 30.4303 15.5928 30.4303C15.5773 30.4338 15.5447 30.4501 15.5033 30.484C15.4394 30.5499 15.3942 30.5947 15.3648 30.6143C15.3355 30.6339 15.3149 30.6534 15.2916 30.6757C15.2683 30.698 15.2369 30.7187 15.2102 30.7294C15.1834 30.7401 15.1563 30.7513 15.1287 30.7754C15.1011 30.7994 15.0775 30.8184 15.0473 30.8291C15.0171 30.8398 14.9875 30.8532 14.9659 30.8674C14.9443 30.8817 14.9211 30.891 14.8926 30.8981C14.8642 30.9053 14.8413 30.9172 14.8275 30.9288C14.8137 30.9404 14.8065 30.9441 14.8031 30.9441L14.7705 30.9364C14.7481 30.9471 14.7333 30.9517 14.7298 30.9517C14.6625 30.9517 14.624 30.9401 14.624 30.9134C14.624 30.9027 14.6354 30.8852 14.6484 30.8674C14.6613 30.8496 14.6659 30.8283 14.6728 30.806C14.6797 30.7837 14.6903 30.7748 14.6972 30.7677L14.7135 30.7293C14.7273 30.6991 14.7383 30.6787 14.7461 30.668C14.7538 30.6573 14.7624 30.6562 14.7624 30.6526V30.5989C14.7624 30.5847 14.7767 30.5731 14.8112 30.5606C14.8337 30.5285 14.8544 30.493 14.8682 30.4609L14.8926 30.4456C14.9841 30.3244 15.0395 30.2586 15.0636 30.2462C15.0929 30.198 15.1125 30.1486 15.1125 30.1005C15.1125 30.0826 15.0968 30.039 15.0718 29.9624C15.0467 29.8858 15.0286 29.834 15.0148 29.809L14.9985 29.7707C14.9916 29.6406 14.9392 29.5713 14.8357 29.5713C14.7477 29.5713 14.6715 29.6051 14.6077 29.671C14.5939 29.6889 14.5791 29.7023 14.567 29.7094C14.5549 29.7165 14.546 29.7253 14.5426 29.7324C14.5063 29.7787 14.448 29.8264 14.3634 29.8781L14.3472 29.9088L14.3064 29.9241L14.2739 29.9624C14.2325 29.9767 14.1953 29.999 14.1599 30.0391C14.1245 30.0792 14.0971 30.1042 14.0703 30.1158C14.0436 30.1274 14.0284 30.144 14.0215 30.1618C14.0146 30.1797 13.9921 30.1889 13.9645 30.1925C13.9369 30.1961 13.8938 30.2252 13.8342 30.2769C13.7747 30.3286 13.7447 30.3966 13.7447 30.4839C13.7447 30.5267 13.7595 30.553 13.7854 30.553C13.8302 30.553 13.8585 30.5378 13.8749 30.5146C13.8913 30.4914 13.91 30.4716 13.9238 30.4609L13.9726 30.4533C14.002 30.439 14.0227 30.4303 14.0296 30.4303C14.0503 30.4018 14.0741 30.375 14.0948 30.3536C14.1207 30.3536 14.138 30.3425 14.1518 30.3229C14.1656 30.3033 14.1727 30.294 14.1762 30.2922C14.2297 30.278 14.2635 30.2728 14.2739 30.2693C14.2842 30.2657 14.2926 30.2418 14.3064 30.2079L14.3553 30.1926C14.376 30.1641 14.4001 30.1369 14.4286 30.1236C14.457 30.1102 14.4769 30.1018 14.4856 30.0929C14.4942 30.084 14.5136 30.0724 14.5507 30.0545C14.5878 30.0367 14.6136 30.0196 14.624 30.0009C14.6343 29.9822 14.6398 29.9702 14.6484 29.9702C14.6933 29.9702 14.7135 29.9952 14.7135 30.0469C14.7135 30.054 14.7111 30.068 14.6972 30.0929C14.6869 30.0965 14.6797 30.1149 14.6728 30.1389C14.6659 30.163 14.66 30.1737 14.6565 30.1773L14.624 30.2233C14.6136 30.2571 14.5941 30.2921 14.5751 30.3153C14.5561 30.3385 14.5275 30.396 14.4774 30.4994C14.4671 30.5457 14.4531 30.5786 14.4367 30.5991C14.4203 30.6196 14.4076 30.6426 14.4041 30.6604C14.4007 30.6782 14.3935 30.7082 14.3797 30.7448C14.3659 30.7813 14.3553 30.8356 14.3553 30.9212C14.3553 30.9354 14.3689 30.9613 14.3879 30.9979C14.4068 31.0344 14.4165 31.0696 14.4286 31.1052C14.4406 31.1409 14.4813 31.1769 14.5425 31.2126C14.6038 31.2482 14.6385 31.2663 14.6402 31.2663H14.7135L14.7542 31.2509C14.7594 31.2509 14.7742 31.2539 14.7949 31.2663L14.8519 31.2356L14.9333 31.2203C15.0248 31.1543 15.0772 31.1206 15.0962 31.1206C15.1238 31.1206 15.1369 31.1072 15.1369 31.0822V31.0746L15.1206 31.0516C15.1206 31.0355 15.1325 31.0286 15.1532 31.0286H15.1613H15.1776C15.181 31.0286 15.1959 31.0274 15.2183 31.0133L15.2264 30.9826C15.2299 30.9576 15.2405 30.9442 15.2509 30.9442C15.2543 30.9442 15.2568 30.9525 15.2672 30.9596C15.2775 30.9667 15.2881 30.9672 15.2916 30.9672C15.2985 30.9672 15.3124 30.9588 15.3323 30.9365C15.3521 30.9142 15.3846 30.8778 15.4381 30.8368C15.4916 30.7958 15.5309 30.7598 15.5603 30.7295C15.5896 30.6992 15.6171 30.6811 15.6335 30.6758C15.6499 30.6705 15.6639 30.6536 15.6742 30.6144C15.7018 30.6073 15.7179 30.5907 15.7231 30.5684C15.7283 30.5461 15.7346 30.529 15.7475 30.5147C15.7604 30.5005 15.7719 30.4912 15.7719 30.4841C15.7719 30.4734 15.7672 30.4587 15.7638 30.4534L15.7556 30.415V30.3997C15.7703 30.3846 15.7697 30.3625 15.7719 30.346L15.7638 30.4227C15.7638 30.4352 15.7722 30.4486 15.7964 30.4611C15.8205 30.4736 15.8383 30.4841 15.8452 30.4841C15.8556 30.4841 15.8805 30.4637 15.9185 30.4227L15.951 30.4151C15.9579 30.408 15.9651 30.3899 15.9755 30.3614C15.9789 30.3614 15.9895 30.3661 15.9999 30.3767C16.0103 30.3696 16.0315 30.3636 16.0487 30.3538C16.066 30.3439 16.0744 30.3338 16.0813 30.3231C16.0882 30.3124 16.0983 30.3036 16.1139 30.3001L16.1546 30.2848C16.1718 30.2741 16.1756 30.2694 16.179 30.2694C16.1859 30.2694 16.1953 30.2697 16.1953 30.2771C16.1953 30.2949 16.1822 30.3199 16.1546 30.3538C16.1546 30.368 16.1499 30.3773 16.1464 30.3845C16.1326 30.3755 16.1098 30.4079 16.0813 30.4765C16.0528 30.5451 16.0343 30.5896 16.0162 30.6145C15.9981 30.6395 15.9836 30.6908 15.9836 30.7603C15.9836 30.8012 15.9951 30.8327 16.008 30.8523C16.021 30.8719 16.029 30.8835 16.0325 30.8906C16.1256 31.0849 16.2406 31.1821 16.3907 31.1821C16.4114 31.1821 16.4538 31.153 16.5047 31.0977C16.5556 31.0424 16.5893 31.0133 16.6187 31.0133C16.6445 31.0009 16.6665 30.9707 16.6838 30.9136H16.7326L16.7571 30.8906C16.8037 30.8586 16.8316 30.8161 16.8385 30.7679H16.8792L16.9199 30.7296C16.9441 30.7118 16.9657 30.6928 16.9769 30.6759C16.9881 30.659 17.0122 30.6359 17.0502 30.6146L17.0583 30.5532H17.1072L17.1397 30.5379C17.1432 30.5308 17.1491 30.522 17.156 30.5149C17.1733 30.517 17.1965 30.4835 17.2293 30.4229C17.2672 30.4229 17.3037 30.4052 17.327 30.3615C17.3503 30.3179 17.3773 30.2838 17.4084 30.2695L17.3921 30.3615C17.3921 30.3829 17.3968 30.4051 17.4002 30.4229L17.3677 30.4842C17.3642 30.4914 17.3548 30.496 17.3514 30.4996L17.3595 30.5993C17.3595 30.6013 17.3515 30.6195 17.3351 30.6453C17.3187 30.6711 17.3107 30.6865 17.3107 30.699L17.3188 30.768L17.3025 30.86C17.3025 30.8636 17.3249 30.8929 17.3758 30.9597C17.4267 31.0266 17.4589 31.0691 17.4735 31.0824C17.4882 31.0958 17.506 31.1097 17.5224 31.1284C17.5388 31.1471 17.5527 31.1591 17.5631 31.1591C17.6114 31.1591 17.6465 31.1434 17.6689 31.1131L17.7178 31.0518C17.7298 31.0357 17.737 31.0288 17.7422 31.0288L17.791 31.0211L17.8399 30.9751C17.8571 30.9466 17.8795 30.9207 17.9132 30.8984C17.9468 30.8761 17.9671 30.859 17.9783 30.8447C17.9895 30.8305 17.9993 30.8294 18.0027 30.8294C18.0062 30.8294 18.018 30.834 18.0353 30.8447L18.076 30.7987C18.0881 30.7951 18.1029 30.7941 18.1167 30.7834L18.1248 30.7681C18.1525 30.7395 18.1872 30.6967 18.2225 30.653C18.2255 30.6532 18.2276 30.653 18.2307 30.653C18.2421 30.6392 18.2461 30.6394 18.2551 30.63L18.361 30.5533H18.3772C18.3854 30.5491 18.4005 30.5304 18.4098 30.515L18.4424 30.4843L18.6215 30.3386C18.6387 30.335 18.6501 30.3234 18.6622 30.3003C18.6743 30.2771 18.6937 30.2576 18.7273 30.2389C18.761 30.2202 18.7821 30.2007 18.7925 30.1776C18.8028 30.1544 18.8431 30.1178 18.8983 30.0625C18.9535 30.0073 18.9857 29.9782 18.996 29.9782C19.0012 29.9782 19.0028 29.9921 19.0123 30.0242C19.0218 30.0563 19.0286 30.0761 19.0286 30.0779L19.0204 30.1392C19.0204 30.1428 19.0217 30.1603 19.0286 30.1852L19.0204 30.2082V30.2619L18.996 30.3156C18.996 30.3263 19.0066 30.342 19.0204 30.3616V30.3846C19.0204 30.4024 19.0167 30.4108 18.996 30.4153C18.9753 30.4197 18.9634 30.4299 18.9634 30.4459V30.4843C18.9531 30.511 18.9472 30.5326 18.9472 30.538V30.561L18.8576 30.6837L18.8088 30.7757C18.7967 30.806 18.7895 30.8217 18.7843 30.8217H18.768L18.7518 30.8294C18.7052 30.8721 18.6629 30.8907 18.6215 30.8907C18.6146 30.8907 18.5998 30.882 18.5808 30.8677L18.5401 30.8754C18.5332 30.8754 18.5319 30.8713 18.5319 30.8677C18.5061 30.8356 18.4841 30.8217 18.4668 30.8217C18.453 30.8217 18.4395 30.8263 18.418 30.8371C18.3964 30.8477 18.3807 30.8524 18.3772 30.8524C18.2996 30.8631 18.2497 30.8907 18.2307 30.9291C18.2117 30.9674 18.1982 30.9933 18.1818 31.0057C18.1655 31.0183 18.1574 31.0239 18.1574 31.0364C18.1574 31.0506 18.162 31.0746 18.1818 31.0978C18.2017 31.1209 18.2228 31.1515 18.247 31.1898C18.2711 31.2281 18.3076 31.256 18.3447 31.2818C18.3818 31.3077 18.4481 31.3202 18.5482 31.3202C18.5793 31.3202 18.6186 31.303 18.6703 31.2665C18.7221 31.23 18.7602 31.2128 18.7843 31.2128H18.825C18.8388 31.195 18.8692 31.1728 18.9227 31.1515L18.9634 31.1208C18.9841 31.0994 19.0189 31.0813 19.0611 31.0671C19.1034 31.0528 19.1263 31.0376 19.1263 31.0287L19.1426 30.9981L19.2077 30.9827C19.2457 30.9756 19.282 30.9535 19.3217 30.9214L19.3298 30.9137C19.3419 30.9102 19.3491 30.9097 19.3542 30.9061C19.3594 30.8811 19.3861 30.8631 19.4275 30.8524C19.4344 30.8452 19.4416 30.8249 19.4519 30.791L19.5089 30.7834C19.5106 30.7762 19.5445 30.7425 19.6066 30.6837C19.6083 30.6839 19.6129 30.6837 19.6148 30.6837C19.6191 30.6825 19.6192 30.6775 19.6229 30.676C19.6268 30.6737 19.6267 30.6728 19.6311 30.6684C19.6354 30.6639 19.6484 30.658 19.6555 30.6531C19.6572 30.6504 19.6626 30.6483 19.6636 30.6454C19.6687 30.6421 19.6738 30.641 19.6799 30.6377C19.6926 30.6309 19.6955 30.6183 19.7043 30.6071C19.7184 30.6031 19.7431 30.6034 19.745 30.5994L19.7695 30.5687V30.5611L19.802 30.5458C19.808 30.5407 19.8134 30.5362 19.8183 30.5305C19.8399 30.5017 19.8375 30.5019 19.8509 30.4845C19.8541 30.4847 19.8558 30.4775 19.859 30.4768C19.8766 30.4732 19.891 30.4524 19.9079 30.4231C19.9131 30.4219 19.9113 30.4168 19.916 30.4155C19.9507 30.4056 19.9787 30.3973 19.9893 30.3848C20.0014 30.3706 20.0208 30.3452 20.0544 30.3158C20.0622 30.309 20.0648 30.2996 20.0707 30.2928C20.0798 30.2868 20.0876 30.2719 20.0951 30.2621C20.0994 30.2566 20.1077 30.2535 20.1114 30.2468C20.1321 30.2093 20.1566 30.1908 20.1928 30.1854C20.2412 30.1052 20.2738 30.0663 20.2824 30.0627C20.2928 30.0663 20.2952 30.0668 20.2987 30.0704L20.3231 30.032C20.349 30.0124 20.371 29.9921 20.3882 29.9707C20.4055 29.9493 20.4186 29.94 20.429 29.94C20.4359 29.94 20.4371 29.9441 20.4371 29.9476C20.4129 29.9726 20.4045 29.9824 20.4045 29.986V30.0703L20.3394 30.3004L20.3557 30.3541L20.3394 30.5919L20.3557 30.6455L20.3475 30.7452C20.3475 30.7844 20.3678 30.8764 20.4127 31.0136C20.4575 31.1509 20.5248 31.2207 20.6162 31.2207C20.6335 31.2207 20.6563 31.2056 20.6813 31.1824C20.7064 31.1592 20.7203 31.1374 20.7221 31.1133C20.7237 31.0893 20.725 31.0648 20.7302 31.0443C20.7354 31.0238 20.7383 31.009 20.7383 30.9983C20.7383 30.8718 20.716 30.7819 20.6651 30.7222C20.6142 30.6625 20.5836 30.6034 20.5836 30.5535C20.5836 30.5499 20.593 30.5453 20.5999 30.5382C20.5896 30.4954 20.5836 30.4699 20.5836 30.4538L20.5999 30.3311L20.5918 30.2851C20.6194 30.2263 20.6325 30.1786 20.6325 30.1394V30.1241C20.629 30.1081 20.6325 30.097 20.6325 30.0934C20.6325 30.0881 20.6409 30.0486 20.6651 29.963L20.6569 29.917C20.6569 29.8903 20.6688 29.8694 20.6895 29.848L20.6976 29.825C20.6976 29.8107 20.6924 29.7996 20.6976 29.7943C20.7028 29.789 20.7134 29.7659 20.7221 29.7329C20.7307 29.7 20.7438 29.6703 20.7628 29.6409C20.7817 29.6115 20.8008 29.5892 20.8197 29.5642L20.8686 29.4875C20.8824 29.4768 20.8938 29.4679 20.9093 29.4492C20.9248 29.4305 20.9473 29.4144 20.9663 29.4108L20.9744 29.3955C20.9865 29.3599 21.0098 29.3372 21.0477 29.3265L21.1617 29.1041C21.179 29.0916 21.1943 29.0846 21.1943 29.0811C21.2201 29.0169 21.2552 28.9739 21.3001 28.9507L21.4304 28.9277C21.4563 28.9206 21.4723 28.9124 21.4792 28.9124L21.5362 28.9048C21.6225 28.878 21.6694 28.8664 21.6746 28.8664C21.6867 28.8664 21.7045 28.8582 21.7235 28.8511C21.7424 28.844 21.7632 28.8434 21.7805 28.8434C21.7874 28.8434 21.7886 28.8475 21.7886 28.8511C21.8248 28.8992 21.8468 28.9201 21.8537 28.9201C21.8934 28.9201 21.9362 28.8969 21.9759 28.8434L22.0898 28.6824C22.1002 28.6485 22.1142 28.6171 22.1305 28.5903C22.1469 28.5636 22.155 28.5473 22.155 28.5366C22.155 28.485 22.1305 28.46 22.0736 28.46H22.0573L22.0247 28.4753C21.9643 28.4788 21.9242 28.4908 21.9026 28.5059C21.881 28.5211 21.8688 28.5289 21.8619 28.5289L21.8375 28.5213H21.8049C21.7755 28.5337 21.76 28.5425 21.7479 28.5443C21.7358 28.5463 21.7041 28.5494 21.6583 28.5673C21.6126 28.5851 21.5885 28.5979 21.5851 28.5979C21.573 28.5979 21.5535 28.5933 21.5362 28.5826H21.5281C21.5005 28.5969 21.4814 28.6056 21.4711 28.6056C21.4417 28.6056 21.4222 28.5969 21.4222 28.5826C21.4222 28.5719 21.4278 28.5677 21.4304 28.5596C21.433 28.5516 21.4312 28.53 21.4304 28.5059C21.4295 28.4819 21.4299 28.461 21.4385 28.4369C21.4471 28.4129 21.4548 28.4004 21.4548 28.3986L21.4304 28.2989C21.4131 28.2133 21.3839 28.1683 21.3408 28.1683ZM35.6782 28.1683C35.6454 28.1683 35.5997 28.1979 35.5479 28.2603C35.5324 28.2942 35.5168 28.314 35.4909 28.314C35.4858 28.314 35.4751 28.326 35.4665 28.3447C35.4579 28.3634 35.4489 28.3741 35.4421 28.383C35.4127 28.4472 35.3818 28.4902 35.3525 28.5134C35.3232 28.5366 35.3025 28.57 35.2792 28.6208C35.256 28.6716 35.2361 28.6975 35.2223 28.6974H35.1815C35.1781 28.6975 35.1704 28.6939 35.1653 28.6974C35.1601 28.701 35.1461 28.7133 35.1246 28.7204C35.103 28.7276 35.0751 28.7342 35.0431 28.7511C35.0112 28.768 34.9787 28.7818 34.9373 28.7818H34.9292L34.9048 28.7665L34.8803 28.7972L34.8396 28.8048C34.8189 28.7977 34.8041 28.7972 34.7989 28.7972C34.7644 28.7972 34.7391 28.8001 34.7175 28.8125C34.6959 28.8249 34.6837 28.8355 34.6768 28.8355L34.6361 28.8431C34.6188 28.8503 34.5824 28.8599 34.5384 28.8661C34.4944 28.8723 34.4623 28.8825 34.4407 28.8968C34.4191 28.911 34.401 28.9121 34.3837 28.9121H34.3512L34.2453 28.9351C34.1677 28.9548 34.1212 28.9755 34.0988 28.9888C34.0763 29.0022 34.0603 29.0118 34.0499 29.0118H34.0336L34.0092 28.9964H34.0011L33.8952 29.0425C33.6019 29.071 33.4556 29.1728 33.4556 29.3492C33.4556 29.3813 33.4649 29.4165 33.4882 29.4566C33.5114 29.4967 33.536 29.518 33.5533 29.518L33.5696 29.5103C33.642 29.4444 33.6954 29.4101 33.7161 29.4029L33.9766 29.3262C33.9939 29.3298 34.0057 29.3339 34.0092 29.3339C34.0351 29.3339 34.0761 29.3182 34.1313 29.2879H34.1883C34.2159 29.2701 34.2397 29.2649 34.2535 29.2649H34.2779L34.3837 29.2342C34.4355 29.2004 34.5099 29.1741 34.6117 29.1652L34.7256 29.1575H34.7582C34.7651 29.1575 34.7787 29.1506 34.7908 29.1345C34.8029 29.1185 34.8219 29.1046 34.8478 29.0885C34.8823 29.0992 34.8966 29.1062 34.8966 29.1115L35.0106 29.0578C35.0175 29.065 35.0234 29.0737 35.0269 29.0808C35.0234 29.129 35.0018 29.1799 34.9699 29.2342C34.938 29.2886 34.9169 29.3325 34.9048 29.3646C34.8927 29.3967 34.8403 29.4644 34.7419 29.5793C34.6436 29.6943 34.5755 29.7691 34.5384 29.7941C34.5013 29.819 34.4767 29.8492 34.4733 29.8938L34.4651 29.9091H34.4407L34.4244 29.9168V29.9398L34.4 29.9551C34.3707 29.9551 34.3465 29.9796 34.343 30.0241L34.3349 30.0318C34.3211 30.0318 34.3067 30.0425 34.286 30.0701C34.2653 30.0977 34.2332 30.1324 34.1883 30.1698C34.1435 30.2072 34.1232 30.234 34.1232 30.2465C34.1232 30.2607 34.1084 30.2682 34.0825 30.2772C34.0674 30.2823 34.0591 30.2984 34.0499 30.3078C34.0433 30.3146 34.0291 30.3143 34.0255 30.3231C34.0186 30.3365 34.0114 30.3512 34.0011 30.3615C33.9907 30.3717 33.9823 30.3774 33.9685 30.3845C33.9501 30.3939 33.9421 30.4183 33.9359 30.4458C33.9195 30.4545 33.9008 30.4597 33.8708 30.4842C33.807 30.5501 33.7617 30.595 33.7324 30.6146C33.7031 30.6342 33.6743 30.6536 33.651 30.6759C33.6277 30.6982 33.6045 30.7189 33.5777 30.7296C33.551 30.7403 33.5239 30.7516 33.4963 30.7756C33.4687 30.7997 33.4451 30.8186 33.4149 30.8293C33.3847 30.84 33.355 30.8534 33.3335 30.8676C33.3119 30.8819 33.2887 30.8912 33.2602 30.8983C33.2317 30.9055 33.2089 30.9174 33.1951 30.929C33.1812 30.9406 33.1741 30.9443 33.1706 30.9443L33.1298 30.9366C33.1073 30.9473 33.1007 30.952 33.0972 30.952C33.0299 30.952 32.9913 30.9404 32.9913 30.9136C32.9913 30.9029 33.0028 30.8854 33.0158 30.8676C33.0287 30.8498 33.0333 30.8285 33.0402 30.8063C33.0471 30.784 33.0577 30.7751 33.0646 30.7679L33.0809 30.7296C33.0947 30.6993 33.1057 30.6789 33.1135 30.6682C33.1212 30.6575 33.1297 30.6565 33.1297 30.6529V30.5992C33.1297 30.585 33.1441 30.5733 33.1786 30.5609C33.201 30.5288 33.2218 30.4932 33.2356 30.4612L33.26 30.4459C33.3515 30.3247 33.4069 30.2589 33.431 30.2465C33.4604 30.1983 33.4799 30.1489 33.4799 30.1007C33.4799 30.0829 33.4642 30.0393 33.4392 29.9627C33.4142 29.8861 33.396 29.8343 33.3822 29.8093L33.3659 29.771C33.359 29.6409 33.3066 29.5716 33.2031 29.5716C33.1151 29.5716 33.0389 29.6053 32.9751 29.6713C32.9613 29.6891 32.9465 29.7025 32.9344 29.7096C32.9223 29.7168 32.9134 29.7255 32.91 29.7326C32.8738 29.779 32.8154 29.8266 32.7309 29.8783L32.7146 29.909L32.6739 29.9243L32.6413 29.9627C32.5999 29.9769 32.5627 29.9992 32.5273 30.0393C32.492 30.0794 32.4645 30.1044 32.4378 30.116C32.4111 30.1276 32.3958 30.1442 32.3889 30.162C32.382 30.1799 32.3595 30.1892 32.3319 30.1927C32.3082 30.1957 32.2734 30.2231 32.2261 30.2617C32.2168 30.2525 32.2091 30.2464 32.2017 30.2464C32.1724 30.2464 32.1397 30.2641 32.1121 30.3078C32.0845 30.3515 32.0545 30.3856 32.0226 30.3998C31.9906 30.414 31.9789 30.4294 31.9737 30.4535C31.9685 30.4776 31.9508 30.4918 31.9249 30.4918L31.8842 30.5302C31.8634 30.548 31.8427 30.5725 31.8272 30.5992L31.8027 30.6069C31.7924 30.6104 31.7708 30.6276 31.7458 30.6605C31.7207 30.6935 31.687 30.7153 31.6318 30.7296C31.6197 30.7189 31.6073 30.7021 31.6074 30.6682L31.6237 30.5915L31.6155 30.5225C31.6155 30.5083 31.6253 30.4952 31.6399 30.4765C31.6546 30.4578 31.6562 30.4412 31.6562 30.4305V30.4228L31.6968 30.3155C31.7003 30.2976 31.7062 30.2837 31.7131 30.2694C31.8132 30.1661 31.8596 30.0555 31.8596 29.9397C31.8596 29.8417 31.828 29.794 31.7538 29.794C31.6503 29.794 31.5822 29.8209 31.5503 29.886C31.5183 29.951 31.4942 29.9857 31.477 29.9857C31.4632 29.9857 31.4479 29.9718 31.4444 29.9397C31.434 29.7864 31.3804 29.7096 31.2734 29.7096C31.2631 29.7096 31.2559 29.7137 31.249 29.7173L31.2083 29.7326H31.2002C31.1743 29.7183 31.1582 29.7173 31.1513 29.7173H31.135C31.0505 29.7618 31.0035 29.7786 30.9966 29.7786H30.9804C30.9579 29.7786 30.9215 29.7938 30.8827 29.8169C30.8438 29.8401 30.8092 29.8555 30.7687 29.8706C30.7281 29.8858 30.6866 29.9152 30.6547 29.9473C30.6228 29.9794 30.6081 29.9898 30.5977 29.9933C30.527 30.0308 30.4546 30.0843 30.3942 30.1467L30.3209 30.2234C30.2777 30.2537 30.2469 30.2828 30.2313 30.3078C30.2158 30.3328 30.1921 30.3604 30.1662 30.3845C30.1403 30.4085 30.1319 30.4321 30.1336 30.4535L30.1092 30.4842C30.0988 30.4913 30.0743 30.5195 30.0441 30.5685C30.0139 30.6175 30.0034 30.6457 30.0034 30.6529V30.7296C29.9706 30.7296 29.9545 30.7389 29.9545 30.7602L29.9627 30.8446V30.86C29.9592 30.8671 29.9545 30.8846 29.9545 30.906C29.9545 30.9505 29.9634 30.9884 29.9789 31.0133L30.0034 31.1207C30.0085 31.1581 30.0471 31.186 30.1092 31.2127C30.1713 31.2395 30.2254 31.2588 30.272 31.2588C30.329 31.2588 30.4271 31.2075 30.5651 31.113L30.5814 31.0977C30.6211 31.0763 30.6502 31.0583 30.6709 31.044L30.8663 30.883C30.8905 30.8652 30.9078 30.8416 30.9233 30.814C30.9389 30.7863 30.9524 30.7715 30.9559 30.7679H31.0048L31.0292 30.7449C31.0378 30.7325 31.0556 30.7223 31.078 30.7143C31.1005 30.7062 31.1072 30.6961 31.1106 30.6836L31.1269 30.6683C31.1476 30.6541 31.1619 30.6324 31.1757 30.6146C31.1844 30.5807 31.1945 30.5639 31.2083 30.5532C31.2325 30.5532 31.2553 30.5404 31.2734 30.5226C31.2915 30.5048 31.3072 30.4996 31.3142 30.4996C31.3211 30.4996 31.3223 30.5042 31.3223 30.5149L31.306 30.6453C31.306 30.6525 31.3107 30.6576 31.3142 30.6683C31.3176 30.679 31.3142 30.6901 31.3142 30.699C31.3142 30.7061 31.3176 30.7107 31.3142 30.7143C31.3107 30.7179 31.306 30.7225 31.306 30.7296C31.306 30.7368 31.3137 30.7496 31.3223 30.7603C31.3309 30.771 31.3305 30.7761 31.3305 30.7833L31.3223 30.837C31.3223 30.8726 31.3312 30.9008 31.3467 30.9213C31.3622 30.9418 31.3694 30.9549 31.3711 30.9673C31.3732 30.9798 31.3771 30.995 31.3874 31.0057C31.4167 31.0092 31.4494 31.0153 31.477 31.0287C31.5046 31.042 31.5337 31.0517 31.5665 31.0517C31.5734 31.0517 31.581 31.0461 31.5991 31.0364C31.6172 31.0265 31.6516 31.0164 31.6887 31.0057C31.7258 30.995 31.7528 30.9775 31.7701 30.9597V30.9367C31.7942 30.9295 31.818 30.9226 31.8352 30.9137C31.8628 30.8816 31.8852 30.8636 31.9085 30.86C31.9318 30.8564 31.9525 30.8348 31.9655 30.8063C31.9785 30.7778 32.0008 30.7574 32.0388 30.745L32.0632 30.7143C32.096 30.6911 32.1205 30.669 32.1283 30.6529C32.1361 30.6369 32.1513 30.6212 32.1772 30.6069L32.1934 30.5686L32.2016 30.5456C32.2202 30.5399 32.2329 30.5281 32.2423 30.5149C32.2587 30.4917 32.2773 30.4719 32.2911 30.4612L32.34 30.4536C32.3693 30.4393 32.3901 30.4306 32.397 30.4306C32.4177 30.4021 32.4333 30.3753 32.454 30.3539C32.4799 30.3539 32.5053 30.3428 32.5191 30.3232C32.5329 30.3036 32.5401 30.2943 32.5435 30.2925C32.597 30.2783 32.6309 30.2731 32.6412 30.2695C32.6516 30.266 32.66 30.242 32.6738 30.2082L32.7227 30.1929C32.7434 30.1644 32.7675 30.1372 32.7959 30.1239C32.8244 30.1105 32.8362 30.1021 32.8448 30.0932C32.8534 30.0843 32.881 30.0726 32.9181 30.0548C32.9552 30.037 32.981 30.0199 32.9913 30.0011C33.0017 29.9825 33.0071 29.9705 33.0158 29.9705C33.0606 29.9705 33.0809 29.9955 33.0809 30.0472C33.0809 30.0543 33.0783 30.0683 33.0646 30.0932C33.0542 30.0967 33.0471 30.1152 33.0402 30.1392C33.0333 30.1632 33.0274 30.174 33.0239 30.1775L32.9913 30.2236C32.981 30.2574 32.9615 30.2924 32.9425 30.3156C32.9235 30.3388 32.8867 30.3963 32.8367 30.4996C32.8263 30.546 32.8205 30.5788 32.8041 30.5993C32.7877 30.6199 32.7749 30.6429 32.7715 30.6607C32.768 30.6785 32.7609 30.7085 32.7471 30.7451C32.7333 30.7816 32.7226 30.8359 32.7226 30.9214C32.7226 30.9357 32.7362 30.9616 32.7552 30.9981C32.7742 31.0347 32.7839 31.0699 32.7959 31.1055C32.808 31.1411 32.8487 31.1772 32.9099 31.2129C32.9712 31.2485 32.9977 31.2666 32.9995 31.2666H33.0809L33.1216 31.2512C33.1268 31.2512 33.1416 31.2542 33.1623 31.2666L33.2193 31.2359L33.2926 31.2206C33.384 31.1546 33.4446 31.1209 33.4635 31.1209C33.4912 31.1209 33.5043 31.1075 33.5043 31.0825V31.0749L33.488 31.0519C33.488 31.0358 33.4998 31.0289 33.5206 31.0289H33.5287H33.545C33.5484 31.0289 33.5633 31.0277 33.5857 31.0136L33.5938 30.9829C33.5973 30.9579 33.6079 30.9446 33.6182 30.9446C33.6217 30.9446 33.6242 30.9528 33.6345 30.9599C33.6449 30.9671 33.6555 30.9676 33.6589 30.9676C33.6658 30.9676 33.6798 30.9591 33.6996 30.9369C33.7195 30.9146 33.752 30.8782 33.8055 30.8372C33.859 30.7962 33.8983 30.7601 33.9276 30.7298C33.9569 30.6995 33.9845 30.6815 34.0009 30.6761C34.0172 30.6708 34.0312 30.654 34.0416 30.6148C34.0623 30.6095 34.0742 30.598 34.0823 30.5841C34.1388 30.5634 34.1725 30.5328 34.1881 30.4844C34.2158 30.4864 34.2437 30.453 34.2695 30.3924L34.2777 30.3847C34.3191 30.3847 34.344 30.3597 34.3509 30.308H34.3591C34.3953 30.308 34.4279 30.2841 34.4487 30.2467C34.4694 30.2093 34.4938 30.1907 34.5301 30.1853C34.5784 30.1051 34.611 30.0662 34.6196 30.0626C34.63 30.0662 34.6325 30.0668 34.6359 30.0703L34.6603 30.0319C34.6862 30.0123 34.7082 29.992 34.7255 29.9706C34.7427 29.9492 34.7558 29.9399 34.7662 29.9399C34.7731 29.9399 34.7743 29.944 34.7743 29.9476C34.7502 29.9725 34.7417 29.9823 34.7417 29.9859V30.0703L34.6766 30.3003L34.6929 30.354L34.6766 30.5918L34.6929 30.6454L34.6847 30.7451C34.6847 30.7844 34.705 30.8763 34.7499 31.0136C34.7947 31.1508 34.8701 31.2206 34.9615 31.2206C34.9788 31.2206 34.9935 31.2055 35.0185 31.1823C35.0435 31.1591 35.0575 31.1373 35.0592 31.1133C35.0613 31.0892 35.0703 31.0647 35.0755 31.0442C35.0807 31.0237 35.0755 31.0089 35.0755 30.9982C35.0755 30.8717 35.0531 30.7818 35.0022 30.7221C34.9513 30.6624 34.929 30.6033 34.929 30.5534C34.929 30.5499 34.9301 30.5452 34.9371 30.5381C34.9267 30.4953 34.9208 30.4698 34.9208 30.4537L34.9371 30.331L34.929 30.285C34.9565 30.2262 34.9697 30.1785 34.9697 30.1393V30.124C34.9662 30.108 34.9697 30.0969 34.9697 30.0933C34.9697 30.088 34.9781 30.0485 35.0022 29.963L34.9941 29.9169C34.9941 29.8902 35.0059 29.8693 35.0267 29.8479L35.0348 29.8249C35.0348 29.8107 35.0378 29.7996 35.043 29.7943C35.0481 29.7889 35.0506 29.7659 35.0592 29.7329C35.0679 29.6999 35.081 29.6703 35.1 29.6409C35.1189 29.6115 35.138 29.5891 35.157 29.5642L35.2058 29.4875C35.2196 29.4768 35.231 29.4678 35.2465 29.4491C35.262 29.4304 35.2845 29.4144 35.3035 29.4108L35.3116 29.3954C35.3237 29.3598 35.347 29.3371 35.3849 29.3264L35.507 29.104C35.5243 29.0915 35.5315 29.0846 35.5315 29.081C35.5574 29.0169 35.5924 28.9738 35.6373 28.9506L35.7676 28.9277C35.7935 28.9205 35.8095 28.9123 35.8164 28.9123L35.8816 28.9047C35.9678 28.878 36.0148 28.8664 36.02 28.8664C36.032 28.8664 36.0417 28.8581 36.0607 28.851C36.0796 28.8439 36.1004 28.8433 36.1177 28.8433C36.1246 28.8433 36.1258 28.8474 36.1258 28.851C36.1621 28.8991 36.184 28.92 36.1909 28.92C36.2306 28.92 36.2734 28.8968 36.3131 28.8433L36.4271 28.6823C36.4374 28.6484 36.4514 28.617 36.4678 28.5902C36.4841 28.5635 36.4922 28.5473 36.4922 28.5366C36.4922 28.4849 36.4677 28.4599 36.4108 28.4599H36.4026L36.3619 28.4752C36.3015 28.4788 36.2614 28.4907 36.2398 28.5059C36.2182 28.521 36.206 28.5289 36.1991 28.5289L36.1747 28.5212H36.1421C36.1128 28.5337 36.0972 28.5425 36.0851 28.5442C36.073 28.5463 36.0413 28.5494 35.9955 28.5672C35.9498 28.585 35.9257 28.5979 35.9223 28.5979C35.9102 28.5979 35.8988 28.5933 35.8816 28.5826H35.8653C35.8377 28.5968 35.8186 28.6056 35.8083 28.6056C35.779 28.6056 35.7594 28.5968 35.7594 28.5826C35.7594 28.5719 35.765 28.5676 35.7676 28.5596C35.7702 28.5516 35.7682 28.53 35.7676 28.5059C35.767 28.4819 35.7752 28.461 35.7839 28.4369C35.7925 28.4129 35.792 28.4003 35.792 28.3986L35.7676 28.2989C35.7503 28.2133 35.7213 28.1683 35.6782 28.1683ZM25.5012 28.406C25.5081 28.406 25.5093 28.431 25.5093 28.4827C25.5093 28.5201 25.5086 28.5469 25.493 28.5594C25.4775 28.5719 25.4576 28.6062 25.436 28.6668C25.4145 28.7274 25.3869 28.7722 25.3628 28.7971C25.3386 28.8221 25.3217 28.8357 25.3139 28.8508C25.3062 28.866 25.291 28.8919 25.2651 28.9275C25.2392 28.9632 25.2244 28.9917 25.2244 29.0042C25.195 29.0327 25.1786 29.0592 25.1674 29.0886C25.1562 29.118 25.1409 29.1346 25.1185 29.1346C25.0995 29.1524 25.0644 29.196 25.0127 29.2726C24.9954 29.3172 24.97 29.3458 24.9475 29.3493L24.9801 29.2726L25.0127 29.2113C25.0127 29.206 25.0275 29.1916 25.0534 29.1729C25.0793 29.1542 25.086 29.1347 25.086 29.1116V29.0579L25.1104 29.0426C25.1156 29.0123 25.1262 28.9873 25.1348 28.9659L25.1674 28.9276C25.1881 28.899 25.2097 28.8801 25.2244 28.8739C25.239 28.8676 25.2457 28.8482 25.2569 28.8125C25.2681 28.7769 25.2957 28.7274 25.3302 28.6668L25.4198 28.5134C25.4456 28.4813 25.4608 28.4572 25.4686 28.4367C25.4764 28.4162 25.4856 28.406 25.5012 28.406ZM41.0516 29.5717C40.9636 29.5717 40.8875 29.6055 40.8237 29.6714C40.8099 29.6892 40.795 29.7027 40.783 29.7098C40.7709 29.7169 40.762 29.7257 40.7585 29.7328C40.7223 29.7791 40.664 29.8268 40.5794 29.8785L40.5632 29.9091L40.5225 29.9245L40.4899 29.9628C40.4485 29.977 40.4113 29.9994 40.3759 30.0395C40.3405 30.0796 40.3131 30.1046 40.2863 30.1162C40.273 30.122 40.2622 30.1318 40.2538 30.1392C40.2497 30.1235 40.2383 30.1162 40.2212 30.1162C40.2108 30.1162 40.1972 30.1235 40.1886 30.1315C40.18 30.1395 40.1724 30.1483 40.156 30.1545C40.1397 30.1607 40.1269 30.1784 40.1234 30.2159L40.0095 30.2926C39.9819 30.3015 39.9688 30.3195 39.9688 30.3462V30.3692C39.9722 30.3799 39.9688 30.3851 39.9688 30.3922C39.9688 30.3994 39.9673 30.3999 39.9606 30.3999C39.9537 30.3999 39.9525 30.3929 39.9525 30.3769C39.9525 30.3608 39.9465 30.3539 39.9362 30.3539C39.9293 30.3539 39.9213 30.3603 39.9118 30.3692C39.9023 30.3781 39.887 30.3897 39.8629 30.4076C39.8387 30.4254 39.8142 30.4484 39.7978 30.4689C39.7814 30.4894 39.7649 30.496 39.7408 30.4996C39.7166 30.5031 39.6933 30.5201 39.6838 30.5379C39.6743 30.5557 39.6557 30.5682 39.6187 30.5763C39.5816 30.5843 39.5498 30.6066 39.5291 30.653L39.521 30.6606H39.4884C39.4763 30.6606 39.4615 30.6694 39.4477 30.6836L39.4232 30.6989C39.4094 30.7061 39.3976 30.7235 39.3907 30.745L39.3662 30.7603C39.3473 30.7603 39.3258 30.7696 39.293 30.791C39.2602 30.8124 39.2318 30.8333 39.2197 30.86L39.1953 30.8524C39.1745 30.8595 39.1649 30.86 39.1546 30.86C39.1218 30.86 39.0853 30.8728 39.0569 30.8907C39.0284 30.9085 39.0001 30.9137 38.9673 30.9137L38.8452 30.9367C38.7537 30.9367 38.7068 30.9117 38.7068 30.86C38.7068 30.8564 38.7079 30.8392 38.7149 30.8063C38.7218 30.7733 38.7278 30.7433 38.7312 30.7219C38.7588 30.7041 38.7867 30.6913 38.8126 30.6913L38.8615 30.6376L38.8859 30.6453L38.9266 30.6146C38.9542 30.611 38.9673 30.5976 38.9673 30.5762C38.9673 30.5567 38.9699 30.5327 38.9836 30.5149C39.0043 30.522 39.0208 30.5303 39.0243 30.5303C39.0467 30.5303 39.0907 30.4965 39.1546 30.4305C39.1821 30.4305 39.1948 30.4154 39.2034 30.3922C39.212 30.369 39.2311 30.3505 39.2604 30.3309L39.3092 30.3385C39.342 30.269 39.3712 30.2311 39.3988 30.2311C39.4057 30.2311 39.4116 30.2344 39.4151 30.2388C39.4185 30.2433 39.4244 30.2464 39.4313 30.2464C39.4417 30.2464 39.4556 30.2404 39.472 30.2235C39.4884 30.2065 39.5054 30.1931 39.5209 30.1851C39.5364 30.1771 39.5567 30.154 39.586 30.1238C39.6188 30.1166 39.6611 30.0888 39.7163 30.0317C39.7715 29.9747 39.7977 29.9183 39.7977 29.863C39.7977 29.8327 39.7808 29.799 39.7489 29.7633C39.7169 29.7277 39.6891 29.7096 39.6512 29.7096C39.6201 29.7096 39.5913 29.705 39.5697 29.6943C39.5482 29.6836 39.5359 29.679 39.529 29.679H39.415C39.3823 29.679 39.3527 29.6895 39.3174 29.7019C39.282 29.7144 39.2502 29.7173 39.2278 29.7173L39.1871 29.7097C39.1836 29.7097 39.1824 29.7138 39.1789 29.7173C39.1686 29.7315 39.1431 29.7455 39.1138 29.7633C38.9982 29.8061 38.928 29.8363 38.9021 29.863L38.8777 29.909C38.8242 29.9393 38.7916 29.9754 38.7881 30.0164C38.7847 30.0574 38.7644 30.0819 38.723 30.0854L38.666 30.1314C38.6419 30.1813 38.6241 30.211 38.6172 30.2235L38.5602 30.3385C38.5498 30.3688 38.5426 30.3868 38.5358 30.3922L38.495 30.5302C38.4916 30.5445 38.4799 30.564 38.4462 30.5916C38.4125 30.6192 38.3892 30.6724 38.3892 30.7526C38.3892 30.7812 38.4075 30.8001 38.4299 30.8063C38.4523 30.8125 38.4684 30.8227 38.4788 30.837C38.5184 30.9635 38.537 31.0287 38.5439 31.0287L38.5765 31.0211C38.5972 31.1013 38.6323 31.1438 38.6823 31.1438C38.6944 31.1491 38.7105 31.1543 38.7312 31.1668C38.7519 31.1792 38.7709 31.1898 38.7882 31.1898C38.8192 31.1898 38.8513 31.1851 38.8859 31.1744L38.9347 31.1514C38.9382 31.1514 38.9406 31.1602 38.951 31.1744C38.9613 31.1886 38.9732 31.1974 38.9835 31.1974L39.0568 31.1898C39.062 31.1898 39.0721 31.1833 39.0894 31.1745L39.3092 31.0901C39.3455 31.0651 39.3704 31.0553 39.3825 31.0517C39.3946 31.0482 39.4035 31.04 39.4069 31.0364C39.4242 31.0204 39.4478 31.0111 39.4883 31.0057C39.5289 31.0004 39.553 30.9791 39.5616 30.9444C39.5702 30.9096 39.588 30.8984 39.6105 30.8984H39.6593L39.6756 30.8907C39.6911 30.8693 39.7215 30.8466 39.7733 30.8217C39.7871 30.8057 39.7934 30.7894 39.7977 30.768C39.802 30.7466 39.813 30.7297 39.8303 30.7297C39.8372 30.7297 39.8466 30.7338 39.8466 30.7373L39.8628 30.7603C39.8698 30.7603 39.8833 30.7515 39.8954 30.7373C39.9075 30.7231 39.9189 30.7091 39.9361 30.6913L40.0257 30.5839C40.036 30.5679 40.0483 30.5595 40.0664 30.5533C40.0845 30.5471 40.1086 30.5258 40.1397 30.4919H40.1559C40.1663 30.4893 40.1729 30.4758 40.1804 30.4536H40.1885C40.2178 30.4393 40.2386 30.4306 40.2455 30.4306C40.2662 30.4021 40.2818 30.3753 40.3025 30.3539C40.3283 30.3539 40.3538 30.3428 40.3676 30.3232C40.3814 30.3036 40.3886 30.2943 40.392 30.2925C40.4455 30.2783 40.4794 30.2731 40.4897 30.2695C40.5001 30.266 40.5085 30.242 40.5223 30.2082L40.563 30.1929C40.5837 30.1644 40.6078 30.1372 40.6363 30.1239C40.6648 30.1105 40.6846 30.1021 40.6933 30.0932C40.7019 30.0843 40.7295 30.0726 40.7665 30.0548C40.8037 30.037 40.8213 30.0199 40.8317 30.0011C40.8421 29.9825 40.8556 29.9705 40.8643 29.9705C40.9091 29.9705 40.9294 29.9955 40.9294 30.0472C40.9294 30.0543 40.9268 30.0683 40.9131 30.0932C40.9028 30.0967 40.8956 30.1151 40.8887 30.1392C40.8818 30.1632 40.8758 30.174 40.8724 30.1775L40.8317 30.2236C40.8213 30.2574 40.81 30.2924 40.791 30.3156C40.772 30.3387 40.7352 30.3963 40.6852 30.4996C40.6748 30.546 40.6609 30.5788 40.6445 30.5993C40.6281 30.6199 40.6235 30.6429 40.62 30.6607C40.6166 30.6785 40.6094 30.7085 40.5956 30.745C40.5818 30.7816 40.5712 30.8359 40.5712 30.9214C40.5712 30.9357 40.5848 30.9616 40.6038 30.9981C40.6227 31.0347 40.6324 31.0699 40.6445 31.1055C40.6565 31.1411 40.6972 31.1772 40.7585 31.2129C40.8197 31.2485 40.8463 31.2665 40.848 31.2665H40.9294L40.9701 31.2512C40.9753 31.2512 40.982 31.2542 41.0027 31.2665L41.0679 31.2359L41.1411 31.2205C41.2326 31.1546 41.2931 31.1208 41.3121 31.1208C41.3397 31.1208 41.3528 31.1075 41.3528 31.0825V31.0748L41.3365 31.0518C41.3365 31.0358 41.3484 31.0289 41.3691 31.0289H41.3773H41.3935C41.397 31.0289 41.4118 31.0277 41.4342 31.0135L41.4424 30.9829C41.4458 30.9579 41.4483 30.9445 41.4587 30.9445C41.4621 30.9445 41.4727 30.9527 41.4831 30.9598C41.4935 30.967 41.5041 30.9675 41.5075 30.9675C41.5144 30.9675 41.5202 30.9591 41.5401 30.9368C41.5599 30.9145 41.6006 30.8781 41.6541 30.8371C41.7076 30.7961 41.7469 30.76 41.7762 30.7297C41.8055 30.6995 41.8331 30.6814 41.8495 30.6761C41.8658 30.6708 41.8798 30.6539 41.8902 30.6147C41.9178 30.6076 41.9338 30.591 41.939 30.5687C41.9442 30.5464 41.9505 30.5293 41.9634 30.515C41.9764 30.5008 41.9797 30.4915 41.9797 30.4843C41.9797 30.4736 41.9832 30.459 41.9797 30.4537L41.9716 30.4153V30.4C41.9889 30.3822 41.996 30.3583 41.996 30.3387C41.996 30.303 41.9834 30.285 41.9471 30.285C41.9126 30.285 41.8762 30.3144 41.8494 30.3617C41.8227 30.4089 41.8122 30.4307 41.8087 30.4307C41.7932 30.4342 41.7606 30.4505 41.7192 30.4844C41.6553 30.5503 41.6101 30.5951 41.5808 30.6147C41.5514 30.6343 41.5226 30.6538 41.4994 30.6761C41.4761 30.6984 41.4528 30.7191 41.4261 30.7298C41.3993 30.7405 41.3723 30.7517 41.3447 30.7758C41.3171 30.7998 41.2853 30.8188 41.2551 30.8295C41.2249 30.8402 41.2034 30.8536 41.1818 30.8678C41.1603 30.882 41.137 30.8914 41.1086 30.8985C41.0801 30.9057 41.0572 30.9176 41.0434 30.9292C41.0296 30.9408 41.0224 30.9445 41.019 30.9445L40.9783 30.9368C40.9559 30.9475 40.9492 30.9521 40.9457 30.9521C40.8784 30.9521 40.8399 30.9405 40.8399 30.9138C40.8399 30.9031 40.8514 30.8856 40.8643 30.8678C40.8773 30.85 40.8818 30.8287 40.8887 30.8064C40.8956 30.7841 40.9063 30.7752 40.9131 30.7681L40.9294 30.7297C40.9432 30.6995 40.9542 30.6791 40.962 30.6684C40.9698 30.6577 40.9783 30.6566 40.9783 30.6531V30.5994C40.9783 30.5852 40.9926 30.5735 41.0271 30.561C41.0495 30.529 41.0703 30.4934 41.0841 30.4613L41.1085 30.446C41.1999 30.3248 41.2553 30.2591 41.2795 30.2466C41.3088 30.1985 41.3283 30.149 41.3283 30.1009C41.3283 30.0831 41.3126 30.0395 41.2876 29.9628C41.2626 29.8862 41.2444 29.8344 41.2306 29.8095L41.2143 29.7711C41.2075 29.641 41.1552 29.5717 41.0516 29.5717ZM22.3259 29.6791C22.2932 29.6791 22.2555 29.6896 22.2201 29.7021C22.1847 29.7146 22.1611 29.7174 22.1387 29.7174L22.098 29.7097C22.0945 29.7097 22.0852 29.7139 22.0817 29.7174C22.0713 29.7316 22.054 29.7456 22.0247 29.7634C21.9091 29.8062 21.8389 29.8364 21.813 29.8631L21.7805 29.9091C21.727 29.9394 21.7025 29.9755 21.699 30.0165C21.6956 30.0575 21.6672 30.0819 21.6258 30.0855L21.5769 30.1315C21.5528 30.1814 21.535 30.2111 21.5281 30.2235L21.4711 30.3386C21.4607 30.3689 21.4454 30.3869 21.4385 30.3923L21.4059 30.5303C21.4025 30.5445 21.3826 30.564 21.349 30.5917C21.3153 30.6193 21.3001 30.6725 21.3001 30.7527C21.3001 30.7812 21.3102 30.8002 21.3327 30.8064C21.3551 30.8126 21.3712 30.8228 21.3815 30.8371C21.4212 30.9636 21.4479 31.0288 21.4548 31.0288L21.4792 31.0211C21.4999 31.1014 21.5432 31.1439 21.5932 31.1439C21.6053 31.1492 21.6213 31.1544 21.6421 31.1668C21.6628 31.1793 21.6818 31.1898 21.699 31.1898C21.7301 31.1898 21.7622 31.1852 21.7967 31.1745L21.8375 31.1515C21.8409 31.1515 21.8515 31.1603 21.8619 31.1745C21.8722 31.1888 21.8841 31.1975 21.8944 31.1975L21.9677 31.1899C21.9729 31.1899 21.983 31.1834 22.0003 31.1745L22.212 31.0901C22.2482 31.0652 22.2732 31.0554 22.2852 31.0518C22.2973 31.0482 22.3062 31.04 22.3097 31.0365C22.3269 31.0204 22.3587 31.0112 22.3992 31.0058C22.4398 31.0005 22.4639 30.9792 22.4725 30.9445C22.4811 30.9097 22.4989 30.8984 22.5213 30.8984H22.5621L22.5783 30.8908C22.5939 30.8694 22.6324 30.8467 22.6842 30.8218C22.698 30.8057 22.7043 30.7895 22.7086 30.7681C22.7129 30.7467 22.7239 30.7297 22.7412 30.7297C22.7481 30.7297 22.7493 30.7339 22.7493 30.7374L22.7737 30.7604C22.7806 30.7604 22.7861 30.7516 22.7982 30.7374C22.8102 30.7232 22.8298 30.7092 22.847 30.6914L22.9366 30.584C22.9469 30.568 22.9592 30.5596 22.9773 30.5533C22.9954 30.5471 23.0195 30.5258 23.0506 30.492H23.0668C23.0806 30.4884 23.0908 30.469 23.0994 30.4306C23.108 30.3923 23.1156 30.365 23.132 30.3463C23.1484 30.3276 23.1564 30.311 23.1564 30.3003L23.1483 30.2236L23.1564 30.1545C23.1564 30.1278 23.1463 30.1162 23.1238 30.1162C23.1135 30.1162 23.108 30.1235 23.0994 30.1315C23.0908 30.1396 23.0751 30.1483 23.0587 30.1545C23.0423 30.1607 23.0377 30.1785 23.0343 30.2159L22.9122 30.2926C22.8845 30.3015 22.8714 30.3195 22.8714 30.3462V30.3692C22.8749 30.3799 22.8796 30.3851 22.8796 30.3922C22.8796 30.3994 22.8783 30.3999 22.8714 30.3999C22.8645 30.3999 22.8552 30.3929 22.8552 30.3769C22.8552 30.3609 22.8492 30.3539 22.8389 30.3539C22.832 30.3539 22.8239 30.3603 22.8145 30.3692C22.805 30.3781 22.7898 30.3897 22.7656 30.4076C22.7414 30.4254 22.725 30.4484 22.7086 30.4689C22.6922 30.4894 22.6676 30.496 22.6435 30.4996C22.6193 30.5031 22.6041 30.5201 22.5946 30.5379C22.5851 30.5557 22.5585 30.5682 22.5214 30.5763C22.4843 30.5843 22.4606 30.6066 22.4399 30.653L22.4318 30.6606H22.3911C22.379 30.6606 22.3642 30.6694 22.3504 30.6836L22.3341 30.6989C22.3203 30.7061 22.3084 30.7235 22.3015 30.745L22.2771 30.7603C22.2581 30.7603 22.2285 30.7696 22.1957 30.7909C22.1629 30.8123 22.1426 30.8332 22.1306 30.86L22.1061 30.8523C22.0854 30.8595 22.0676 30.86 22.0573 30.86C22.0245 30.86 21.9962 30.8728 21.9677 30.8906C21.9393 30.9085 21.9028 30.9136 21.87 30.9136L21.7479 30.9366C21.6564 30.9366 21.6095 30.9116 21.6095 30.8599C21.6095 30.8564 21.6189 30.8392 21.6258 30.8062C21.6327 30.7733 21.6386 30.7433 21.6421 30.7219C21.6697 30.7041 21.6895 30.6912 21.7153 30.6912L21.7723 30.6375L21.7968 30.6452L21.8293 30.6145C21.8569 30.6109 21.87 30.5975 21.87 30.5762C21.87 30.5566 21.8807 30.5326 21.8945 30.5148C21.9152 30.522 21.9236 30.5301 21.927 30.5301C21.9495 30.5301 21.9934 30.4964 22.0573 30.4304C22.0849 30.4304 22.1056 30.4153 22.1143 30.3921C22.1229 30.3689 22.1419 30.3503 22.1713 30.3307L22.212 30.3384C22.2448 30.2689 22.2821 30.231 22.3097 30.231C22.3166 30.231 22.3144 30.2343 22.3178 30.2387C22.3213 30.2431 22.3272 30.2463 22.3341 30.2463C22.3445 30.2463 22.3584 30.2403 22.3748 30.2233C22.3912 30.2064 22.4081 30.193 22.4237 30.185C22.4392 30.1769 22.4595 30.1539 22.4888 30.1236C22.5216 30.1165 22.572 30.0886 22.6272 30.0316C22.6824 29.9746 22.7086 29.9181 22.7086 29.8629C22.7086 29.8326 22.6917 29.7988 22.6598 29.7632C22.6278 29.7275 22.5919 29.7095 22.5539 29.7095C22.5229 29.7095 22.4941 29.7049 22.4725 29.6941C22.4509 29.6834 22.4387 29.6788 22.4318 29.6788L22.3259 29.6791ZM36.1504 29.8401C36.1142 29.8401 36.0897 29.867 36.069 29.9168C36.0482 29.9667 36.0055 30.001 35.9469 30.0242L35.9306 30.0549C35.8909 30.0569 35.8481 30.0706 35.8085 30.1009C35.7688 30.1312 35.7197 30.16 35.6619 30.1929C35.6041 30.2259 35.5716 30.2675 35.5561 30.3156L35.4991 30.469C35.4991 30.5332 35.5211 30.5687 35.5642 30.5687H35.5805C35.6133 30.5437 35.6335 30.5263 35.6456 30.5227C35.6577 30.5191 35.6619 30.5104 35.6619 30.4997C35.6826 30.4658 35.7016 30.4455 35.7189 30.4383C35.7361 30.4312 35.7848 30.4016 35.8573 30.3463L35.898 30.354C35.9308 30.3059 35.9523 30.2808 35.9713 30.2773C35.9902 30.2737 36.0258 30.2493 36.069 30.2083L36.0771 30.2236C36.0771 30.2308 36.0597 30.2543 36.0364 30.2926C36.0131 30.331 36.0056 30.3524 36.0038 30.3693C36.0018 30.3863 35.9962 30.4064 35.9876 30.4154C35.9789 30.4243 35.9713 30.4277 35.9713 30.4383C35.9713 30.4758 35.9701 30.4997 35.9631 30.4997H35.9306C35.9237 30.5033 35.9105 30.5163 35.8899 30.5457C35.8691 30.5751 35.8446 30.5973 35.8247 30.6071C35.8049 30.6169 35.8003 30.6299 35.8003 30.6531V30.6761L35.7921 30.6837C35.7179 30.7015 35.6782 30.8157 35.6782 31.0135C35.6782 31.0402 35.6955 31.0672 35.7189 31.1055C35.7422 31.1438 35.7569 31.1692 35.7759 31.1746C35.7948 31.1799 35.8118 31.1828 35.8247 31.1899C35.8377 31.197 35.8504 31.2052 35.8573 31.2052C35.8728 31.2052 35.8918 31.1766 35.9143 31.1285C35.9298 31.1232 35.9424 31.1106 35.9631 31.0901C35.9838 31.0696 36.0004 31.0595 36.0038 31.0595H36.0282L36.0364 31.0518C36.045 31.0268 36.0574 31.0152 36.0608 31.0135C36.1057 31.0081 36.1319 30.9906 36.1422 30.9674C36.1526 30.9086 36.1686 30.8831 36.1911 30.8831C36.1945 30.8831 36.2123 30.8924 36.2399 30.9138C36.2727 30.8746 36.2853 30.8524 36.2888 30.8524C36.3198 30.831 36.3376 30.8135 36.3376 30.8064C36.3376 30.7654 36.3469 30.7495 36.3702 30.745C36.3935 30.7406 36.4324 30.7088 36.4842 30.6607C36.5359 30.6126 36.5986 30.5617 36.6633 30.5073C36.728 30.4529 36.7529 30.4283 36.7529 30.4229C36.7736 30.4087 36.7948 30.3917 36.8017 30.3846L36.818 30.3692C36.8473 30.3603 36.8646 30.3492 36.875 30.3386C36.8957 30.3386 36.9211 30.3307 36.9401 30.3156C36.9591 30.3004 36.9912 30.2851 37.0378 30.2619L37.0541 30.2542C37.0748 30.2347 37.0891 30.2235 37.1029 30.2235C37.134 30.2235 37.1518 30.2475 37.1518 30.2849L37.1436 30.3463L37.1599 30.4153L37.1436 30.5456C37.1436 30.5528 37.1466 30.5629 37.1518 30.5763C37.1569 30.5897 37.1599 30.5999 37.1599 30.607C37.1599 30.6142 37.1493 30.6234 37.1355 30.6377C37.1459 30.6627 37.1518 30.683 37.1518 30.699C37.1518 30.7275 37.1586 30.7561 37.168 30.7757C37.1775 30.7953 37.1843 30.801 37.1843 30.8064V30.814C37.1688 30.8461 37.1599 30.8642 37.1599 30.8677C37.1599 30.8713 37.1601 30.8815 37.168 30.8984C37.1758 30.9153 37.1843 30.9296 37.1843 30.9368C37.1878 30.9546 37.2042 30.9939 37.2413 31.0518C37.2784 31.1097 37.3067 31.1435 37.3309 31.1515C37.355 31.1595 37.3808 31.1679 37.4041 31.1822C37.4274 31.1964 37.4473 31.2052 37.4611 31.2052L37.51 31.1898L37.5833 31.2052C37.5936 31.2052 37.6037 31.2005 37.6158 31.1898L37.6484 31.1591C37.7071 31.1271 37.7422 31.0933 37.7543 31.0594L37.7787 31.0518H37.8194C37.8349 31.0393 37.8438 31.023 37.8438 30.9981L37.9415 30.9061C37.9553 30.8919 37.9731 30.8784 37.9904 30.8677L38.0636 30.8294L38.1939 30.6837C38.2388 30.6356 38.27 30.6013 38.2916 30.5763C38.3132 30.5513 38.3242 30.524 38.3242 30.4919L38.316 30.3999L38.3404 30.3462C38.3404 30.3266 38.3256 30.3232 38.2997 30.3232C38.2825 30.3232 38.2617 30.3307 38.2427 30.3539L38.2265 30.3846L38.1939 30.3999L38.1288 30.4536C38.0632 30.4946 38.0124 30.5278 37.9822 30.5456C37.952 30.5634 37.9338 30.5884 37.9252 30.6223C37.8976 30.6437 37.8845 30.6687 37.8845 30.699C37.8811 30.7026 37.8798 30.7067 37.8764 30.7067L37.8519 30.6913H37.8357C37.8132 30.6913 37.7972 30.7088 37.7868 30.7374C37.7523 30.773 37.7273 30.7916 37.7135 30.7987C37.698 30.829 37.6807 30.8529 37.6566 30.8601L37.5751 30.8831C37.5665 30.8831 37.5499 30.8609 37.5344 30.8217L37.4856 30.7143V30.6837C37.4856 30.6694 37.4932 30.6642 37.5018 30.6607C37.5364 30.6286 37.5507 30.568 37.5507 30.4843L37.5425 30.4383L37.567 30.2849V30.2772L37.5588 30.2082V30.1545C37.5588 30.11 37.5365 30.0512 37.4856 29.9781C37.4347 29.9051 37.3619 29.8708 37.2739 29.8708C37.2618 29.8708 37.2424 29.8804 37.2088 29.8938C37.1751 29.9071 37.1527 29.9114 37.1355 29.9167C37.1182 29.9221 37.1064 29.9285 37.1029 29.9321L37.0622 29.955L37.0296 29.9627C36.9968 29.9894 36.9659 30.011 36.9401 30.0164C36.9142 30.0217 36.8904 30.0292 36.8749 30.0471C36.8594 30.0649 36.832 30.087 36.7854 30.1084L36.7609 30.1468L36.7365 30.1697C36.7261 30.1804 36.6982 30.192 36.6551 30.2081C36.612 30.2241 36.5828 30.2573 36.5655 30.3001C36.5621 30.309 36.5464 30.3183 36.5248 30.3308C36.5033 30.3433 36.4851 30.354 36.4678 30.3691C36.4506 30.3843 36.4375 30.3921 36.4271 30.3921C36.4099 30.3921 36.4027 30.3834 36.4027 30.3691C36.4027 30.3531 36.4145 30.3322 36.4353 30.3001C36.4457 30.2556 36.4516 30.2177 36.4516 30.1928L36.4434 30.1237C36.4434 30.081 36.4202 30.0195 36.3701 29.9473C36.3201 29.8752 36.2453 29.8401 36.1504 29.8401ZM22.3422 29.9015C22.375 29.9015 22.3911 29.9108 22.3911 29.9322C22.3911 29.9429 22.3724 29.9522 22.3422 29.9628C22.312 29.9735 22.2901 30.0068 22.2608 30.0549L22.2282 30.0625C22.2144 30.0803 22.1997 30.0975 22.1713 30.1162C22.1428 30.1349 22.1259 30.1474 22.1224 30.1546L22.098 30.1775C22.0445 30.2132 22.0043 30.2446 21.9759 30.2696C21.9474 30.2946 21.9191 30.3149 21.8863 30.3309L21.7967 30.3693C21.7864 30.3693 21.7805 30.3647 21.7805 30.354C21.7805 30.3433 21.7957 30.3026 21.8293 30.2313C21.863 30.16 21.8951 30.1178 21.927 30.1009C21.9589 30.084 21.9911 30.0595 22.0247 30.0319C22.0584 30.0042 22.0829 29.9894 22.0898 29.9859L22.1224 29.9706L22.1631 29.9629C22.1942 29.9415 22.2132 29.9246 22.2201 29.9246H22.2771C22.3047 29.9067 22.3284 29.9015 22.3422 29.9015ZM39.4315 29.9015C39.4642 29.9015 39.4885 29.9108 39.4885 29.9322C39.4885 29.9429 39.4698 29.9522 39.4396 29.9628C39.4094 29.9735 39.3794 30.0068 39.35 30.0549L39.3256 30.0625C39.3118 30.0803 39.289 30.0975 39.2605 30.1162C39.232 30.1349 39.2151 30.1474 39.2116 30.1546L39.1954 30.1775C39.1419 30.2132 39.1017 30.2446 39.0732 30.2696C39.0448 30.2946 39.0083 30.3149 38.9755 30.3309L38.886 30.3693C38.8756 30.3693 38.8778 30.3646 38.8778 30.354C38.8778 30.3433 38.893 30.3026 38.9267 30.2313C38.9603 30.16 38.9925 30.1178 39.0244 30.1009C39.0563 30.0839 39.0884 30.0595 39.1221 30.0319C39.1557 30.0042 39.1722 29.9894 39.1791 29.9859L39.2117 29.9705L39.2605 29.9629C39.2916 29.9415 39.3106 29.9245 39.3175 29.9245H39.3745C39.4021 29.9067 39.4177 29.9015 39.4315 29.9015ZM24.2881 29.9398C24.3105 29.9398 24.3278 29.945 24.3451 29.9628C24.3451 29.9718 24.3206 30.0189 24.2636 30.1009C24.2067 30.1829 24.1716 30.2282 24.1578 30.2389C24.1492 30.2817 24.1301 30.3126 24.1008 30.3233L24.0845 30.354L24.052 30.3846L24.0438 30.4153C24.0438 30.426 24.0396 30.4371 24.0275 30.446C24.0155 30.4549 24.0083 30.4592 24.0031 30.469C23.9979 30.4788 23.9835 30.4866 23.9705 30.492C23.9576 30.4973 23.9459 30.518 23.9217 30.5457C23.8975 30.5733 23.8712 30.5904 23.8566 30.5993C23.8419 30.6082 23.8403 30.6152 23.8403 30.6223L23.8159 30.6453C23.8124 30.6453 23.8005 30.6505 23.7833 30.6683C23.7781 30.6704 23.7557 30.6978 23.71 30.745C23.6643 30.7922 23.6301 30.821 23.6042 30.837C23.5783 30.8531 23.5588 30.8641 23.5553 30.8677C23.4949 30.9301 23.4425 30.9597 23.3925 30.9597C23.3614 30.9597 23.3471 30.9426 23.3436 30.9061C23.3402 30.8695 23.3343 30.839 23.3274 30.814C23.3429 30.7855 23.3568 30.7553 23.3681 30.7143C23.3793 30.6733 23.397 30.6349 23.4332 30.5993C23.4332 30.5708 23.4582 30.5242 23.5065 30.4689V30.4382C23.5168 30.4097 23.5376 30.3844 23.5635 30.3692C23.5893 30.3541 23.6155 30.3241 23.6449 30.2849C23.6535 30.2403 23.6696 30.2235 23.6937 30.2235H23.71L23.8403 30.1085C23.8644 30.0621 23.8869 30.0395 23.8973 30.0394L23.9543 30.0548C24.0198 30.0031 24.0655 29.9781 24.0845 29.9781L24.1497 29.9857C24.1704 29.9751 24.1885 29.9663 24.2066 29.9628C24.2248 29.9592 24.2382 29.9545 24.2555 29.9474C24.2728 29.9403 24.2846 29.9398 24.2881 29.9398ZM31.127 30.1086L31.184 30.1162L31.2166 30.1086L31.2492 30.1316L31.298 30.1239L31.3469 30.1316L31.3713 30.1162C31.3782 30.1162 31.3794 30.1186 31.3794 30.1239C31.3794 30.1381 31.3511 30.1825 31.2899 30.2466C31.2286 30.3108 31.1842 30.352 31.1515 30.377C31.1445 30.3984 31.1217 30.4178 31.0863 30.4383C31.0509 30.4589 31.0281 30.4912 31.0212 30.5304C30.9953 30.5428 30.981 30.5562 30.9723 30.5687C30.9637 30.5812 30.937 30.5969 30.8991 30.6147L30.8502 30.6531C30.7846 30.6905 30.733 30.7196 30.7037 30.7374C30.6916 30.757 30.6773 30.7719 30.6548 30.7834C30.6324 30.795 30.6146 30.8043 30.606 30.8141C30.5973 30.8239 30.5902 30.8354 30.5815 30.8371C30.5729 30.8392 30.564 30.8374 30.5571 30.8448L30.5083 30.8754C30.4875 30.8826 30.4745 30.8913 30.4676 30.8984C30.4606 30.9056 30.4383 30.9181 30.3943 30.9368C30.3503 30.9555 30.3185 30.9598 30.3047 30.9598C30.272 30.9598 30.2559 30.9167 30.2559 30.8294C30.2559 30.8152 30.2686 30.7998 30.2885 30.7757C30.3083 30.7517 30.3176 30.7208 30.321 30.6913C30.3245 30.662 30.3329 30.6457 30.3536 30.6377C30.3744 30.6296 30.3968 30.6195 30.4106 30.607L30.4269 30.561C30.4269 30.5557 30.4471 30.537 30.492 30.4996C30.5041 30.4515 30.532 30.4142 30.5734 30.3999C30.6424 30.35 30.6835 30.3116 30.6956 30.2849C30.7163 30.2849 30.7484 30.2736 30.7933 30.2389C30.8381 30.2041 30.8919 30.1764 30.9479 30.1622C31.004 30.148 31.0421 30.1354 31.0619 30.1238C31.0818 30.1122 31.0994 30.1086 31.127 30.1086Z" fill="black"/>
</svg>
