<svg width="54" height="14" viewBox="0 0 54 14" fill="none" xmlns="http://www.w3.org/2000/svg">
<path d="M19.6173 5.8945H21.2883C21.7538 5.8945 22.1292 6.00831 22.4146 6.23593C22.7001 6.46141 22.9036 6.75882 22.9036 7.12817C22.9036 7.37083 22.8985 7.83685 22.7571 8.05589C22.6183 8.27277 22.4074 8.4349 22.1245 8.54227C21.8417 8.64964 21.5343 8.70547 21.3337 8.70976L20.6141 8.72265V10.1238H19.6173V5.8945ZM20.5987 6.79662V7.89179L21.2088 7.89178C21.3914 7.89177 21.5469 7.83702 21.6755 7.7275C21.8067 7.61799 21.8722 7.48807 21.8722 7.33775C21.8722 7.16596 21.7989 7.03282 21.6524 6.93834C21.5058 6.84385 21.3535 6.79655 21.0835 6.79655L20.5987 6.79662Z" fill="#082313"/>
<path d="M23.4758 5.8941H26.1846V6.73159H24.4667V7.49994H26.1336V8.40977H24.4667V9.18173H26.1846V10.1234H23.4758V5.8941Z" fill="#082313"/>
<path d="M27.1157 5.8941H28.8515C29.306 5.8941 29.5906 6.00634 29.8541 6.2291C30.1189 6.45299 30.2101 6.80731 30.2521 7.13422C30.2814 7.36315 30.2646 7.5838 30.1423 7.81787C30.0223 8.05193 29.6605 8.30706 29.3242 8.38546L30.649 10.1234H29.4481L28.2058 8.4402L28.095 8.4402V10.1234H27.1157V5.8941ZM28.1019 6.71751V7.80972H28.4554C28.9652 7.80972 29.2202 7.55511 29.2202 7.16643C29.2202 6.73261 28.7552 6.71972 28.4692 6.71751H28.1019Z" fill="#082313"/>
<path d="M30.692 5.8941H33.9389V6.80991H32.8321V10.1234H31.7915V6.80991H30.692V5.8941Z" fill="#082313"/>
<path d="M35.1597 5.8941H36.1974L37.6273 10.1234H36.5771L36.3043 9.3609H35.0212L34.699 10.1234H33.7188L35.1597 5.8941ZM35.6659 7.25457L35.1995 8.56332H36.064L35.6659 7.25457Z" fill="#082313"/>
<path d="M38.6524 5.8941H39.6225L40.4156 8.24207L41.2786 5.8941H42.2416L42.7983 10.1234H41.844L41.5618 7.72606L40.6075 10.1233H40.2145L39.3158 7.68227L38.9035 10.1233L38.0201 10.1234L38.6524 5.8941Z" fill="#082313"/>
<path d="M43.4472 5.8941H44.4515V10.1234H43.4472V5.8941Z" fill="#082313"/>
<path d="M48.2225 5.91727H49.1384V10.1234H48.1237L46.3554 7.61821V10.1234H45.3648V5.91727H46.3111L48.2225 8.52032V5.91727Z" fill="#082313"/>
<path d="M51.1991 5.8941H52.2368L53.6667 10.1234H52.6165L52.3437 9.3609H51.0606L50.7384 10.1234H49.7581L51.1991 5.8941ZM51.7053 7.25457L51.2389 8.56332H52.1034L51.7053 7.25457Z" fill="#082313"/>
<path d="M0.333344 13.0737C0.333344 13.0737 3.68135 7.7482 4.22691 6.86535C4.77239 5.98235 5.24233 5.89941 6.74938 5.89941H10.0711C9.87523 6.06373 9.5403 6.40679 9.28973 6.80996L5.91129 12.2459C5.57349 12.8533 4.85916 13.0737 4.00197 13.0737H0.333344Z" fill="#006CB8"/>
<path d="M13.559 5.89941C12.0519 5.89941 11.5794 5.98232 11.0052 6.86532C10.431 7.74818 8.88867 10.1272 8.88867 10.1272H12.7513C13.4257 10.1272 14.0821 9.83108 14.3647 9.34156L16.6468 5.89941H13.559Z" fill="#ACC42A"/>
<path d="M11.9765 0.666473C13.4835 0.666473 13.9561 0.749377 14.5302 1.63238C15.1044 2.51524 16.6468 4.89427 16.6468 4.89427H12.7842C12.1098 4.89427 11.4534 4.59814 11.1708 4.10862L8.88867 0.666473H11.9765Z" fill="#ED1B2F"/>
</svg>
