<svg width="54" height="37" viewBox="0 0 54 37" fill="none" xmlns="http://www.w3.org/2000/svg">
<g clip-path="url(#clip0_2_17989)">
<path fill-rule="evenodd" clip-rule="evenodd" d="M20.4398 15.4845C20.5485 15.5923 20.6329 15.8458 20.6326 15.9982C20.6273 17.855 20.6289 19.7124 20.6289 21.5692V21.756C20.5619 21.7797 20.5422 21.727 20.5142 21.6986C18.8949 20.0784 17.2753 18.4578 15.6584 16.8352C14.9626 16.1374 14.4685 15.3214 14.2687 14.349C13.9628 12.8598 14.262 11.4978 15.1847 10.2862C15.4473 9.94126 15.7628 9.63902 16.0721 9.33445C16.0848 9.32211 16.1048 9.31743 16.1211 9.30943C16.1415 9.32944 16.1134 9.35715 16.1091 9.38417C16.0811 9.45356 15.5337 10.0694 15.8065 10.8163C15.9984 11.3247 19.8013 14.851 20.4398 15.4845Z" fill="#ABCE37"/>
<path fill-rule="evenodd" clip-rule="evenodd" d="M32.9414 22.4321C32.9501 22.4781 32.9187 22.4955 32.8973 22.5161C32.3596 23.0432 31.8499 23.5976 31.3248 24.137C30.9055 24.5677 30.4588 24.9664 29.9558 25.2989C29.1675 25.8193 28.3035 26.1016 27.3598 26.1743C25.952 26.283 24.7558 25.8223 23.7156 24.8946C23.0531 24.3038 22.4283 23.6747 21.7978 23.0512C21.63 22.8847 21.4642 22.7166 21.2984 22.5485C21.2691 22.5185 21.2294 22.4938 21.221 22.4321H32.9414Z" fill="#ABCE37"/>
<mask id="mask0_2_17989" style="mask-type:luminance" maskUnits="userSpaceOnUse" x="33" y="13" width="6" height="9">
<path d="M35.6205 13.6856C35.458 13.8644 33.5816 15.7568 33.5816 15.7568C33.5322 15.8095 33.5499 15.8733 33.5499 15.8733V21.6687C33.5486 21.8789 33.6867 21.6924 33.6867 21.6924L38.0333 17.2413C38.7619 16.429 38.3009 15.5947 38.3009 15.5947C38.2262 15.3755 35.8473 13.1001 35.8473 13.1001C35.8473 13.1001 35.899 13.3793 35.6205 13.6856Z" fill="white"/>
</mask>
<g mask="url(#mask0_2_17989)">
<path d="M35.6205 13.6856C35.458 13.8644 33.5816 15.7568 33.5816 15.7568C33.5322 15.8095 33.5499 15.8733 33.5499 15.8733V21.6687C33.5486 21.8789 33.6867 21.6924 33.6867 21.6924L38.0333 17.2413C38.7619 16.429 38.3009 15.5947 38.3009 15.5947C38.2262 15.3755 35.8473 13.1001 35.8473 13.1001C35.8473 13.1001 35.899 13.3793 35.6205 13.6856Z" fill="url(#paint0_linear_2_17989)"/>
</g>
<mask id="mask1_2_17989" style="mask-type:luminance" maskUnits="userSpaceOnUse" x="26" y="1" width="15" height="17">
<path d="M29.0311 2.37858L26.6926 4.76241C27.1066 4.42615 27.4121 4.6997 27.4121 4.6997L38.2024 15.4583C38.8419 16.5111 38.0003 17.275 38.0003 17.275C42.0961 13.7173 38.7766 10.0695 38.7766 10.0695L31.089 2.38157C30.683 2.04231 30.3184 1.92989 30.0135 1.92989C29.4043 1.92989 29.0311 2.37858 29.0311 2.37858Z" fill="white"/>
</mask>
<g mask="url(#mask1_2_17989)">
<path d="M29.0311 2.37858L26.6926 4.76241C27.1066 4.42615 27.4121 4.6997 27.4121 4.6997L38.2024 15.4583C38.8419 16.5111 38.0003 17.275 38.0003 17.275C42.0961 13.7173 38.7766 10.0695 38.7766 10.0695L31.089 2.38157C30.683 2.04231 30.3184 1.92989 30.0135 1.92989C29.4043 1.92989 29.0311 2.37858 29.0311 2.37858Z" fill="url(#paint1_linear_2_17989)"/>
</g>
<mask id="mask2_2_17989" style="mask-type:luminance" maskUnits="userSpaceOnUse" x="15" y="0" width="17" height="14">
<path d="M23.7693 1.62067L16.1982 9.21418C15.1884 10.4344 16.1902 11.4029 16.1902 11.4029L18.5814 13.7327C18.2324 13.1836 18.516 13.0128 18.516 13.0128L29.0311 2.3786C29.9007 1.60467 30.7357 2.0927 30.9989 2.30954C31.1017 2.3936 31.1514 2.44331 31.1514 2.44331C29.7289 0.830732 28.3125 0.333345 27.1066 0.333345C25.1658 0.333345 23.7693 1.62067 23.7693 1.62067Z" fill="white"/>
</mask>
<g mask="url(#mask2_2_17989)">
<path d="M23.7693 1.62067L16.1982 9.21418C15.1884 10.4344 16.1902 11.4029 16.1902 11.4029L18.5814 13.7327C18.2324 13.1836 18.516 13.0128 18.516 13.0128L29.0311 2.3786C29.9007 1.60467 30.7357 2.0927 30.9989 2.30954C31.1017 2.3936 31.1514 2.44331 31.1514 2.44331C29.7289 0.830732 28.3125 0.333345 27.1066 0.333345C25.1658 0.333345 23.7693 1.62067 23.7693 1.62067Z" fill="url(#paint2_linear_2_17989)"/>
</g>
<mask id="mask3_2_17989" style="mask-type:luminance" maskUnits="userSpaceOnUse" x="-73" y="-17" width="200" height="282">
<path d="M-72.2888 264.824H126.289V-16.0223H-72.2888V264.824Z" fill="white"/>
</mask>
<g mask="url(#mask3_2_17989)">
<path fill-rule="evenodd" clip-rule="evenodd" d="M53.6259 33.7927C53.5652 34.2037 53.3357 34.5069 53.0071 34.7414C52.6935 34.9649 52.3329 35.0727 51.9573 35.1194C51.2127 35.2124 50.4812 35.148 49.7703 34.8979C49.6689 34.8622 49.5695 34.8181 49.4701 34.7761C49.414 34.7524 49.3783 34.7184 49.3787 34.6477C49.3817 34.2664 49.3803 33.8847 49.3803 33.5044C49.455 33.4858 49.5004 33.5285 49.5511 33.5495C49.9804 33.728 50.4141 33.8951 50.8771 33.9655C51.1253 34.0028 51.3732 33.9922 51.6184 33.9368C51.6557 33.9284 51.6918 33.9148 51.7271 33.9004C52.0217 33.7787 52.0744 33.4731 51.8362 33.2563C51.7461 33.1739 51.6384 33.1158 51.5286 33.0654C51.2975 32.9594 51.0636 32.8593 50.8298 32.7589C50.5005 32.6174 50.1856 32.4513 49.9064 32.2248C49.6389 32.0076 49.4177 31.7528 49.3313 31.4108C49.1942 30.8731 49.3296 30.1729 49.9501 29.7202C50.2673 29.4884 50.6246 29.3599 51.0092 29.3152C51.7792 29.2248 52.5194 29.3446 53.2296 29.6588C53.3504 29.7125 53.3981 29.7776 53.3937 29.9144C53.3827 30.2583 53.3901 30.6029 53.3901 30.9441C53.317 30.9762 53.2726 30.9261 53.2246 30.9021C52.865 30.7226 52.4987 30.5612 52.1031 30.4775C51.8335 30.4201 51.563 30.3837 51.2888 30.4504C51.2134 30.4691 51.1427 30.4965 51.08 30.5405C50.8958 30.6703 50.8788 30.8904 51.0396 31.0469C51.1503 31.155 51.2845 31.229 51.4199 31.3008C51.7074 31.4525 52.013 31.563 52.3126 31.6884C52.5828 31.8018 52.851 31.9206 53.0848 32.1014C53.3544 32.3095 53.5639 32.5591 53.6253 32.9073C53.6843 33.2549 53.6763 33.4524 53.6259 33.7927Z" fill="#332C2B"/>
<path fill-rule="evenodd" clip-rule="evenodd" d="M27.6028 30.0797C27.7402 29.9652 27.8473 29.8678 27.9628 29.7818C28.6086 29.2987 29.3318 29.185 30.1041 29.3618C30.5067 29.4538 30.8149 29.6964 31.0254 30.0553C31.0705 30.132 31.1112 30.2114 31.1545 30.2908C31.2279 30.2725 31.2636 30.2064 31.313 30.1594C31.6483 29.8411 32.0029 29.5529 32.4539 29.4115C32.9276 29.2634 33.4096 29.2363 33.8893 29.3551C34.5545 29.5196 34.9378 29.9726 35.1143 30.6187C35.194 30.9106 35.2137 31.2099 35.214 31.5101C35.2163 32.6276 35.2153 33.7448 35.215 34.8623C35.215 35.0395 35.2133 35.0405 35.0375 35.0408C34.5715 35.0415 34.1051 35.0411 33.6395 35.0408C33.4079 35.0408 33.4306 35.0575 33.4306 34.8383C33.4303 33.7979 33.43 32.7567 33.4306 31.7163C33.431 31.4981 33.4149 31.2823 33.3546 31.0721C33.2592 30.7382 33.0493 30.581 32.7004 30.5634C32.3918 30.548 32.1216 30.6421 31.8871 30.8362C31.7987 30.909 31.7193 30.993 31.6406 31.0768C31.4508 31.2789 31.361 31.5041 31.3664 31.7976C31.3854 32.7998 31.3737 33.8025 31.3737 34.805C31.3737 34.8493 31.3717 34.8944 31.374 34.9387C31.3777 35.0105 31.3497 35.0418 31.2746 35.0418C30.7639 35.0398 30.2528 35.0398 29.7421 35.0415C29.6674 35.0415 29.6384 35.0101 29.643 34.9381C29.646 34.8937 29.6437 34.8487 29.6437 34.8043C29.6437 33.7762 29.643 32.7484 29.6437 31.7203C29.6444 31.4961 29.633 31.2736 29.5657 31.0577C29.4639 30.7325 29.2608 30.5817 28.9198 30.5637C28.6036 30.5467 28.3317 30.6504 28.0899 30.8462C27.9954 30.9226 27.9154 31.0144 27.834 31.1041C27.6635 31.2916 27.5935 31.4998 27.5971 31.762C27.6118 32.7704 27.6028 33.7792 27.6028 34.7879C27.6028 34.8266 27.6038 34.8647 27.6028 34.903C27.5991 35.0361 27.5991 35.0398 27.462 35.0401C27.0407 35.0418 26.6194 35.0408 26.1977 35.0408C26.1083 35.0408 26.0189 35.0381 25.9299 35.0415C25.8568 35.0445 25.8228 35.0145 25.8268 34.9411C25.8281 34.903 25.8268 34.8643 25.8268 34.8263V29.6163C25.8268 29.5843 25.8298 29.5523 25.8264 29.5206C25.8144 29.4158 25.8665 29.3931 25.9622 29.3941C26.4663 29.3978 26.971 29.3981 27.475 29.3941C27.5765 29.3931 27.6081 29.4288 27.6048 29.5276C27.5981 29.7027 27.6028 29.8785 27.6028 30.0797Z" fill="#332C2B"/>
<path fill-rule="evenodd" clip-rule="evenodd" d="M38.2489 30.0805C38.3843 29.9668 38.488 29.8744 38.5968 29.789C39.0925 29.4013 39.6643 29.2639 40.2824 29.2889C40.4929 29.2976 40.7021 29.3256 40.9022 29.3963C41.472 29.5988 41.8063 30.0158 41.9681 30.5839C42.0515 30.8741 42.0795 31.173 42.0801 31.4736C42.0821 32.6035 42.0815 33.7333 42.0808 34.8632C42.0808 35.0393 42.0795 35.0407 41.903 35.0407C41.4176 35.0413 40.9326 35.0417 40.4476 35.0407C40.2941 35.0403 40.2921 35.038 40.2921 34.8806C40.2914 33.8271 40.2914 32.7739 40.2921 31.7208C40.2924 31.5026 40.2788 31.2871 40.2134 31.0776C40.105 30.7314 39.8845 30.5716 39.5198 30.5626C39.2249 30.5552 38.9694 30.6543 38.7459 30.8388C38.6578 30.9118 38.5775 30.9952 38.5011 31.0803C38.3266 31.2755 38.2359 31.4869 38.2412 31.7682C38.2605 32.7893 38.2489 33.8107 38.2485 34.8322C38.2485 35.0437 38.2766 35.0417 38.044 35.0413C37.5713 35.0403 37.099 35.0417 36.6266 35.0407C36.4718 35.0403 36.4698 35.038 36.4698 34.8796C36.4692 33.1052 36.4692 31.3305 36.4698 29.5558C36.4698 29.3987 36.4722 29.3967 36.6273 29.3963C37.1193 29.3953 37.6104 29.395 38.1021 29.3963C38.2455 29.3967 38.2469 29.3997 38.2482 29.5478C38.2499 29.7136 38.2489 29.8794 38.2489 30.0805Z" fill="#332C2B"/>
<path fill-rule="evenodd" clip-rule="evenodd" d="M22.7781 34.3838C22.7067 34.3848 22.6834 34.4285 22.653 34.4568C22.0996 34.9772 21.4404 35.1841 20.6895 35.1363C20.2905 35.111 19.9246 35.0069 19.612 34.7491C19.2487 34.4492 19.0746 34.0468 18.9899 33.5958C18.9502 33.3877 18.9418 33.1778 18.9418 32.967C18.9412 31.8368 18.9415 30.7073 18.9415 29.5774C18.9415 29.5517 18.9432 29.5257 18.9412 29.5007C18.9335 29.4136 18.9789 29.3879 19.0566 29.3953C19.082 29.3979 19.1076 29.3956 19.1333 29.3956C19.5994 29.3956 20.0654 29.3956 20.5314 29.3959C20.7179 29.3959 20.7192 29.3966 20.7192 29.5811C20.7195 30.6215 20.7195 31.662 20.7189 32.7025C20.7189 32.8883 20.7352 33.0721 20.7739 33.2536C20.8873 33.7846 21.2526 33.9371 21.7317 33.8504C22.1246 33.7796 22.4028 33.5314 22.6323 33.2182C22.7338 33.0801 22.7835 32.9383 22.7821 32.7605C22.7738 31.7264 22.7781 30.6923 22.7781 29.6578C22.7781 29.6261 22.7778 29.5941 22.7781 29.5624C22.7801 29.3976 22.7801 29.3963 22.9466 29.3959C23.4316 29.3953 23.9167 29.3953 24.402 29.3963C24.5552 29.3966 24.5572 29.3986 24.5572 29.5571C24.5578 31.3318 24.5578 33.1065 24.5572 34.8812C24.5572 35.0383 24.5552 35.0403 24.4004 35.0406C23.9087 35.0416 23.417 35.0416 22.9259 35.0406C22.7811 35.0403 22.7795 35.0373 22.7785 34.8918C22.7768 34.726 22.7781 34.5599 22.7781 34.3838Z" fill="#332C2B"/>
<path fill-rule="evenodd" clip-rule="evenodd" d="M15.5415 30.8161C15.7296 30.5556 15.8834 30.2907 16.0709 30.0479C16.204 29.8754 16.3478 29.7126 16.5246 29.5838C16.8872 29.318 17.2828 29.2389 17.7181 29.376C17.939 29.4454 18.1401 29.5525 18.339 29.6669C18.4023 29.7036 18.434 29.7416 18.4107 29.8193C18.2616 30.3187 18.1144 30.8194 17.9603 31.3405C17.8926 31.2965 17.8366 31.2608 17.7819 31.2241C17.578 31.088 17.3622 30.9792 17.115 30.9566C16.7694 30.9249 16.4772 31.0496 16.2277 31.2818C15.8937 31.5924 15.7126 31.9897 15.5882 32.4177C15.5545 32.5344 15.5391 32.6529 15.5398 32.776C15.5428 33.4785 15.5418 34.1807 15.5411 34.8829C15.5411 35.038 15.5391 35.0404 15.3833 35.0407C14.8916 35.0417 14.4003 35.0417 13.9085 35.0407C13.7561 35.04 13.7538 35.0374 13.7538 34.8776C13.7534 33.1025 13.7534 31.3275 13.7541 29.5525C13.7541 29.3984 13.7568 29.3964 13.9149 29.3964C14.3939 29.3954 14.8726 29.396 15.3517 29.3957C15.5555 29.3957 15.5415 29.3853 15.5415 29.5792V30.6517V30.8161Z" fill="#332C2B"/>
<path fill-rule="evenodd" clip-rule="evenodd" d="M4.37435 32.8202C4.14951 33.5568 3.51835 33.8257 2.85451 33.7389C2.61766 33.7082 2.40316 33.6112 2.20167 33.4831C2.12295 33.433 2.09326 33.374 2.09493 33.2799C2.0996 32.9166 2.09659 32.553 2.09659 32.1894C2.09659 31.8388 2.10193 31.4879 2.09393 31.1373C2.09126 31.0252 2.13162 30.9655 2.22436 30.9104C2.62567 30.6736 3.05099 30.5708 3.50601 30.7006C3.93668 30.8233 4.20855 31.1269 4.353 31.5416C4.49944 31.9629 4.50445 32.3942 4.37435 32.8202ZM6.27314 31.638C6.12102 30.4814 5.29639 29.4206 3.97771 29.2898C3.32687 29.2255 2.72274 29.3392 2.18733 29.7348C2.14363 29.7675 2.10794 29.8179 2.03888 29.8182C2.00853 29.6865 2.05223 29.552 2.0132 29.4236C1.52849 29.4246 1.04378 29.4256 0.558745 29.4266C0.31856 29.4269 0.333905 29.4129 0.333905 29.6581V35.9346C0.333905 36.037 0.332238 36.1388 0.334573 36.2408C0.337575 36.388 0.338909 36.3916 0.485689 36.3923C0.849635 36.3946 1.21291 36.3933 1.57686 36.3933C1.69795 36.3933 1.81905 36.3913 1.94014 36.3933C2.01787 36.395 2.06157 36.3676 2.05756 36.2832C2.05523 36.2388 2.0579 36.1938 2.0579 36.1491C2.0579 35.7028 2.05623 35.2564 2.05923 34.8097C2.05957 34.7517 2.02754 34.6783 2.10794 34.6413C2.72308 35.1337 3.43129 35.2461 4.1822 35.109C5.15161 34.9322 5.77876 34.336 6.11869 33.4284C6.33552 32.8489 6.3532 32.2461 6.27314 31.638Z" fill="#332C2B"/>
<path fill-rule="evenodd" clip-rule="evenodd" d="M46.2415 33.716C45.9766 33.8861 45.7044 34.0275 45.3762 34.0299C44.8251 34.0339 44.6529 33.5011 44.8581 33.1258C44.9298 32.9941 45.0379 32.8947 45.1633 32.8153C45.4986 32.6034 45.8662 32.4633 46.2402 32.3369C46.2498 32.3332 46.2639 32.3416 46.2922 32.3489V32.9314C46.2922 33.1419 46.2925 33.352 46.2922 33.5625C46.2922 33.6189 46.3015 33.6776 46.2415 33.716ZM48.8869 33.8714C48.8865 33.8234 48.9045 33.77 48.8588 33.7233C48.7584 33.7557 48.6587 33.801 48.5533 33.8194C48.2144 33.8784 48.0949 33.8647 48.0983 33.4601C48.1039 32.7586 48.0983 32.0564 48.1009 31.3541C48.1013 31.1623 48.0916 30.9712 48.0632 30.782C47.9708 30.1616 47.6693 29.6989 47.0601 29.4747C46.8139 29.384 46.5577 29.3346 46.2965 29.3099C45.8372 29.2662 45.3792 29.2819 44.9228 29.3469C44.3731 29.4253 43.8617 29.6061 43.3866 29.8944C43.2992 29.9477 43.2695 30.0084 43.2692 30.1095C43.2682 30.4538 43.2559 30.7987 43.2482 31.143C43.2465 31.2047 43.2479 31.2667 43.2479 31.3705C43.3603 31.2791 43.4387 31.2147 43.5174 31.1513C43.7926 30.9305 44.0908 30.749 44.4211 30.6239C44.8501 30.4615 45.2911 30.4301 45.7364 30.5362C46.1031 30.6233 46.2962 30.8671 46.3002 31.2321C46.3022 31.3912 46.3339 31.4075 46.1297 31.4672C45.5013 31.6517 44.8755 31.8455 44.272 32.1037C44.0085 32.2161 43.7483 32.3359 43.5197 32.514C43.2198 32.7482 43.0314 33.0468 42.9853 33.4297C42.9626 33.6159 42.9823 33.8 43.0137 33.9822C43.1088 34.5266 43.4073 34.9082 43.9504 35.0517C44.6509 35.2371 45.3278 35.1571 45.964 34.7995C46.1021 34.7221 46.2315 34.6287 46.3653 34.5429C46.4964 34.8602 46.5514 34.9339 46.7365 35.027C46.857 35.0877 46.9851 35.1194 47.1205 35.1327C47.7286 35.1908 48.2731 34.9799 48.8108 34.7367C48.8825 34.7041 48.8889 34.6477 48.8882 34.58C48.8869 34.3438 48.8885 34.1076 48.8869 33.8714Z" fill="#332C2B"/>
<path fill-rule="evenodd" clip-rule="evenodd" d="M10.9023 31.6522C10.2598 31.6549 9.61664 31.6576 8.97381 31.6586C8.82603 31.6589 8.81736 31.6489 8.84772 31.5094C8.89442 31.2969 8.97048 31.0968 9.09858 30.9173C9.50289 30.3502 10.5117 30.3002 10.8663 31.1085C10.938 31.2719 10.9897 31.4421 10.9884 31.6432C10.9517 31.6472 10.927 31.6522 10.9023 31.6522ZM12.5462 30.978C12.2253 30.1778 11.6632 29.626 10.8229 29.3992C10.1297 29.2117 9.42816 29.2327 8.75164 29.4755C7.86763 29.7928 7.29819 30.4153 7.06901 31.3343C6.94559 31.8307 6.94659 32.3317 7.03132 32.8345C7.22547 33.995 7.99139 34.8023 9.13994 35.0568C9.83714 35.2113 10.533 35.1839 11.2262 35.0322C11.7032 34.9277 12.1473 34.7406 12.5626 34.4851C12.6156 34.452 12.6703 34.428 12.6697 34.345C12.6657 33.9893 12.668 33.6334 12.668 33.2428C12.4108 33.4096 12.1826 33.5487 11.9411 33.6628C11.3126 33.9587 10.6564 34.0794 9.96991 33.9416C9.34243 33.8155 8.87907 33.3812 8.82036 32.731C8.80201 32.5269 8.79501 32.5272 9.01084 32.5272H11.9785C12.2146 32.5272 12.4508 32.5246 12.6867 32.5289C12.7691 32.5302 12.7948 32.5042 12.7948 32.4205C12.7944 31.9251 12.7314 31.4397 12.5462 30.978Z" fill="#332C2B"/>
</g>
</g>
<defs>
<linearGradient id="paint0_linear_2_17989" x1="32.0211" y1="20.2647" x2="37.448" y2="14.6451" gradientUnits="userSpaceOnUse">
<stop stop-color="#ABCE37"/>
<stop offset="1" stop-color="#192C00"/>
</linearGradient>
<linearGradient id="paint1_linear_2_17989" x1="34.1256" y1="17.6139" x2="32.7322" y2="1.68719" gradientUnits="userSpaceOnUse">
<stop stop-color="#91D9F8"/>
<stop offset="0.4768" stop-color="#00AEEF"/>
<stop offset="0.9125" stop-color="#004563"/>
<stop offset="1" stop-color="#004563"/>
</linearGradient>
<linearGradient id="paint2_linear_2_17989" x1="26.6658" y1="-0.378596" x2="19.552" y2="14.2059" gradientUnits="userSpaceOnUse">
<stop stop-color="#9DDCF9"/>
<stop offset="0.4444" stop-color="#00AEEF"/>
<stop offset="0.9279" stop-color="#004563"/>
<stop offset="1" stop-color="#004563"/>
</linearGradient>
<clipPath id="clip0_2_17989">
<rect width="53.3333" height="36.0604" fill="white" transform="translate(0.333328 0.333313)"/>
</clipPath>
</defs>
</svg>
