<svg width="48" height="44" viewBox="0 0 48 44" fill="none" xmlns="http://www.w3.org/2000/svg">
<g clip-path="url(#clip0_2_17895)">
<path d="M38.779 5.35851C38.779 5.35851 43.818 5.32633 46.0435 7.64659C48.2689 9.96684 48.2308 12.4034 46.4081 15.1296C44.3362 17.8173 41.5545 20.2341 41.4778 20.3306C41.401 20.4272 40.9596 20.3696 40.8062 20.1951C40.6527 20.0213 40.1732 19.4799 40.595 19.1513C41.0173 18.8228 44.9691 15.1487 44.6241 12.7128C44.2785 10.2762 43.9905 7.80127 38.2351 6.89235C38.2351 6.89235 38.2867 5.34551 38.779 5.35851Z" fill="#C31D2D"/>
<path d="M0.997618 23.6755C1.05533 23.6947 3.93274 22.8055 3.93274 22.8055C3.93274 22.8055 6.3184 16.341 17.1386 11.0558C17.1386 11.0558 17.7525 10.0373 16.3197 10.3857C14.9641 10.8757 3.40231 16.4183 0.997618 23.6755Z" fill="#C31D2D"/>
<path d="M17.7009 9.90936C17.7009 9.90936 17.4204 11.0051 18.5586 10.5411C19.6962 10.077 27.6304 6.51932 36.9305 6.71917C36.9305 6.71917 37.046 6.68019 37.3339 6.1586C37.6212 5.63638 37.7747 5.40436 37.1994 5.40436C36.6236 5.40436 28.4193 4.58577 17.7009 9.90936Z" fill="#C31D2D"/>
<path d="M0 37.4814V43.3334H2.72393L4.81553 39.6859V43.3334H7.09867L11.0118 37.4814H8.42227L6.44608 40.7106V37.4814H4.58531L2.62816 40.6908V37.4814H0Z" fill="#2E3892"/>
<path d="M36.5536 37.4814H43.1274L42.4367 39.1062H40.4163L39.035 43.3334H36.7071L38.2161 39.1835H36.5536V37.4814Z" fill="#2E3892"/>
<path d="M33.8168 37.4814L31.8983 43.3334H34.2257L36.0674 37.4814H33.8168Z" fill="#2E3892"/>
<path d="M25.9636 37.4814L23.8751 43.3334H26.3983L27.4468 40.9364H28.24L29.1099 43.3334H31.6675L30.2094 39.7503L33.1771 37.4814H30.1585L28.2909 39.2089L27.7286 39.1316L28.3167 37.4814H25.9636Z" fill="#2E3892"/>
<path d="M24.403 39.1056C24.403 39.1056 24.4221 37.4814 22.945 37.4814H19.6072C19.6072 37.4814 17.4069 37.8551 17.4069 39.6983C17.4069 40.369 17.8158 40.9878 20.3359 40.9878C20.633 40.9878 21.3912 40.8844 21.3912 41.3584C21.3912 41.8026 21.3525 42.0155 20.9596 42.0056C20.528 42.0056 18.9834 41.9963 18.9257 41.3485H16.5855C16.5855 41.3485 16.537 42.9015 17.89 43.3334H21.6595C21.8129 43.3334 24.1458 42.5569 24.1458 41.049C24.1458 40.2075 22.398 39.5597 21.3433 39.5405C20.0768 39.5405 19.6741 39.4731 19.6931 38.8636C19.6931 38.5741 20.3457 38.4769 20.7294 38.4769C21.3237 38.4769 21.9093 38.9509 21.9093 39.0864L24.403 39.1056Z" fill="#2E3892"/>
<path d="M12.6742 37.4814L8.09566 43.3334H10.8202L11.3954 42.3799H13.4416L13.6209 43.3334H15.8973V37.4814H12.6742ZM13.4864 41.3095H11.9971L13.4864 39.6086V41.3095Z" fill="#2E3892"/>
<path d="M44.777 37.4814L40.1978 43.3334H42.9217L43.4976 42.3799H45.5444L45.723 43.3334H48V37.4814H44.777ZM45.8476 41.3095H44.3577L45.8476 39.6086V41.3095Z" fill="#2E3892"/>
<path d="M30.9639 0.666737H33.4576L29.749 7.18943L24.3257 16.8825C24.3257 16.8825 23.8272 17.5402 24.492 18.597C25.1956 19.7188 28.1884 25.3258 28.1884 25.3258C28.1884 25.3258 28.4315 25.9191 28.93 25.0294C29.4291 24.1403 42.8714 0.666737 42.8714 0.666737H45.1987L31.6417 24.9007L27.0244 32.5445C27.0244 32.5445 26.0139 33.459 25.2208 32.3899C24.4282 31.3201 20.7196 24.5913 20.7196 24.5913C20.7196 24.5913 20.2714 23.9082 19.9135 24.5913C19.5298 25.4031 15.6928 32.2741 15.6928 32.2741C15.6928 32.2741 14.3121 33.9237 13.2114 32.0935C12.1499 30.2113 6.08142 19.6928 6.08142 19.6928C6.08142 19.6928 5.71675 17.2952 6.44547 16.1351C7.1748 14.975 8.03796 13.4665 8.38359 13.1769C8.72861 12.8867 9.68815 12.9641 10.2824 14.0852C10.8773 15.207 16.4412 25.1649 16.4412 25.1649C16.4412 25.1649 16.7482 25.7446 17.3044 24.759C17.8606 23.7727 18.7624 22.0904 18.7624 22.0904C18.7624 22.0904 19.2228 21.5298 18.8391 20.9111C18.4554 20.2924 16.9207 19.1322 17.7071 17.3144C18.4941 15.4972 20.1056 13.2926 20.1056 13.2926C20.1056 13.2926 20.9878 12.6739 21.8129 13.7375C22.2157 14.2399 22.5803 15.7484 23.0788 14.6266C23.7314 13.3118 30.9639 0.666737 30.9639 0.666737Z" fill="#2E3892"/>
<path d="M0.805451 24.6618L3.41458 23.8884C3.41458 23.8884 3.72154 23.7337 3.7596 24.6618C3.79828 25.5899 4.60373 28.1422 7.731 28.7993C10.8583 29.457 14.2268 29.3722 15.7794 29.2441C17.4192 29.1086 19.6065 29.0894 19.6065 29.0894V29.9792C19.6065 29.9792 14.5798 30.8491 10.7815 30.8299C6.98326 30.8108 0.996992 30.6944 0.805451 24.6618Z" fill="#C31D2D"/>
<path d="M39.3671 20.1055C39.3671 20.1055 34.6351 25.21 20.7453 28.7677V29.8505C20.7453 29.8505 33.2028 27.1176 40.4163 20.9816L39.3671 20.1055Z" fill="#C31D2D"/>
</g>
<defs>
<clipPath id="clip0_2_17895">
<rect width="48" height="42.6667" fill="white" transform="translate(0 0.666687)"/>
</clipPath>
</defs>
</svg>
