<svg width="54" height="37" viewBox="0 0 54 37" fill="none" xmlns="http://www.w3.org/2000/svg">
<g clip-path="url(#clip0_2_17934)">
<path d="M42.433 20.4216C42.9198 20.4216 43.3655 20.4245 43.8112 20.4201C44.0131 20.4178 44.0348 20.3864 44.0071 20.18C43.9211 19.5301 43.8396 18.8795 43.7432 18.2319C43.7132 18.0285 43.7192 17.8161 43.6108 17.5626C43.207 18.5295 42.8278 19.4524 42.433 20.4216ZM48.6011 24.7478C48.5091 24.7178 48.4126 24.7306 48.3184 24.7306C47.1787 24.7298 46.0397 24.7306 44.9 24.7298C44.6503 24.7298 44.6353 24.7134 44.5972 24.474C44.5179 23.9723 44.4401 23.4705 44.3556 22.9702C44.307 22.6807 44.3018 22.68 43.9989 22.6793C43.2713 22.6778 42.5444 22.6785 41.8167 22.6778C41.5221 22.677 41.4892 22.6987 41.3725 22.9829C41.1661 23.4854 40.9552 23.9857 40.7548 24.4897C40.6845 24.6685 40.5836 24.7365 40.3817 24.735C38.4971 24.7268 36.6126 24.7306 34.7288 24.7298C34.6847 24.7298 34.6406 24.732 34.5972 24.7298C34.4229 24.7208 34.3863 24.6932 34.3586 24.5167C34.331 24.3349 34.316 24.1517 34.2936 23.9685C34.2136 23.2992 34.1343 22.6299 34.0513 21.9606C33.9406 21.0662 33.8277 20.171 33.7148 19.2766C33.637 18.6597 33.5614 18.0427 33.4769 17.4265C33.4373 17.1348 33.4149 17.1229 33.1285 17.1214C32.6551 17.1206 32.1817 17.1214 31.7091 17.1214C31.4152 17.1214 31.3897 17.1408 31.3172 17.4295C30.7317 19.7552 30.1461 22.0802 29.5613 24.406C29.4813 24.7223 29.4738 24.7298 29.1597 24.7298C26.653 24.7306 24.1463 24.7298 21.6395 24.7298C21.5872 24.7298 21.5341 24.7298 21.4817 24.7268C21.3875 24.7223 21.3344 24.6782 21.3471 24.5765C21.3539 24.5249 21.3584 24.4718 21.3696 24.4209C21.742 22.7466 22.1152 21.0722 22.4876 19.3978C22.6357 18.7315 22.7822 18.0651 22.9258 17.3973C22.9797 17.1461 22.9602 17.1259 22.7059 17.1214C22.6626 17.1206 22.6185 17.1214 22.5743 17.1214C21.7682 17.1206 20.962 17.1206 20.1558 17.1191C19.8522 17.1184 19.7999 17.1513 19.6885 17.4355C19.2442 18.5684 18.8 19.7021 18.3573 20.8359C17.8892 22.0339 17.4218 23.2334 16.9521 24.4314C16.843 24.7104 16.8003 24.7335 16.5042 24.7328C15.7855 24.7306 15.0669 24.7313 14.3482 24.7298C14.073 24.7291 14.0356 24.6917 14.0027 24.418C13.9444 23.9311 13.8875 23.4443 13.8247 22.9582C13.6348 21.5082 13.4456 20.0589 13.2474 18.6103C13.2197 18.4047 13.228 18.187 13.1427 17.9747C13.0462 18.0539 13.029 18.1437 12.9946 18.2222C12.4861 19.3851 11.9791 20.5494 11.472 21.7131C11.0772 22.6202 10.6808 23.5273 10.2897 24.4359C10.2149 24.6101 10.1222 24.7358 9.90908 24.7343C9.22556 24.7291 8.54205 24.7328 7.85778 24.7291C7.61474 24.7283 7.59679 24.7171 7.55865 24.4651C7.50556 24.1188 7.46667 23.7703 7.42554 23.4226C7.31262 22.4751 7.20792 21.5261 7.08901 20.5793C6.94543 19.4412 6.78614 18.3052 6.64106 17.1677C6.49524 16.0303 6.35913 14.8914 6.21779 13.7524C6.19012 13.5303 6.18563 13.5251 5.9568 13.5228C5.60607 13.5198 5.25534 13.5228 4.9046 13.5221C4.47834 13.5213 4.48058 13.5213 4.3198 13.9252C3.53009 15.9114 3.3708 17.9709 3.62208 20.0731C3.86662 22.1199 4.63838 23.9595 5.86182 25.6107C6.94543 27.0728 8.3005 28.2401 9.82158 29.2243C11.825 30.521 14.0132 31.3982 16.2993 32.0473C19.3766 32.92 22.5287 33.2857 25.7137 33.4039C27.2909 33.4622 28.8666 33.3957 30.4408 33.2745C31.7689 33.1721 33.0903 33.024 34.402 32.7899C36.4413 32.4257 38.4358 31.8985 40.3645 31.138C42.332 30.3617 44.1732 29.3619 45.8072 28.0046C46.8444 27.1431 47.759 26.1679 48.5008 25.0372C48.5562 24.9519 48.6392 24.8749 48.6011 24.7478ZM16.3038 18.3209C16.389 18.2349 16.4085 18.1474 16.4406 18.0681C17.2917 15.9667 18.1419 13.8646 18.9922 11.7624C19.1276 11.4289 19.1455 11.4162 19.5179 11.4184C19.9823 11.4207 20.4468 11.4237 20.9112 11.4244C21.2178 11.4252 21.5251 11.4207 21.8317 11.4244C22.0015 11.4267 22.0179 11.4551 21.9678 11.6099C21.9514 11.66 21.9297 11.7078 21.9103 11.7572C21.5565 12.6621 21.2028 13.5669 20.8491 14.4718C20.7279 14.7829 20.7279 14.7837 21.054 14.7837C22.7022 14.7837 24.3497 14.7829 25.9971 14.7852C26.3546 14.7852 26.3658 14.7179 26.2761 15.1449C25.7982 17.4235 25.3174 19.7006 24.838 21.9793C24.7916 22.2021 24.7528 22.4257 24.7109 22.6493C24.6877 22.7735 24.7445 22.8318 24.8657 22.8348C24.9091 22.8363 24.9532 22.8363 24.9965 22.8363C25.6367 22.8363 26.2761 22.837 26.9162 22.8363C27.1952 22.8363 27.2221 22.8154 27.2894 22.5409C27.8892 20.0835 28.4882 17.6269 29.0872 15.1695C29.3691 14.0134 29.6488 12.8565 29.93 11.6996C29.995 11.4349 30.0197 11.4169 30.2852 11.4199C30.4512 11.4222 30.618 11.4244 30.7848 11.4244C31.3456 11.4252 31.9065 11.4244 32.4674 11.4252C32.7448 11.4259 32.7665 11.4536 32.7067 11.7325C32.6693 11.903 32.6274 12.0735 32.5885 12.244C32.4218 12.9866 32.2527 13.7292 32.0905 14.4733C32.0314 14.7418 32.0531 14.7642 32.3186 14.7672C32.6334 14.7702 32.949 14.7485 33.2638 14.7799C33.4201 14.7964 33.5562 14.7291 33.6602 14.6094C33.717 14.5436 33.7664 14.4703 33.8157 14.3985C34.4327 13.5041 35.0534 12.6127 35.6621 11.7131C35.8057 11.5007 35.9747 11.4035 36.2297 11.4154C36.5535 11.4296 36.8781 11.4244 37.2019 11.4244C37.6401 11.4252 38.0783 11.4214 38.5166 11.4222C38.7312 11.4222 38.7521 11.4588 38.6437 11.6473C38.5517 11.8066 38.453 11.9621 38.3573 12.1191C37.7194 13.1661 37.0837 14.2153 36.4406 15.2593C36.306 15.4777 36.2147 15.6923 36.2865 15.9525C36.3045 16.0191 36.3015 16.0916 36.3105 16.1612C36.4608 17.324 36.6133 18.4877 36.7622 19.6513C36.887 20.6324 37.0075 21.6143 37.1316 22.5962C37.157 22.7997 37.1952 22.8348 37.3986 22.837C37.7141 22.84 38.0297 22.8385 38.3446 22.8363C38.7402 22.8333 38.6946 22.8931 38.8516 22.4915C39.9307 19.7365 41.0068 16.98 42.0845 14.2243C42.4158 13.3762 42.747 12.529 43.0798 11.6809C43.18 11.4274 43.183 11.4259 43.4388 11.4252C44.2457 11.4244 45.0519 11.4237 45.858 11.4259C46.0973 11.4259 46.104 11.4341 46.134 11.6727C46.2559 12.6277 46.3748 13.5834 46.4982 14.5384C46.6253 15.5285 46.7569 16.5179 46.884 17.5073C47.0187 18.5497 47.151 19.5915 47.2834 20.6339C47.3589 21.224 47.4314 21.8148 47.51 22.4055C47.5414 22.6404 47.5511 22.6471 47.7912 22.6478C48.3603 22.6501 48.9301 22.6449 49.4992 22.6508C49.6547 22.6531 49.7497 22.5992 49.7909 22.4497C49.8095 22.3824 49.835 22.3166 49.8567 22.25C50.4437 20.4447 50.5791 18.6021 50.3465 16.7228C50.0937 14.667 49.3399 12.8169 48.106 11.1589C46.9551 9.61242 45.5192 8.38075 43.8852 7.37267C41.6963 6.02134 39.3242 5.11871 36.8384 4.49203C35.2919 4.10166 33.726 3.81898 32.1406 3.63876C31.0517 3.51537 29.9621 3.4159 28.8666 3.38749C28.2189 3.37029 27.5698 3.37701 26.9215 3.37253C24.8246 3.35832 22.7381 3.48396 20.6629 3.79954C19.1381 4.03137 17.6297 4.33574 16.1467 4.76125C13.8786 5.41186 11.7203 6.313 9.73259 7.59926C8.28629 8.53555 7.0075 9.65654 5.95979 11.0311C5.89548 11.1148 5.82967 11.1963 5.77209 11.2846C5.72348 11.3594 5.7317 11.4192 5.83939 11.4229C5.90071 11.4252 5.96203 11.4252 6.02336 11.4252C6.84747 11.4252 7.67083 11.4244 8.49494 11.4252C8.78808 11.4252 8.79631 11.4341 8.83744 11.728C8.83968 11.7452 8.83968 11.7632 8.84268 11.7804C8.98925 12.7765 9.13807 13.7719 9.28315 14.768C9.43795 15.8246 9.58901 16.8813 9.74456 17.938C9.76101 18.0509 9.76101 18.1751 9.85748 18.2618C9.9375 18.2117 9.95395 18.1399 9.98087 18.0771C10.5313 16.7796 11.0809 15.4814 11.6298 14.1832C11.9813 13.3523 12.3335 12.5222 12.679 11.6891C12.7553 11.5044 12.8675 11.4132 13.0746 11.4162C13.6879 11.4252 14.3011 11.4207 14.9143 11.4259C15.1043 11.4274 15.1237 11.4439 15.1559 11.6286C15.2172 11.9815 15.2695 12.3368 15.3279 12.6912C15.6068 14.3836 15.8842 16.0767 16.1677 17.769C16.1968 17.9455 16.1879 18.1347 16.3038 18.3209ZM26.9626 0.333347C28.3513 0.336338 29.5434 0.334095 30.7339 0.399906C31.7652 0.457489 32.7957 0.538254 33.8247 0.636219C34.8447 0.732689 35.8625 0.848602 36.8781 0.983959C38.0492 1.13876 39.215 1.3317 40.3757 1.5553C42.845 2.03092 45.2792 2.64564 47.664 3.44656C49.0004 3.89526 50.3136 4.40453 51.6103 4.95942C51.8765 5.07309 52.0306 5.2451 52.1002 5.52478C52.4928 7.1057 52.8338 8.69633 53.0761 10.3079C53.2832 11.6854 53.4298 13.0696 53.5278 14.4584C53.6706 16.4969 53.7005 18.5378 53.6302 20.5793C53.5824 21.9539 53.4791 23.3254 53.3206 24.6917C53.0746 26.8245 52.6857 28.9319 52.1503 31.0123C51.9895 31.6368 51.9917 31.6368 51.3867 31.8985C48.4851 33.1534 45.4774 34.0769 42.4 34.7844C40.6157 35.1942 38.8157 35.5158 37.0037 35.7693C36.0061 35.9091 35.004 36.0086 34.0019 36.108C32.074 36.2987 30.1416 36.3877 28.2055 36.4371C26.3651 36.4834 24.5277 36.4401 22.6902 36.3257C21.6844 36.2636 20.6801 36.191 19.678 36.0886C18.1629 35.9338 16.653 35.7349 15.1491 35.4843C13.1539 35.1523 11.1767 34.7358 9.22407 34.2041C6.87289 33.5639 4.57481 32.7697 2.33955 31.796C2.08977 31.6876 1.9604 31.5328 1.89384 31.2681C1.50272 29.7141 1.15797 28.1504 0.919416 26.5657C0.777328 25.622 0.665902 24.6737 0.576162 23.7232C0.455014 22.4325 0.354806 21.1395 0.345084 19.8427C0.330876 18.0644 0.305449 16.2853 0.439311 14.51C0.668147 11.4655 1.10488 8.45553 1.89459 5.5016C1.96713 5.23014 2.10922 5.06562 2.36572 4.95419C5.14466 3.75093 8.01483 2.82811 10.959 2.12515C12.7306 1.70263 14.518 1.35788 16.3187 1.08941C17.3664 0.933109 18.4194 0.812706 19.4731 0.699787C21.0675 0.527039 22.6678 0.447765 24.2689 0.375225C25.2329 0.331104 26.1961 0.340824 26.9626 0.333347Z" fill="#019FE3"/>
<path d="M25.8087 11.4244C26.1669 11.4244 26.5259 11.4214 26.8841 11.4259C27.0837 11.4282 27.0957 11.4454 27.0553 11.6398C26.9431 12.1872 26.8287 12.7339 26.7121 13.2805C26.6694 13.4802 26.6201 13.5213 26.4032 13.5221C25.713 13.5243 25.022 13.5251 24.3317 13.5221C24.0954 13.5206 24.076 13.4914 24.1253 13.2588C24.2382 12.7294 24.3512 12.2007 24.4678 11.6719C24.5202 11.4349 24.5329 11.4267 24.7857 11.4252C25.1267 11.4229 25.4677 11.4244 25.8087 11.4244Z" fill="#06A1E4"/>
</g>
<defs>
<clipPath id="clip0_2_17934">
<rect width="53.3333" height="36.122" fill="white" transform="translate(0.333332 0.333313)"/>
</clipPath>
</defs>
</svg>
